<?xml version="1.0" standalone="no"?><!DOCTYPE svg PUBLIC "-//W3C//DTD SVG 1.1//EN" "http://www.w3.org/Graphics/SVG/1.1/DTD/svg11.dtd"><svg width="100%" height="100%" viewBox="0 0 502 118" version="1.1" xmlns="http://www.w3.org/2000/svg" xmlns:xlink="http://www.w3.org/1999/xlink" xml:space="preserve" style="fill-rule:evenodd;clip-rule:evenodd;stroke-miterlimit:10;"><path d="M73.374,25.998c0,-10.742 -8.708,-19.45 -19.45,-19.45c-10.743,0 -19.451,8.708 -19.451,19.45c0,10.742 8.708,19.45 19.451,19.45c10.742,0 19.45,-8.708 19.45,-19.45" style="fill:#343434;fill-rule:nonzero;"/><path d="M73.374,25.998c0,-10.742 -8.708,-19.45 -19.45,-19.45c-10.743,0 -19.451,8.708 -19.451,19.45c0,10.742 8.708,19.45 19.451,19.45c10.742,0 19.45,-8.708 19.45,-19.45Z" style="fill:none;stroke-width:1px;stroke:#343434;"/><path d="M28.719,36.324c0.466,-0.132 0.939,-0.21 1.419,-0.233l-2.159,-3.761c1.1,-1.857 1.497,-0.685 -0.061,-0.573c-0.477,0.035 -1.151,0.324 -1.589,0.43c-1.008,0.243 -2.131,0.351 -3.078,0.75c-3.161,1.333 -6.212,4.015 -8.876,6.149c-5.377,4.309 -10.815,9.675 -13.275,16.262c-6.152,16.473 14.926,24.659 27.924,22.998c10.075,-1.288 19.569,-6.049 29.749,-6.532c8.086,-0.383 15.277,2.681 22.966,4.623c6.244,1.577 13.196,2.3 18.583,-1.934c5.419,-4.26 7.962,-11.857 6.666,-18.555c-2.955,-15.278 -21.621,-23.228 -34.573,-27.985c-3.025,-1.111 -4.329,3.719 -1.329,4.821c10.475,3.847 23.92,9.418 29.448,19.82c3.206,6.034 1.982,14.673 -4.094,18.56c-5.111,3.269 -12.056,0.9 -17.341,-0.663c-5.785,-1.712 -11.418,-3.517 -17.497,-3.691c-7.536,-0.215 -14.74,2.087 -21.92,4.084c-8.633,2.401 -17.57,4.459 -26.027,0.342c-6.448,-3.139 -10.687,-8.207 -7.386,-15.351c2.991,-6.475 9.173,-11.692 14.906,-15.685c2.162,-1.506 3.635,-2.524 6.086,-3.095c1.58,-0.368 4.12,-0.706 5.036,-2.252c0.946,-1.597 -0.256,-3.818 -2.159,-3.762c-0.92,0.028 -1.848,0.242 -2.748,0.412c-3.158,0.595 -1.821,5.415 1.329,4.821" style="fill:#343434;fill-rule:nonzero;"/><path d="M131.635,56.895l0,51.81c0,1.315 1.083,2.32 2.32,2.32l0.31,0c1.314,0 2.397,-1.005 2.397,-2.32c0,0 0,-2.32 0,-2.938c0,-0.232 0.154,-0.774 0.541,-0.31c3.557,4.099 8.429,6.573 13.61,6.573c5.336,0 9.976,-1.933 13.765,-5.722c3.866,-3.866 5.722,-8.429 5.722,-13.842c0,-5.413 -1.856,-9.975 -5.722,-13.765c-3.789,-3.866 -8.429,-5.645 -13.765,-5.645c-5.181,0 -9.589,1.779 -13.301,6.264c-0.232,0.387 -0.85,0.387 -0.85,-0.232c0,-3.016 0,-22.193 0,-22.193c0,-1.238 -1.083,-2.32 -2.397,-2.32l-0.31,0c-1.237,0 -2.32,1.082 -2.32,2.32ZM136.275,92.466c0,-8.042 6.496,-14.77 14.538,-14.77c8.042,0 14.538,6.728 14.538,14.77c0,8.042 -6.496,14.925 -14.538,14.925c-8.042,0 -14.538,-6.883 -14.538,-14.925Z" style="fill:#383737;fill-rule:nonzero;"/><path d="M194.736,73.056c-10.749,0 -19.487,8.739 -19.487,19.487c0,10.749 8.738,19.487 19.487,19.487c10.826,0 19.565,-8.738 19.565,-19.487c0,-10.748 -8.739,-19.487 -19.565,-19.487ZM194.736,107.391c-7.965,0 -14.538,-6.805 -14.538,-14.848c0,-8.042 6.573,-14.847 14.538,-14.847c8.042,0 14.538,6.805 14.538,14.847c0,8.043 -6.496,14.848 -14.538,14.848Z" style="fill:#383737;fill-rule:nonzero;"/><path d="M220.642,56.895l0,51.81c0,1.315 1.082,2.32 2.319,2.32l0.31,0c1.314,0 2.397,-1.005 2.397,-2.32c0,0 0,-2.32 0,-2.938c0,-0.232 0.155,-0.774 0.541,-0.31c3.557,4.099 8.429,6.573 13.61,6.573c5.336,0 9.976,-1.933 13.765,-5.722c3.866,-3.866 5.722,-8.429 5.722,-13.842c0,-5.413 -1.856,-9.975 -5.722,-13.765c-3.789,-3.866 -8.429,-5.645 -13.765,-5.645c-5.181,0 -9.589,1.779 -13.3,6.264c-0.232,0.387 -0.851,0.387 -0.851,-0.232c0,-3.016 0,-22.193 0,-22.193c0,-1.238 -1.083,-2.32 -2.397,-2.32l-0.31,0c-1.237,0 -2.319,1.082 -2.319,2.32ZM225.281,92.466c0,-8.042 6.496,-14.77 14.538,-14.77c8.042,0 14.538,6.728 14.538,14.77c0,8.042 -6.496,14.925 -14.538,14.925c-8.042,0 -14.538,-6.883 -14.538,-14.925Z" style="fill:#383737;fill-rule:nonzero;"/><path d="M265.647,56.895l0,51.81c0,1.315 1.083,2.32 2.32,2.32l0.309,0c1.315,0 2.398,-1.005 2.398,-2.32c0,0 0,-2.32 0,-2.938c0,-0.232 0.154,-0.774 0.541,-0.31c3.557,4.099 8.429,6.573 13.61,6.573c5.336,0 9.975,-1.933 13.765,-5.722c3.866,-3.866 5.722,-8.429 5.722,-13.842c0,-5.413 -1.856,-9.975 -5.722,-13.765c-3.79,-3.866 -8.429,-5.645 -13.765,-5.645c-5.181,0 -9.589,1.779 -13.301,6.264c-0.232,0.387 -0.85,0.387 -0.85,-0.232c0,-3.016 0,-22.193 0,-22.193c0,-1.238 -1.083,-2.32 -2.398,-2.32l-0.309,0c-1.237,0 -2.32,1.082 -2.32,2.32ZM270.287,92.466c0,-8.042 6.496,-14.77 14.538,-14.77c8.042,0 14.538,6.728 14.538,14.77c0,8.042 -6.496,14.925 -14.538,14.925c-8.042,0 -14.538,-6.883 -14.538,-14.925Z" style="fill:#383737;fill-rule:nonzero;"/><path d="M313.205,54.575l-0.155,0c-1.314,0 -2.397,1.082 -2.397,2.397l0,51.656c0,1.315 1.083,2.397 2.397,2.397l0.155,0c1.314,0 2.397,-1.082 2.397,-2.397l0,-51.656c0,-1.315 -1.083,-2.397 -2.397,-2.397Z" style="fill:#383737;fill-rule:nonzero;"/><path d="M131.636,56.895l0,51.81c0,1.315 1.083,2.32 2.32,2.32l0.309,0c1.314,0 2.397,-1.005 2.397,-2.32l0,-2.938c0,-0.232 0.155,-0.773 0.541,-0.309c3.558,4.098 8.43,6.572 13.61,6.572c5.336,0 9.976,-1.932 13.765,-5.721c3.867,-3.868 5.723,-8.429 5.723,-13.842c0,-5.413 -1.856,-9.976 -5.723,-13.765c-3.789,-3.867 -8.429,-5.645 -13.765,-5.645c-5.18,0 -9.589,1.778 -13.3,6.263c-0.232,0.387 -0.851,0.387 -0.851,-0.232l0,-22.193c0,-1.237 -1.083,-2.32 -2.397,-2.32l-0.309,0c-1.237,0 -2.32,1.083 -2.32,2.32ZM136.276,92.467c0,-8.043 6.495,-14.771 14.537,-14.771c8.043,0 14.538,6.728 14.538,14.771c0,8.042 -6.495,14.924 -14.538,14.924c-8.042,0 -14.537,-6.882 -14.537,-14.924Z" style="fill:none;stroke-width:1px;stroke:#343434;"/><path d="M194.735,73.056c-10.749,0 -19.487,8.738 -19.487,19.487c0,10.748 8.738,19.487 19.487,19.487c10.826,0 19.564,-8.739 19.564,-19.487c0,-10.749 -8.738,-19.487 -19.564,-19.487ZM194.735,107.39c-7.965,0 -14.538,-6.805 -14.538,-14.847c0,-8.043 6.573,-14.847 14.538,-14.847c8.042,0 14.538,6.804 14.538,14.847c0,8.042 -6.496,14.847 -14.538,14.847Z" style="fill:none;stroke-width:1px;stroke:#343434;"/><path d="M220.64,56.895l0,51.81c0,1.315 1.083,2.32 2.32,2.32l0.309,0c1.314,0 2.397,-1.005 2.397,-2.32l0,-2.938c0,-0.232 0.155,-0.773 0.541,-0.309c3.558,4.098 8.43,6.572 13.61,6.572c5.336,0 9.976,-1.932 13.765,-5.721c3.867,-3.868 5.723,-8.429 5.723,-13.842c0,-5.413 -1.856,-9.976 -5.723,-13.765c-3.789,-3.867 -8.429,-5.645 -13.765,-5.645c-5.18,0 -9.589,1.778 -13.3,6.263c-0.232,0.387 -0.851,0.387 -0.851,-0.232l0,-22.193c0,-1.237 -1.083,-2.32 -2.397,-2.32l-0.309,0c-1.237,0 -2.32,1.083 -2.32,2.32ZM225.28,92.467c0,-8.043 6.495,-14.771 14.537,-14.771c8.043,0 14.538,6.728 14.538,14.771c0,8.042 -6.495,14.924 -14.538,14.924c-8.042,0 -14.537,-6.882 -14.537,-14.924Z" style="fill:none;stroke-width:1px;stroke:#343434;"/><path d="M265.644,56.895l0,51.81c0,1.315 1.083,2.32 2.32,2.32l0.309,0c1.314,0 2.397,-1.005 2.397,-2.32l0,-2.938c0,-0.232 0.155,-0.773 0.541,-0.309c3.558,4.098 8.43,6.572 13.61,6.572c5.336,0 9.976,-1.932 13.765,-5.721c3.867,-3.868 5.723,-8.429 5.723,-13.842c0,-5.413 -1.856,-9.976 -5.723,-13.765c-3.789,-3.867 -8.429,-5.645 -13.765,-5.645c-5.18,0 -9.589,1.778 -13.3,6.263c-0.232,0.387 -0.851,0.387 -0.851,-0.232l0,-22.193c0,-1.237 -1.083,-2.32 -2.397,-2.32l-0.309,0c-1.237,0 -2.32,1.083 -2.32,2.32ZM270.284,92.467c0,-8.043 6.495,-14.771 14.537,-14.771c8.043,0 14.538,6.728 14.538,14.771c0,8.042 -6.495,14.924 -14.538,14.924c-8.042,0 -14.537,-6.882 -14.537,-14.924Z" style="fill:none;stroke-width:1px;stroke:#343434;"/><path d="M313.2,54.575l-0.155,0c-1.314,0 -2.397,1.083 -2.397,2.397l0,51.656c0,1.314 1.083,2.397 2.397,2.397l0.155,0c1.314,0 2.397,-1.083 2.397,-2.397l0,-51.656c0,-1.314 -1.083,-2.397 -2.397,-2.397Z" style="fill:none;stroke-width:1px;stroke:#343434;"/><rect x="310.66" y="106.883" width="11.827" height="4.731" style="fill:#383737;fill-rule:nonzero;stroke-width:1px;stroke:#343434;"/><path d="M364.598,88.823c-0.542,-3.867 -2.166,-7.192 -4.872,-9.898c-3.867,-3.867 -8.429,-5.645 -13.842,-5.645c-5.413,0 -9.976,1.778 -13.842,5.645c-3.789,3.789 -5.722,8.351 -5.722,13.764c0,5.413 1.933,9.976 5.722,13.842c3.866,3.789 8.429,5.723 13.842,5.723c5.413,0 9.975,-1.934 13.842,-5.8c0.309,-0.309 0.619,-0.619 0.928,-1.005c1.16,-1.238 1.083,-3.016 -0.309,-3.944c-1.779,-1.083 -2.862,-0.31 -4.64,1.856c-1.779,2.165 -5.877,4.253 -9.821,4.253c-4.021,0 -7.424,-1.933 -10.207,-4.717c-2.552,-2.475 -3.944,-5.645 -4.254,-9.512c-0.077,-1.16 0.155,-1.469 1.238,-1.469l29.617,0c2.165,0 2.474,-1.933 2.32,-3.093ZM357.793,86.967l-23.818,0c-1.237,0 -1.624,-0.077 -1.082,-1.083c0.618,-1.005 1.469,-2.165 2.706,-3.402c2.861,-2.861 6.264,-4.563 10.285,-4.563c3.944,0 7.346,1.702 10.207,4.563c1.083,1.005 1.856,2.01 2.398,3.016c0.464,0.773 0.928,1.469 -0.696,1.469Z" style="fill:#383737;fill-rule:nonzero;"/><path d="M408.675,54.798l-0.232,0c-1.314,0 -2.397,1.082 -2.397,2.397l0,21.884c0,0.387 -0.309,0.774 -0.696,0.774l-28.844,0c-0.386,0 -0.696,-0.387 -0.696,-0.774l0,-21.884c0,-1.315 -1.082,-2.397 -2.397,-2.397l-0.232,0c-1.314,0 -2.397,1.082 -2.397,2.397l0,51.656c0,1.315 1.083,2.397 2.397,2.397l0.232,0c1.315,0 2.397,-1.082 2.397,-2.397l0,-23.276c0,-0.464 0.31,-0.773 0.696,-0.773l28.844,0c0.387,0 0.696,0.309 0.696,0.773l0,23.276c0,1.315 1.083,2.397 2.397,2.397l0.232,0c1.315,0 2.398,-1.082 2.398,-2.397l0,-51.656c0,-1.315 -1.083,-2.397 -2.398,-2.397Z" style="fill:#383737;fill-rule:nonzero;"/><path d="M442.236,56.267c-0.386,-1.005 -1.314,-1.469 -2.319,-1.469c-0.928,0 -1.934,0.464 -2.32,1.469l-21.653,51.579c-0.464,1.16 0.078,2.629 1.315,3.093l0.155,0.077c1.237,0.542 2.629,-0.077 3.17,-1.237c0,0 5.491,-13.069 5.877,-13.997c0.387,-0.928 0.928,-1.237 1.856,-1.237c0.773,0 18.018,0 23.122,0c0.928,0 1.546,0.309 1.856,1.005c0.309,0.696 5.954,14.229 5.954,14.229c0.541,1.16 1.933,1.779 3.17,1.237l0.155,-0.077c1.237,-0.464 1.856,-1.933 1.315,-3.093l-21.653,-51.579ZM429.477,88.513c0.232,-0.541 7.269,-18.327 9.666,-23.508c0.619,-1.314 0.928,-1.314 1.47,0c2.165,5.181 9.279,22.503 9.666,23.276c0.386,0.928 0.232,1.238 -0.851,1.238c-1.005,0 -14.693,0 -19.023,0c-0.851,0 -1.16,-0.31 -0.928,-1.006Z" style="fill:#383737;fill-rule:nonzero;"/><path d="M494.511,54.798l-30.313,0c-1.315,0 -2.397,1.082 -2.397,2.397l0,0.155c0,1.314 1.082,2.397 2.397,2.397l11.831,0c0.696,0 0.851,0.232 0.851,1.005l0,48.099c0,1.315 1.083,2.397 2.397,2.397l0.155,0c1.314,0 2.397,-1.082 2.397,-2.397l0,-48.253c0,-0.619 0.232,-0.851 1.005,-0.851l11.677,0c1.315,0 2.397,-1.083 2.397,-2.397l0,-0.155c0,-1.315 -1.082,-2.397 -2.397,-2.397Z" style="fill:#383737;fill-rule:nonzero;"/><path d="M364.598,88.823c-0.541,-3.867 -2.165,-7.192 -4.872,-9.898c-3.866,-3.867 -8.428,-5.645 -13.841,-5.645c-5.413,0 -9.976,1.778 -13.843,5.645c-3.789,3.789 -5.722,8.351 -5.722,13.764c0,5.413 1.933,9.976 5.722,13.842c3.867,3.79 8.43,5.723 13.843,5.723c5.413,0 9.975,-1.933 13.841,-5.8c0.31,-0.309 0.619,-0.619 0.928,-1.006c1.16,-1.237 1.083,-3.015 -0.309,-3.943c-1.779,-1.083 -2.861,-0.309 -4.64,1.856c-1.778,2.165 -5.877,4.253 -9.82,4.253c-4.022,0 -7.424,-1.934 -10.208,-4.717c-2.552,-2.475 -3.944,-5.645 -4.253,-9.512c-0.077,-1.16 0.154,-1.469 1.237,-1.469l29.617,0c2.166,0 2.475,-1.933 2.32,-3.093ZM357.793,86.967l-23.817,0c-1.237,0 -1.624,-0.078 -1.083,-1.083c0.619,-1.005 1.469,-2.165 2.706,-3.402c2.862,-2.862 6.264,-4.563 10.286,-4.563c3.943,0 7.346,1.701 10.207,4.563c1.083,1.005 1.856,2.01 2.397,3.016c0.464,0.773 0.928,1.469 -0.696,1.469Z" style="fill:none;stroke-width:1px;stroke:#343434;"/><path d="M408.675,54.798l-0.232,0c-1.314,0 -2.397,1.083 -2.397,2.397l0,21.884c0,0.387 -0.309,0.774 -0.696,0.774l-28.844,0c-0.387,0 -0.696,-0.387 -0.696,-0.774l0,-21.884c0,-1.314 -1.083,-2.397 -2.397,-2.397l-0.232,0c-1.315,0 -2.397,1.083 -2.397,2.397l0,51.656c0,1.315 1.082,2.397 2.397,2.397l0.232,0c1.314,0 2.397,-1.082 2.397,-2.397l0,-23.276c0,-0.464 0.309,-0.774 0.696,-0.774l28.844,0c0.387,0 0.696,0.31 0.696,0.774l0,23.276c0,1.315 1.083,2.397 2.397,2.397l0.232,0c1.314,0 2.397,-1.082 2.397,-2.397l0,-51.656c0,-1.314 -1.083,-2.397 -2.397,-2.397Z" style="fill:none;stroke-width:1px;stroke:#343434;"/><path d="M442.235,56.267c-0.387,-1.005 -1.315,-1.469 -2.32,-1.469c-0.928,0 -1.933,0.464 -2.32,1.469l-21.652,51.579c-0.464,1.159 0.077,2.629 1.314,3.093l0.155,0.077c1.238,0.541 2.629,-0.077 3.171,-1.237c0,0 5.49,-13.069 5.877,-13.997c0.386,-0.928 0.928,-1.237 1.856,-1.237l23.121,0c0.928,0 1.547,0.309 1.856,1.005c0.309,0.696 5.954,14.229 5.954,14.229c0.542,1.16 1.934,1.778 3.171,1.237l0.154,-0.077c1.238,-0.464 1.856,-1.934 1.315,-3.093l-21.652,-51.579ZM429.476,88.513c0.232,-0.541 7.268,-18.327 9.666,-23.508c0.618,-1.315 0.927,-1.315 1.469,0c2.165,5.181 9.279,22.503 9.666,23.276c0.387,0.928 0.232,1.237 -0.851,1.237l-19.023,0c-0.85,0 -1.159,-0.309 -0.927,-1.005Z" style="fill:none;stroke-width:1px;stroke:#343434;"/><path d="M494.51,54.798l-30.313,0c-1.314,0 -2.397,1.083 -2.397,2.397l0,0.155c0,1.314 1.083,2.397 2.397,2.397l11.832,0c0.695,0 0.85,0.232 0.85,1.005l0,48.099c0,1.315 1.083,2.397 2.397,2.397l0.155,0c1.314,0 2.397,-1.082 2.397,-2.397l0,-48.254c0,-0.618 0.232,-0.85 1.005,-0.85l11.677,0c1.315,0 2.397,-1.083 2.397,-2.397l0,-0.155c0,-1.314 -1.082,-2.397 -2.397,-2.397Z" style="fill:none;stroke-width:1px;stroke:#343434;"/><path d="M19.441,77.91c-0.368,7.545 -2.077,16.734 1.73,23.708c3.79,6.943 13.824,9.242 21.151,8.668c6.629,-0.519 13.099,-4.275 14.904,-11.03c2.421,-9.059 1.209,-20.034 0.456,-29.256c-0.26,-3.184 -5.262,-3.212 -5,0c0.552,6.763 0.74,13.536 0.452,20.317c-0.313,7.386 -1.861,13.791 -10.274,14.862c-6.873,0.875 -16.299,-1.303 -18.368,-8.732c-1.598,-5.738 -0.336,-12.691 -0.051,-18.537c0.157,-3.216 -4.843,-3.208 -5,0" style="fill:#343434;fill-rule:nonzero;"/><path d="M53.404,97.25c2.523,10.665 14.389,15.743 24.539,13.734c16.05,-3.178 14.992,-20.442 14.202,-33.308c-0.196,-3.197 -5.198,-3.219 -5,0c0.607,9.88 2.947,25.212 -9.588,28.282c-7.779,1.905 -17.369,-1.739 -19.332,-10.037c-0.74,-3.13 -5.562,-1.805 -4.821,1.329" style="fill:#343434;fill-rule:nonzero;"/><path d="M44.525,15.667c3.417,-5.196 8.939,-7.735 15.099,-7.241c-0.54,-0.941 -1.08,-1.881 -1.619,-2.821c-1.994,3.93 -2.431,7.771 -1.263,12.035c0.359,1.312 2.173,1.886 3.134,0.828c3.111,-3.427 7.908,-3.247 11.335,-0.399c3.054,2.539 4.222,6.35 4.791,10.134c1.143,-0.482 2.285,-0.963 3.427,-1.445c-3.202,-4.158 -7.042,-6.942 -12.05,-8.564c-0.166,1.228 -0.332,2.455 -0.498,3.683c2.299,0.027 3.944,1.08 4.934,3.16c0.87,1.523 3.685,0.964 3.494,-0.947c-0.287,-2.868 -1.44,-4.851 -3.949,-6.309c-0.482,1.142 -0.963,2.285 -1.445,3.427c0.924,0.468 1.848,0.937 2.772,1.405c1.757,1.666 4.288,-0.878 2.652,-2.652c-0.833,-0.903 -1.667,-1.806 -2.501,-2.71c-0.996,-1.08 -2.724,-0.46 -3.133,0.827c-2.273,-1.767 -2.633,-3.349 -1.08,-4.746c0.534,-0.771 1.144,-1.477 1.829,-2.119c-0.982,-0.757 -1.964,-1.515 -2.945,-2.272c-1.03,1.863 -1.263,3.298 -1.517,5.154c-0.328,2.389 2.696,3.261 3.616,0.997c1.875,-4.614 -3.346,-5.616 -6.634,-4.501c0.482,1.142 0.963,2.284 1.445,3.427c0.999,-0.546 1.998,-1.091 2.996,-1.637c1.676,-0.915 0.86,-3.454 -0.946,-3.494c-3.973,-0.086 -7.521,0.812 -10.993,2.727c-2.113,1.166 -0.224,4.406 1.893,3.238c2.942,-1.623 5.764,-2.287 9.1,-2.215c-0.315,-1.164 -0.631,-2.329 -0.946,-3.494c-0.999,0.546 -1.998,1.091 -2.997,1.637c-1.835,1.002 -0.593,4.118 1.445,3.427c0.674,-0.037 1.347,-0.075 2.021,-0.112c1.205,0.333 2.411,0.665 3.616,0.997c0.753,-5.491 -6.921,-7.695 -7.804,-1.911c-0.336,2.202 1.308,4.187 3.475,4.461c4.354,0.551 3.935,-4.036 5.468,-6.808c1.008,-1.824 -1.44,-3.855 -2.945,-2.272c-3.03,3.186 -6.755,8.57 -2.709,12.622c2.756,2.76 7.092,1.46 8.228,-2.109c-1.045,0.276 -2.09,0.552 -3.134,0.828c0.833,0.903 1.667,1.807 2.5,2.71l2.652,-2.652c-1.386,-1.314 -2.562,-1.978 -4.427,-2.369c-2.019,-0.424 -3.355,2.317 -1.445,3.427c0.698,1.024 1.395,2.048 2.092,3.071c1.165,-0.315 2.329,-0.631 3.494,-0.946c-1.828,-3.2 -4.514,-4.784 -8.172,-5.017c-2.188,-0.139 -2.436,3.056 -0.499,3.683c3.981,1.289 7.243,3.508 9.809,6.841c1.313,1.705 3.753,0.72 3.427,-1.445c-0.838,-5.572 -3.39,-11.284 -8.732,-13.857c-4.66,-2.245 -10.188,-1.36 -13.662,2.467c1.045,0.276 2.089,0.552 3.134,0.827c-0.896,-3.271 -0.661,-6.098 0.885,-9.146c0.673,-1.327 -0.17,-2.705 -1.619,-2.821c-7.494,-0.601 -14.228,2.85 -18.337,9.098c-1.33,2.023 1.916,3.903 3.238,1.893" style="fill:#343434;fill-rule:nonzero;"/><path d="M54.845,12.88c-4.997,-4.551 -10.931,-6.905 -17.696,-6.953l0,3.75c3.107,-0.184 5.676,0.236 8.497,1.566c0.481,-1.143 0.963,-2.285 1.444,-3.427c-3.27,-0.861 -6.367,-1.221 -9.762,-1.104c-1.309,0.045 -2.484,1.601 -1.619,2.822c1.778,2.509 2.82,5.062 3.321,8.083c0.347,2.092 3.764,1.593 3.683,-0.498c-0.076,-1.99 -0.153,-3.98 -0.23,-5.97c-0.092,-2.403 -3.809,-2.422 -3.75,0c0.006,0.226 0.011,0.451 0.017,0.677c0.022,0.907 0.583,1.489 1.376,1.808c0.21,0.084 0.419,0.168 0.628,0.252c0.731,0.293 1.765,-0.19 2.118,-0.862c0.105,-0.199 0.21,-0.399 0.315,-0.599c0.425,-0.809 0.257,-1.592 -0.294,-2.272c-0.141,-0.175 -0.283,-0.351 -0.425,-0.526c-0.884,0.884 -1.768,1.768 -2.652,2.652c0.972,1.149 1.945,2.299 2.917,3.449l0.379,-2.945c-8.495,3.804 -12.71,13.689 -9.691,22.469c0.607,1.768 3.014,1.788 3.616,0c0.789,-2.345 2.372,-3.887 4.594,-4.879c-0.855,-0.855 -1.71,-1.71 -2.565,-2.565c-3.326,5.64 -3.166,12.262 0.584,17.663c0.938,1.351 3.735,1.082 3.494,-0.946c-0.29,-2.435 -0.119,-4.453 0.891,-6.749c0.947,-2.154 -2.066,-4.066 -3.238,-1.893c-1.285,2.384 -1.883,4.597 -1.964,7.311c-0.065,2.188 3.033,2.445 3.683,0.498c1.101,-3.296 2.713,-6.023 5.05,-8.578c1.626,-1.778 -1.019,-4.438 -2.652,-2.652c-2.774,3.034 -4.713,6.339 -6.014,10.233l3.683,0.499c-0.093,-1.961 0.391,-3.766 1.452,-5.418c-1.079,-0.631 -2.159,-1.262 -3.238,-1.893c-1.279,2.909 -1.781,5.466 -1.403,8.642c1.164,-0.316 2.329,-0.631 3.494,-0.946c-3.012,-4.339 -3.289,-9.291 -0.584,-13.878c1.03,-1.747 -0.954,-3.285 -2.566,-2.566c-3.241,1.446 -5.193,3.782 -6.317,7.12l3.616,0c-2.525,-7.343 0.896,-15.067 7.968,-18.234c1.192,-0.533 1.076,-2.121 0.38,-2.945c-0.973,-1.15 -1.945,-2.299 -2.917,-3.449c-1.571,-1.858 -4.149,0.802 -2.652,2.652c0.142,0.175 0.284,0.35 0.426,0.526c-0.098,-0.758 -0.196,-1.515 -0.293,-2.272c-0.105,0.199 -0.21,0.399 -0.315,0.598c0.706,-0.287 1.411,-0.574 2.117,-0.861c-0.209,-0.084 -0.418,-0.168 -0.628,-0.252c0.459,0.602 0.918,1.205 1.377,1.808c-0.006,-0.226 -0.011,-0.451 -0.017,-0.677l-3.75,0c0.077,1.99 0.154,3.98 0.23,5.97c1.228,-0.166 2.455,-0.332 3.683,-0.498c-0.562,-3.392 -1.712,-6.175 -3.699,-8.98c-0.54,0.94 -1.08,1.881 -1.619,2.821c3.023,-0.104 5.827,0.196 8.766,0.97c1.983,0.522 3.424,-2.494 1.444,-3.427c-3.38,-1.594 -6.651,-2.3 -10.389,-2.078c-2.39,0.142 -2.434,3.733 0,3.75c5.733,0.041 10.808,1.997 15.044,5.855c1.781,1.622 4.441,-1.023 2.652,-2.652" style="fill:#343434;fill-rule:nonzero;"/><path d="M35.817,20.888c-2.425,5.379 -3.366,10.924 -2.597,16.792c0.306,2.343 3.59,2.473 3.75,0c0.003,-1.323 0.408,-2.474 1.214,-3.454c-1.142,-0.481 -2.284,-0.963 -3.427,-1.444c-0.384,1.251 -0.769,2.502 -1.154,3.753c-0.72,2.341 2.784,3.219 3.616,0.996c0.382,-1.02 0.764,-2.04 1.146,-3.061c0.74,-1.975 -2.511,-3.36 -3.427,-1.444l-1.293,2.703c1.165,0.315 2.329,0.631 3.494,0.946c0.54,-6 2.991,-11.413 7.082,-15.828c1.639,-1.768 -1.007,-4.426 -2.652,-2.651c-4.797,5.177 -7.548,11.456 -8.18,18.479c-0.165,1.828 2.707,2.591 3.494,0.947c0.431,-0.902 0.862,-1.803 1.293,-2.704c-1.142,-0.481 -2.285,-0.963 -3.427,-1.445c-0.382,1.021 -0.764,2.041 -1.146,3.062c1.206,0.332 2.411,0.664 3.616,0.996c0.385,-1.251 0.77,-2.502 1.154,-3.752c0.646,-2.101 -2.294,-3.171 -3.427,-1.445c-1.129,1.721 -1.595,3.301 -1.726,5.346l3.75,0c-0.676,-5.159 -0.061,-10.139 2.085,-14.899c0.984,-2.183 -2.247,-4.092 -3.238,-1.893" style="fill:#343434;fill-rule:nonzero;"/><path d="M39.865,14.508c-5.837,2.731 -10.516,7.413 -13.244,13.252c1.142,0.481 2.284,0.963 3.427,1.444c0.947,-2.509 2.951,-4.27 5.502,-5.028c-0.706,-0.918 -1.411,-1.836 -2.117,-2.754c-1.338,2.082 -2.909,3.872 -4.763,5.507c-1.16,1.023 -0.286,3.362 1.326,3.201c2.963,-0.297 5.777,-0.93 8.547,-2.038c2.214,-0.884 1.248,-4.513 -0.997,-3.616c-2.444,0.977 -4.927,1.641 -7.55,1.904c0.442,1.066 0.884,2.133 1.326,3.2c2.088,-1.841 3.844,-3.925 5.349,-6.266c0.885,-1.377 -0.582,-3.21 -2.118,-2.754c-3.888,1.155 -6.697,3.872 -8.121,7.648c-0.744,1.971 2.527,3.369 3.427,1.444c2.491,-5.331 6.568,-9.412 11.899,-11.906c2.184,-1.022 0.282,-4.256 -1.893,-3.238" style="fill:#343434;fill-rule:nonzero;"/><path d="M51.298,41.597c2.743,5.348 8.366,7.943 14.225,7.036c1.854,-0.287 1.72,-3.226 0,-3.616c-6.142,-1.394 -11.399,-4.339 -15.774,-8.871c-1.441,-1.493 -4.2,0.501 -2.944,2.272c2.828,3.99 6.379,6.733 10.951,8.471c0.332,-1.206 0.665,-2.411 0.997,-3.616c-3.557,-1.092 -7.114,-2.183 -10.671,-3.275c-1.882,-0.577 -3.014,1.805 -1.824,3.134c4.951,5.532 12.634,5.71 19.541,5.397c1.779,-0.081 2.652,-2.563 0.946,-3.494c-3.179,-1.734 -4.717,-5.556 -3.188,-8.942c0.985,-2.182 -2.246,-4.091 -3.238,-1.893c-2.357,5.221 -0.584,11.281 4.533,14.073c0.316,-1.165 0.631,-2.329 0.947,-3.494c-5.896,0.267 -12.626,0.465 -16.89,-4.299c-0.608,1.045 -1.216,2.089 -1.824,3.134c3.557,1.092 7.114,2.183 10.671,3.275c2.346,0.72 3.211,-2.774 0.997,-3.616c-3.583,-1.362 -6.496,-3.624 -8.71,-6.747c-0.982,0.757 -1.964,1.515 -2.945,2.272c4.778,4.95 10.717,8.312 17.428,9.835l0,-3.616c-4.232,0.655 -8.075,-1.579 -9.99,-5.313c-1.102,-2.148 -4.339,-0.253 -3.238,1.893" style="fill:#343434;fill-rule:nonzero;"/><path d="M61.503,44.384c4.634,-2.039 10.95,-3.782 13.187,-8.83c0.955,-2.154 -2.002,-4.034 -3.238,-1.893c-0.336,0.221 -0.672,0.443 -1.008,0.664l2.307,2.307c0.374,-2.707 -1.504,-4.714 -4.279,-4.173c-2.366,0.462 -1.364,4.077 0.997,3.616c-0.112,-0.147 -0.223,-0.293 -0.334,-0.44c-0.2,1.444 0.788,2.608 2.306,2.306c1.51,-0.3 2.485,-1.063 3.249,-2.387c-1.079,-0.631 -2.158,-1.262 -3.238,-1.893c-1.884,4.252 -7.94,5.768 -11.842,7.485c-2.204,0.97 -0.297,4.202 1.893,3.238" style="fill:#343434;fill-rule:nonzero;"/><path d="M69.366,33.638c2.84,-1.551 5.375,-3.51 7.591,-5.868c1.391,-1.479 -0.47,-4.239 -2.272,-2.945c-1.398,1.004 -2.796,2.008 -4.194,3.012c0.757,0.982 1.514,1.963 2.272,2.945c1.415,-1.399 2.83,-2.799 4.244,-4.198c1.564,-1.546 -0.412,-3.882 -2.272,-2.945c-0.661,0.333 -1.322,0.666 -1.983,0.999c-0.836,0.421 -1.252,1.788 -0.673,2.566c-0.002,0.078 -0.005,0.156 -0.007,0.234c0.757,0.982 1.515,1.963 2.272,2.945l3.389,-3.166c-0.982,-0.758 -1.963,-1.515 -2.945,-2.272c-2.09,3.74 -4.955,6.823 -8.567,9.133c-1.746,1.116 -0.663,4.035 1.444,3.427c4.851,-1.401 8.57,-5.288 9.614,-10.25c0.494,-2.35 -3.091,-3.361 -3.616,-0.997c-0.922,4.144 -4.449,7.175 -8.731,7.271c-2.409,0.053 -2.418,3.804 0,3.75c5.881,-0.131 11.062,-4.245 12.347,-10.024c-1.206,-0.332 -2.411,-0.665 -3.616,-0.997c-0.781,3.71 -3.332,6.573 -6.995,7.631c0.482,1.142 0.964,2.284 1.445,3.427c4.144,-2.651 7.511,-6.181 9.913,-10.479c1.048,-1.875 -1.385,-3.729 -2.945,-2.272l-3.389,3.166c-1.63,1.523 0.438,3.842 2.273,2.945c1.989,-0.972 2.692,-3.565 1.352,-5.365c-0.224,0.855 -0.449,1.71 -0.673,2.565l1.984,-0.999c-0.757,-0.982 -1.515,-1.963 -2.272,-2.945c-1.415,1.399 -2.83,2.799 -4.245,4.198c-1.468,1.452 0.5,4.218 2.272,2.945c1.398,-1.004 2.797,-2.008 4.195,-3.012c-0.758,-0.982 -1.515,-1.963 -2.272,-2.945c-2.014,2.142 -4.253,3.873 -6.833,5.282c-2.118,1.157 -0.228,4.396 1.893,3.238" style="fill:#343434;fill-rule:nonzero;"/><path d="M42.185,39.411c1.58,2.381 2.518,4.947 2.715,7.807c0.117,1.702 1.929,2.367 3.201,1.325c1.387,-1.136 2.522,-2.433 3.534,-3.91c-1.079,-0.631 -2.159,-1.261 -3.238,-1.892c-0.561,0.856 -1.123,1.712 -1.684,2.568c-1.015,1.547 1.014,3.595 2.565,2.565c3.096,-2.056 5.515,-4.819 6.983,-8.246c0.941,-2.194 -2.289,-4.107 -3.238,-1.893c-1.218,2.843 -3.051,5.183 -5.638,6.901l2.566,2.565c0.561,-0.856 1.123,-1.712 1.684,-2.568c1.333,-2.032 -1.885,-3.866 -3.238,-1.892c-0.831,1.213 -1.812,2.22 -2.948,3.151c1.067,0.442 2.134,0.884 3.201,1.326c-0.242,-3.517 -1.273,-6.755 -3.227,-9.7c-1.328,-2.002 -4.577,-0.126 -3.238,1.893" style="fill:#343434;fill-rule:nonzero;"/><path d="M72.758,27.554c0.729,-1.957 1.459,-3.914 2.188,-5.871c-1.142,0.149 -2.284,0.298 -3.427,0.448c0.098,0.455 0.197,0.91 0.295,1.366c1.165,-0.316 2.329,-0.631 3.494,-0.947c0.064,-0.26 0.127,-0.52 0.191,-0.78c-1.079,-0.631 -2.158,-1.261 -3.238,-1.892c-1.663,2.646 -4.003,5.462 -5.061,8.435c-0.378,1.064 0.116,7.072 -0.131,7.147c-1.2,0.367 -1.686,1.663 -1.121,2.755c0.845,1.632 1.691,3.264 2.536,4.896c0.982,-0.758 1.963,-1.515 2.945,-2.272c-0.663,-0.744 -1.326,-1.488 -1.989,-2.231c-1.095,-1.228 -3.22,-0.244 -3.201,1.325c0.024,2.056 0.66,3.14 2.387,4.236c1.259,0.8 2.755,-0.261 2.822,-1.619c0.131,-2.676 0.615,-5.141 1.446,-7.672c0.657,-1.999 -2.467,-3.351 -3.427,-1.444c-1.171,2.327 -1.443,4.438 -0.832,6.986c0.429,1.789 3.183,1.784 3.616,0c0.228,-1.749 1.241,-2.929 3.038,-3.538c1.915,-0.692 1.723,-3.686 -0.498,-3.683c-0.175,-0.068 -0.349,-0.136 -0.524,-0.204c-0.706,0.918 -1.411,1.837 -2.117,2.755c0.572,0.112 1.144,0.225 1.715,0.338c1.837,0.362 3.12,-1.702 1.825,-3.134c-1.37,-1.514 -1.854,-3.222 -1.712,-5.223c0.17,-2.409 -3.581,-2.398 -3.75,0c-0.219,3.092 0.745,5.592 2.81,7.875l1.824,-3.134l-1.715,-0.338c-1.469,-0.29 -3.111,1.295 -2.118,2.754c0.998,1.466 1.965,2.062 3.762,2.061l-0.498,-3.683c-2.996,1.081 -4.895,3.013 -5.658,6.157l3.616,0c-0.475,-1.413 -0.324,-2.778 0.454,-4.097c-1.142,-0.481 -2.284,-0.963 -3.427,-1.444c-0.94,2.861 -1.433,5.668 -1.58,8.668c0.94,-0.539 1.881,-1.079 2.821,-1.619l-0.53,-0.998l-3.201,1.326l1.989,2.231c1.471,1.65 3.888,-0.451 2.945,-2.272c-0.845,-1.632 -1.691,-3.264 -2.536,-4.896c-0.373,0.918 -0.747,1.836 -1.12,2.754c2.208,-0.675 3.327,-2.411 3.222,-4.744c-0.105,-2.328 -0.626,-4.15 0.325,-6.38c0.909,-2.129 2.648,-4.212 3.886,-6.182c1.314,-2.09 -1.832,-3.78 -3.238,-1.892c-1.164,1.563 -1.099,2.892 -0.191,4.565c0.866,1.596 3.603,0.92 3.494,-0.946c-0.083,-1.409 -0.247,-1.968 -0.807,-3.259c-0.708,-1.636 -2.932,-0.88 -3.427,0.448c-0.729,1.957 -1.459,3.914 -2.188,5.871c-0.844,2.264 2.779,3.242 3.616,0.997" style="fill:#343434;fill-rule:nonzero;"/><path d="M51.108,12.768c0.241,-3.007 -0.51,-5.877 -2.167,-8.393c-0.982,0.757 -1.963,1.515 -2.945,2.272c1.448,1.162 2.163,2.496 2.14,4.369c-0.025,2.071 3.238,2.604 3.683,0.498c0.646,-3.056 1.292,-6.113 1.938,-9.169c0.498,-2.354 -3.116,-3.361 -3.616,-0.997c-0.646,3.056 -1.292,6.113 -1.938,9.169l3.683,0.499c0.033,-2.76 -1.075,-5.284 -3.238,-7.021c-1.528,-1.226 -4.215,0.344 -2.945,2.272c1.326,2.013 1.847,4.107 1.655,6.501c-0.193,2.406 3.558,2.393 3.75,0" style="fill:#343434;fill-rule:nonzero;"/><path d="M40.7,17.824c-2.292,-1.101 -4.584,-2.203 -6.877,-3.304c-2.165,-1.041 -4.069,2.192 -1.892,3.238c2.292,1.101 4.584,2.203 6.876,3.304c2.165,1.04 4.07,-2.192 1.893,-3.238" style="fill:#343434;fill-rule:nonzero;"/><path d="M41.254,19.359c-0.976,-1.638 -1.419,-3.504 -1.105,-5.404c0.391,-2.361 -3.222,-3.376 -3.616,-0.997c-0.482,2.914 -0.038,5.74 1.483,8.294c1.234,2.071 4.477,0.187 3.238,-1.893" style="fill:#343434;fill-rule:nonzero;"/><path d="M37.118,27.217c-3.794,0.627 -6.965,2.747 -9.255,5.79c-1.451,1.929 1.803,3.8 3.238,1.893c1.712,-2.275 4.242,-3.609 7.014,-4.067c2.375,-0.392 1.368,-4.007 -0.997,-3.616" style="fill:#343434;fill-rule:nonzero;"/><path d="M41.575,15.665c-0.841,-0.924 -1.692,-1.84 -2.554,-2.745c-0.915,-0.961 -1.836,-2.101 -3.305,-1.957c-1.485,0.145 -2.326,1.628 -1.784,2.994c0.582,1.47 2.254,1.733 3.408,0.758c0.773,-0.654 0.674,-1.978 0,-2.652c-0.767,-0.766 -1.876,-0.656 -2.652,0c-0.032,0.027 -0.065,0.055 -0.097,0.082c0.608,-0.161 1.216,-0.321 1.824,-0.482c-0.034,-0.006 -0.069,-0.011 -0.104,-0.017c0.275,0.161 0.551,0.322 0.827,0.482l0.287,0.461l0,0.997c0.01,-0.046 0.02,-0.092 0.031,-0.138c-0.161,0.276 -0.322,0.552 -0.483,0.828c0.036,-0.033 0.071,-0.066 0.106,-0.099c-0.275,0.161 -0.551,0.321 -0.827,0.482c0.071,-0.015 0.141,-0.031 0.212,-0.047l-0.997,0c-0.095,-0.018 0.337,0.368 0.431,0.467c0.355,0.369 0.707,0.739 1.058,1.111c0.662,0.703 1.317,1.413 1.967,2.127c1.629,1.788 4.274,-0.87 2.652,-2.652" style="fill:#343434;fill-rule:nonzero;"/><path d="M52.324,42.5c-0.666,1.373 -1.332,2.746 -1.998,4.119c-0.442,0.91 -0.249,2.026 0.672,2.565c0.823,0.481 2.122,0.242 2.566,-0.673l1.998,-4.118c0.442,-0.911 0.248,-2.027 -0.673,-2.566c-0.822,-0.481 -2.121,-0.242 -2.565,0.673" style="fill:#343434;fill-rule:nonzero;"/><path d="M36.074,16.708c0.015,0.01 0.031,0.019 0.046,0.029c0.607,0.382 1.309,0.183 1.818,-0.234c0.973,-0.798 0.421,-2.456 -0.706,-2.739c-0.586,-0.147 -1.195,0.059 -1.601,0.494c-0.202,0.217 -0.344,0.47 -0.423,0.755c-0.035,0.166 -0.059,0.334 -0.074,0.503c-0.038,0.353 0.057,0.154 0.288,-0.597c0.22,-0.129 0.441,-0.257 0.662,-0.386c-0.029,0.009 -0.058,0.018 -0.087,0.027c0.564,0.734 1.129,1.468 1.693,2.203c0.17,-0.331 0.34,-0.662 0.51,-0.993c-0.914,-0.385 -1.828,-0.771 -2.742,-1.156c0.031,-0.111 0.376,-0.291 0.088,-0.13c-0.707,0.396 -0.942,1.363 -0.538,2.053c0.416,0.711 1.343,0.935 2.052,0.538c0.644,-0.361 1.094,-0.954 1.291,-1.664c0.446,-1.603 -1.95,-2.698 -2.741,-1.155c-0.17,0.331 -0.34,0.662 -0.51,0.993c-0.572,1.116 0.38,2.599 1.694,2.203c0.479,-0.144 0.85,-0.433 1.091,-0.869c0.153,-0.276 0.196,-0.549 0.231,-0.86c0.033,-0.301 -0.096,0.29 0.022,-0.005c-0.129,0.22 -0.258,0.441 -0.386,0.662c-0.054,0.042 -0.108,0.084 -0.162,0.126c-0.385,0.05 -0.77,0.101 -1.155,0.151l0.063,0.015l-0.896,-0.69c0.01,0.018 0.02,0.037 0.031,0.055c-0.069,-0.252 -0.137,-0.505 -0.205,-0.757c0.013,-0.089 0.025,-0.177 0.038,-0.266c0.129,-0.22 0.257,-0.441 0.386,-0.662l-0.035,0.029l1.817,-0.234c-0.015,-0.01 -0.03,-0.02 -0.046,-0.029c-0.686,-0.432 -1.653,-0.145 -2.052,0.538c-0.422,0.72 -0.149,1.619 0.538,2.052" style="fill:#343434;fill-rule:nonzero;"/><path d="M75.829,25.51c0.548,-0.455 1.298,-0.724 1.971,-0.768c0.808,-0.054 1.5,-0.652 1.5,-1.5c0,-0.873 -0.69,-1.426 -1.5,-1.5c-0.774,-0.072 -1.496,-0.342 -2.163,-0.731c-1.67,-0.976 -3.182,1.615 -1.514,2.59c1.142,0.667 2.365,1.02 3.677,1.141l0,-3c-1.554,0.102 -2.897,0.655 -4.092,1.647c-0.624,0.517 -0.536,1.586 0,2.121c0.617,0.617 1.496,0.519 2.121,0" style="fill:#343434;fill-rule:nonzero;"/><path d="M75.328,23.066c0.136,0.112 0.272,0.224 0.409,0.336c0.625,0.513 1.509,0.612 2.121,0c0.53,-0.53 0.629,-1.605 0,-2.122c-0.136,-0.112 -0.272,-0.223 -0.409,-0.335c-0.625,-0.514 -1.509,-0.613 -2.121,0c-0.53,0.53 -0.629,1.604 0,2.121" style="fill:#343434;fill-rule:nonzero;"/><path d="M75.911,25.891c-0.151,-0.11 0.247,0.222 0.291,0.266c0.043,0.043 0.378,0.44 0.267,0.289c0.123,0.167 0.23,0.346 0.327,0.529c0.048,0.092 0.094,0.185 0.136,0.28c-0.055,-0.117 -0.05,-0.092 0.015,0.077c0.245,0.712 0.88,1.178 1.646,1.075c0.725,-0.098 1.307,-0.722 1.301,-1.473c-0.011,-1.37 -1.234,-2.227 -2.529,-1.953c-0.792,0.169 -1.253,1.098 -1.047,1.846c0.225,0.821 1.05,1.216 1.845,1.047c-0.423,-0.313 -0.846,-0.627 -1.269,-0.94c0.982,-0.133 1.964,-0.266 2.946,-0.399c-0.463,-1.346 -1.27,-2.398 -2.415,-3.234c-0.655,-0.478 -1.673,-0.111 -2.052,0.538c-0.444,0.759 -0.118,1.573 0.538,2.052" style="fill:#343434;fill-rule:nonzero;"/><path d="M69.732,36.983c0.487,1.644 1.331,3.105 2.503,4.356l2.121,-2.121c-0.863,-0.918 -1.411,-1.991 -1.703,-3.213c-0.447,-1.877 -3.341,-1.083 -2.892,0.797c0.409,1.716 1.268,3.254 2.474,4.537c1.325,1.41 3.441,-0.713 2.121,-2.121c-0.818,-0.874 -1.392,-1.886 -1.731,-3.033c-0.547,-1.846 -3.443,-1.06 -2.893,0.798" style="fill:#343434;fill-rule:nonzero;"/><path d="M74.452,34.995c0.821,0.166 1.388,0.374 2.072,0.77c0.7,0.406 1.642,0.163 2.052,-0.538c0.409,-0.7 0.165,-1.645 -0.538,-2.052c-0.865,-0.502 -1.809,-0.875 -2.788,-1.073c-0.767,-0.155 -1.657,0.22 -1.846,1.048c-0.17,0.747 0.226,1.679 1.048,1.845" style="fill:#343434;fill-rule:nonzero;"/><path d="M30.085,35.674c1.379,0.422 2.825,0.43 4.212,0.044c1.858,-0.516 1.069,-3.411 -0.797,-2.892c-0.893,0.248 -1.732,0.226 -2.617,-0.045c-1.851,-0.566 -2.642,2.329 -0.798,2.893" style="fill:#343434;fill-rule:nonzero;"/><path d="M73.522,34.281c0.734,0.992 1.193,2.021 1.429,3.23c0.155,0.796 1.107,1.251 1.845,1.048c0.831,-0.228 1.203,-1.047 1.047,-1.845c-0.277,-1.423 -0.868,-2.781 -1.731,-3.947c-0.481,-0.65 -1.299,-0.979 -2.052,-0.538c-0.641,0.375 -1.023,1.397 -0.538,2.052" style="fill:#343434;fill-rule:nonzero;"/><path d="M75.105,30.135c-0.241,-0.028 0.223,0.068 0.226,0.069c0.051,0.017 0.101,0.034 0.152,0.05c-0.088,-0.04 -0.085,-0.038 0.007,0.008c0.119,0.059 0.235,0.125 0.344,0.2c-0.176,-0.121 0.184,0.169 0.187,0.172c0.582,0.563 1.542,0.58 2.121,0c0.568,-0.567 0.585,-1.556 0,-2.121c-0.856,-0.829 -1.868,-1.24 -3.037,-1.378c-0.782,-0.092 -1.533,0.756 -1.5,1.5c0.04,0.892 0.662,1.401 1.5,1.5" style="fill:#343434;fill-rule:nonzero;"/><path d="M71.769,17.421c2.056,1.247 4.041,2.596 5.959,4.047c1.539,1.165 3.036,-1.439 1.514,-2.591c-1.918,-1.451 -3.903,-2.799 -5.959,-4.046c-1.655,-1.005 -3.164,1.589 -1.514,2.59" style="fill:#343434;fill-rule:nonzero;"/><path d="M71.614,17.395c0.917,-0.815 1.931,-1.477 3.025,-2.03c0.723,-0.366 0.93,-1.384 0.539,-2.052c-0.43,-0.735 -1.327,-0.905 -2.053,-0.539c-1.32,0.668 -2.527,1.517 -3.632,2.5c-0.606,0.538 -0.549,1.572 0,2.121c0.601,0.602 1.514,0.54 2.121,0" style="fill:#343434;fill-rule:nonzero;"/></svg>