<?xml version="1.0" standalone="no"?><!DOCTYPE svg PUBLIC "-//W3C//DTD SVG 1.1//EN" "http://www.w3.org/Graphics/SVG/1.1/DTD/svg11.dtd"><svg width="100%" height="100%" viewBox="0 0 286 429" version="1.1" xmlns="http://www.w3.org/2000/svg" xmlns:xlink="http://www.w3.org/1999/xlink" xml:space="preserve" style="fill-rule:evenodd;clip-rule:evenodd;stroke-miterlimit:10;"><path d="M159.571,266.457c2.4,-4.998 10.467,-10.644 5.172,-16.407c-5.25,-5.715 -14.041,1.188 -18.206,4.768c-4.3,3.698 -13.046,10.39 -8.081,16.681c4.861,6.159 13.024,-6.769 15.118,-9.342c0.382,-0.47 -0.292,-1.136 -0.678,-0.662c-2.227,2.738 -11.298,16.607 -14.833,7.409c-1.979,-5.15 6.451,-11.102 9.778,-13.962c4.352,-3.741 12.639,-9.578 17.221,-3.002c3.049,4.376 -4.565,10.408 -6.314,14.049c-0.263,0.548 0.558,1.019 0.823,0.468" style="fill:#010101;fill-rule:nonzero;"/><path d="M142.238,273.541c7.466,5.245 13.617,-0.832 17.496,-7.303c0.314,-0.525 -0.51,-0.991 -0.824,-0.468c-3.565,5.95 -9.127,11.92 -16.205,6.947c-0.5,-0.351 -0.962,0.476 -0.467,0.824" style="fill:#010101;fill-rule:nonzero;"/><path d="M64.318,83.7c-1.883,-9.084 -18.919,-10.137 -25.77,-9.863c-9.261,0.37 -17.965,3.577 -24.356,10.434c-5.105,5.477 -7.18,13.362 -5.003,20.542c2.507,8.267 10.234,13.272 17.946,16.179c0.242,-0.197 0.501,-0.375 0.788,-0.521c0.737,-0.374 1.472,-0.606 2.253,-0.784c-0.127,-0.207 -0.33,-0.381 -0.629,-0.483c-7.454,-2.557 -14.515,-6.684 -17.675,-14.245c-2.51,-6.004 -0.576,-12.695 3.101,-17.72c4.4,-6.012 11.667,-9.23 18.807,-10.475c4.634,-0.808 9.317,-0.403 13.942,0.215c3.718,0.496 13.105,2.183 14.129,7.124c0.326,1.574 2.795,1.178 2.467,-0.403" style="fill:#010101;fill-rule:nonzero;"/><path d="M47.325,98.662c0.534,-3.838 -2.621,-7.392 -7.054,-7.934c-4.433,-0.542 -8.461,2.125 -8.999,5.972c-0.535,3.838 2.624,7.391 7.057,7.934c4.433,0.545 8.459,-2.128 8.996,-5.972" style="fill:#010101;fill-rule:nonzero;"/><path d="M200.549,143.431c-4.145,-25.363 -28.703,-42.461 -54.854,-38.188c-26.152,4.274 -43.986,28.3 -39.841,53.663c4.145,25.367 28.7,42.465 54.852,38.192c26.151,-4.274 43.988,-28.3 39.843,-53.667Z" style="fill:none;stroke-width:1.5px;stroke:#010101;"/><path d="M183.902,131.172c-1.135,2.171 -3.766,3.038 -5.87,1.938c-2.111,-1.104 -2.899,-3.757 -1.764,-5.929c1.139,-2.177 3.767,-3.044 5.878,-1.941c2.104,1.1 2.894,3.755 1.756,5.932M158.92,125.235c-4.014,7.678 -1.231,17.054 6.217,20.948c7.447,3.893 16.735,0.826 20.749,-6.851c4.012,-7.676 1.23,-17.055 -6.217,-20.948c-7.448,-3.894 -16.737,-0.824 -20.749,6.851" style="fill:#010101;fill-rule:nonzero;"/><path d="M218.797,155.227c0.49,-0.15 0.979,-0.3 1.469,-0.45c-0.174,-0.379 -0.348,-0.757 -0.522,-1.136c-7.973,3.908 -18.435,12.625 -17.068,22.576c1.492,10.864 15.496,10.064 22.989,7.96c5.464,-1.533 10.654,-3.954 15.891,-6.103c4.38,-1.797 10.441,-2.138 14.275,-4.99c10.306,-7.666 -5.301,-18.236 -11.47,-21.465c-0.715,-0.375 -1.153,0.798 -0.448,1.166c4.196,2.197 8.176,4.767 11.371,8.305c2.632,2.915 3.534,7.459 0.532,10.449c-1.621,1.614 -4.508,2.147 -6.598,2.695c-7.051,1.846 -13.55,5.139 -20.385,7.611c-8.118,2.937 -21.967,5.505 -24.923,-5.83c-2.313,-8.869 9.618,-17.935 16.356,-21.238c0.746,-0.366 0.226,-1.366 -0.522,-1.136c-0.49,0.15 -0.979,0.3 -1.469,0.45c-0.768,0.236 -0.238,1.369 0.522,1.136" style="fill:#010101;fill-rule:nonzero;"/><path d="M254.698,144.301c-0.953,-5.829 -10.522,-9.111 -21.366,-7.339c-10.849,1.773 -18.871,7.93 -17.918,13.759c0.952,5.828 10.517,9.114 21.367,7.341c10.843,-1.772 18.869,-7.933 17.917,-13.761" style="fill:#010101;fill-rule:nonzero;"/><path d="M241.976,177.632c1.394,7.825 7.818,24.767 -1.133,30.159c-7.004,4.218 -12.477,-3.189 -14.155,-8.998c-1.38,-4.772 -1.563,-10.079 -0.892,-14.98c0.11,-0.801 -1.133,-0.93 -1.243,-0.134c-1.353,9.874 0.886,28.983 15.056,25.918c12.412,-2.684 4.929,-24.707 3.601,-32.167c-0.142,-0.792 -1.376,-0.592 -1.234,0.202" style="fill:#010101;fill-rule:nonzero;"/><path d="M246.29,202.898c14.14,0.716 5.215,-20.414 4.052,-27.53c-0.13,-0.795 -1.363,-0.594 -1.233,0.202c1.036,6.34 9.57,26.706 -2.686,26.085c-0.803,-0.041 -0.938,1.202 -0.133,1.243" style="fill:#010101;fill-rule:nonzero;"/><path d="M270.595,119.369c-0.915,2.274 -3.446,3.399 -5.65,2.512c-2.208,-0.888 -3.257,-3.454 -2.342,-5.728c0.916,-2.275 3.449,-3.4 5.657,-2.512c2.204,0.887 3.251,3.452 2.335,5.728M245.149,115.937c-3.233,8.034 0.462,17.09 8.258,20.226c7.796,3.137 16.736,-0.835 19.968,-8.869c3.233,-8.034 -0.463,-17.095 -8.259,-20.232c-7.796,-3.136 -16.735,0.841 -19.967,8.875" style="fill:#010101;fill-rule:nonzero;"/><path d="M244.547,135.95c-4.918,-21.702 -18.179,-40.206 -36.24,-53.002c-1.315,-0.932 -2.565,1.235 -1.261,2.159c17.535,12.423 30.32,30.458 35.09,51.508c0.356,1.568 2.767,0.904 2.411,-0.665" style="fill:#010101;fill-rule:nonzero;"/><path d="M8.763,246.968c-2.99,-20.019 -2.356,-40.266 0.811,-60.221c0.249,-1.574 -2.159,-2.252 -2.411,-0.665c-3.242,20.429 -3.872,41.058 -0.811,61.551c0.237,1.585 2.646,0.911 2.411,-0.665" style="fill:#010101;fill-rule:nonzero;"/><path d="M247.256,202.422c-2.82,12.112 -12.99,22.353 -19.918,32.349c-7.14,10.302 -13.874,20.884 -20.205,31.701c-6.239,10.662 -12.087,21.552 -17.572,32.62c-5.514,11.126 -10.138,22.647 -15.511,33.823c-4.752,9.883 -14.007,14.746 -24.29,17.185c-10.919,2.589 -21.991,4.043 -33.127,2.7c-13.497,-1.628 -25.787,-3.571 -38.334,-9.132c-5.494,-2.434 -11.063,-4.937 -16.113,-8.214c-5.937,-3.852 -11.12,-8.739 -16.419,-13.394c-10.286,-9.036 -18.954,-22.133 -24.414,-34.633c-5.79,-13.256 -8.675,-27.539 -12.774,-41.354c-0.457,-1.538 -2.87,-0.883 -2.411,0.665c3.798,12.8 6.569,25.957 11.537,38.385c4.816,12.047 12.07,22.276 20.214,32.276c16.002,19.65 41.824,33.213 66.816,36.647c5.684,0.781 11.462,1.407 17.166,1.992c6.151,0.631 12.242,-0.79 18.297,-1.664c9.477,-1.367 19.477,-3.342 27.25,-9.307c9.4,-7.214 12.616,-20.042 17.405,-30.382c5.561,-12.005 11.505,-23.833 17.891,-35.421c7.31,-13.262 15.199,-26.204 23.683,-38.748c4.44,-6.564 9.194,-12.882 13.782,-19.339c3.978,-5.6 7.88,-11.317 9.458,-18.09c0.364,-1.566 -2.046,-2.234 -2.411,-0.665" style="fill:#010101;fill-rule:nonzero;"/><path d="M229.217,94.136c-2.913,0.476 -5.719,1.208 -8.411,2.146c0.43,0.341 0.802,0.743 1.087,1.209c2.431,-0.81 4.954,-1.448 7.566,-1.875c25.7,-4.2 49.921,12.654 53.992,37.569c3.635,22.243 -10.012,43.475 -31.262,50.77l0.243,1.488c22.065,-7.449 36.268,-29.443 32.5,-52.5c-4.205,-25.732 -29.199,-43.14 -55.715,-38.807" style="fill:#010101;fill-rule:nonzero;"/><path d="M217.08,250.186c3.604,4.541 9.445,12.653 1.997,13.618c-2.892,0.375 -5.378,-2.479 -7.356,-5.743c-0.063,0.05 -0.117,0.112 -0.182,0.159c-0.114,0.157 -0.226,0.316 -0.339,0.474c2.569,4.046 5.985,7.464 10.353,5.358c5.503,-2.654 -0.666,-10.647 -4.067,-14.813c-0.134,0.316 -0.268,0.632 -0.406,0.947" style="fill:#010101;fill-rule:nonzero;"/><path d="M221.06,243.528c-0.16,0.265 -0.319,0.532 -0.488,0.79c4.532,4.811 8.302,11.244 2.605,16.608c-0.422,0.397 0.253,1.043 0.671,0.649c6.075,-5.72 2.184,-12.797 -2.788,-18.047" style="fill:#010101;fill-rule:nonzero;"/><path d="M97.01,66.262c-7.986,-12.303 14.622,-19.468 22.971,-20.41c10.763,-1.214 26.554,4.642 24.778,18.022c-0.211,1.59 2.291,1.574 2.5,0c2.041,-15.375 -16.345,-22.137 -28.652,-20.375c-9.833,1.409 -32.817,10.067 -23.756,24.025c0.873,1.344 3.038,0.093 2.159,-1.262" style="fill:#010101;fill-rule:nonzero;"/><path d="M104.944,353.268c-2.163,2.043 -5.74,7.2 -1.314,9.204c1.947,0.882 3.984,-0.648 5.455,-1.761c2.11,-1.595 3.886,-3.509 5.422,-5.654c0.469,-0.655 -0.615,-1.279 -1.079,-0.631c-1.643,2.293 -3.62,4.34 -5.968,5.919c-1.103,0.742 -0.997,0.652 -2.638,0.373c-1.393,0.261 -2.065,-0.289 -2.014,-1.65c0.033,-0.336 0.065,-0.673 0.097,-1.009c0.389,-1.593 1.779,-2.826 2.923,-3.907c0.586,-0.554 -0.299,-1.437 -0.884,-0.884" style="fill:#010101;fill-rule:nonzero;"/><path d="M164.273,347.572c3.454,-0.757 6.802,-1.842 10,-3.358c1.989,-0.943 5.726,-2.325 6.742,-4.468c0.64,-1.352 0.023,-2.693 -1.265,-3.358c-2.477,-1.28 -6.496,1.035 -8.78,1.81c-0.758,0.257 -0.433,1.464 0.332,1.205c1.448,-0.491 3.617,-1.731 5.167,-1.742c1.283,-0.579 2.023,0.305 2.219,2.654c-0.326,0.205 -0.652,0.411 -0.978,0.617c-0.585,0.631 -1.774,1.035 -2.517,1.424c-3.562,1.867 -7.333,3.151 -11.252,4.011c-0.786,0.172 -0.453,1.377 0.332,1.205" style="fill:#010101;fill-rule:nonzero;"/><path d="M104.482,361.682c0.63,-1.349 1.261,-2.699 1.891,-4.048c0.339,-0.725 -0.739,-1.36 -1.079,-0.631c-0.631,1.349 -1.261,2.699 -1.891,4.048c-0.339,0.725 0.738,1.36 1.079,0.631" style="fill:#010101;fill-rule:nonzero;"/><path d="M174.801,340.577c1.526,-0.962 3.182,-1.396 4.985,-1.311c0.804,0.038 0.802,-1.212 0,-1.25c-2.001,-0.094 -3.922,0.414 -5.616,1.482c-0.679,0.428 -0.052,1.51 0.631,1.079" style="fill:#010101;fill-rule:nonzero;"/><path d="M100.523,358.184c-8.604,0.168 -19.643,-1.201 -27.377,3.368c-2.986,1.764 -5.427,4.245 -8.068,6.458c-1.964,1.645 -3.988,3.232 -6.413,4.121c-2.116,0.775 -4.23,0.73 -6.397,1.178c-3.098,0.64 -3.881,1.953 -5.336,4.569c-2.658,4.78 -6.718,4.718 -11.673,5.438c-3.752,0.545 -6.502,1.866 -9.515,4.144c-3.625,2.74 -6.944,6.122 -11.803,6.021c-0.805,-0.017 -0.805,1.233 0,1.25c7.654,0.159 11.655,-7.497 18.497,-9.582c3.485,-1.062 7.335,-0.603 10.76,-1.91c3.328,-1.269 3.491,-3.282 5.344,-5.894c2.615,-3.686 6.918,-2.585 10.704,-4.048c3.371,-1.303 6.091,-3.864 8.767,-6.2c4.267,-3.727 8.298,-6.304 14.021,-6.978c6.092,-0.718 12.362,-0.566 18.489,-0.685c0.803,-0.016 0.806,-1.266 0,-1.25" style="fill:#010101;fill-rule:nonzero;"/><path d="M180.265,339.761c3.263,-2.224 7.691,-1.882 11.116,-3.839c4.214,-2.408 7.136,-5.737 12.012,-7.191c4.057,-1.211 7.651,-2.391 11.102,-4.924c3.211,-2.356 5.976,-5.254 8.97,-7.865c14.6,-12.729 34.086,-17.056 52.514,-21.043c0.786,-0.17 0.453,-1.375 -0.332,-1.205c-17.324,3.747 -35.533,7.758 -49.901,18.766c-3.385,2.593 -6.317,5.676 -9.578,8.41c-4.589,3.847 -9.145,5.258 -14.708,7.147c-4.083,1.387 -6.489,4.202 -10.047,6.44c-3.613,2.273 -8.279,1.84 -11.779,4.225c-0.661,0.45 -0.036,1.534 0.631,1.079" style="fill:#010101;fill-rule:nonzero;"/><path d="M69.802,396.909c53.309,-20.106 108.259,-35.621 164.211,-46.367c0.789,-0.152 0.455,-1.357 -0.332,-1.206c-55.952,10.746 -110.902,26.262 -164.211,46.368c-0.746,0.281 -0.423,1.49 0.332,1.205" style="fill:#010101;fill-rule:nonzero;"/><path d="M141.338,386.883c10.799,-3.009 21.682,-5.674 32.649,-7.996c0.787,-0.166 0.454,-1.371 -0.332,-1.205c-10.968,2.322 -21.85,4.987 -32.649,7.996c-0.774,0.215 -0.445,1.422 0.332,1.205" style="fill:#010101;fill-rule:nonzero;"/><path d="M26.382,333.887c0.764,-1.134 0.85,-1.823 0.484,-3.117c-0.192,-0.678 -1.222,-0.544 -1.228,0.166c-0.154,18.451 -0.575,36.897 -1.264,55.335c-0.03,0.805 1.22,0.804 1.25,0c0.689,-18.438 1.11,-36.884 1.264,-55.335c-0.409,0.055 -0.819,0.111 -1.228,0.166c-0.119,0.718 -0.238,1.436 -0.357,2.154c-0.451,0.669 0.632,1.296 1.079,0.631" style="fill:#010101;fill-rule:nonzero;"/><path d="M26.722,332.198c5.46,-0.898 10.949,-1.539 16.478,-1.81c2.35,-0.115 4.695,-0.828 6.017,1.993c0.791,1.687 -0.13,6.079 -0.171,7.98c-0.213,9.974 -0.427,19.949 -0.641,29.924c-0.017,0.804 1.233,0.804 1.25,0c0.143,-6.65 0.285,-13.3 0.428,-19.95c0.071,-3.324 0.142,-6.649 0.213,-9.974c0.057,-2.666 0.925,-6.607 0.112,-9.149c-0.903,-2.825 -3.775,-2.221 -6.278,-2.114c-5.955,0.256 -11.862,0.928 -17.74,1.895c-0.792,0.13 -0.456,1.335 0.332,1.205" style="fill:#010101;fill-rule:nonzero;"/><path d="M51.136,354.702c2.792,-0.244 5.733,-1.078 8.517,-1.558c1.223,-0.211 2.65,-0.618 3.889,-0.672c2.954,-0.127 4.102,1.54 3.535,4.214c-0.166,0.785 1.039,1.12 1.206,0.333c0.374,-1.764 0.736,-4.325 -0.941,-5.584c-1.983,-1.489 -5.928,0.142 -8.021,0.503c-2.16,0.373 -4.326,0.722 -6.482,1.12c-0.736,0.136 -2.515,0.197 -2.938,1.163c-0.414,0.945 0.28,1.815 1.235,1.731c0.795,-0.07 0.803,-1.32 0,-1.25" style="fill:#010101;fill-rule:nonzero;"/><path d="M193.293,294.857c4.34,-0.943 8.693,-1.822 13.066,-2.599c2.339,-0.416 5.138,-1.312 7.511,-1.245c2.592,0.074 2.284,-0.485 2.597,1.598c0.288,1.916 -0.47,4.503 -0.574,6.464c-0.115,2.162 -0.15,4.325 -0.114,6.489c0.067,4.083 0.441,8.131 0.994,12.174c0.109,0.793 1.314,0.456 1.206,-0.332c-1.252,-9.14 -1.22,-18.255 0.094,-27.385c0.072,-0.503 -0.267,-0.842 -0.769,-0.769c-8.168,1.182 -16.279,2.648 -24.343,4.4c-0.786,0.17 -0.454,1.376 0.332,1.205" style="fill:#010101;fill-rule:nonzero;"/><path d="M219.293,302.915c3.843,-1.599 9.413,-4.209 13.668,-3.96c0.898,0.337 1.796,0.675 2.694,1.012c-0.037,0.346 -0.03,0.69 0.019,1.03c0.19,0.304 0.146,0.813 0.366,1.135c0.587,0.856 0.965,0.947 1.916,0.838c0.79,-0.091 0.799,-1.342 0,-1.25c-0.897,0.103 -0.983,-3.143 -1.823,-3.801c-0.687,-0.538 -1.435,-0.367 -2.221,-0.359c-4.915,0.049 -10.482,2.29 -14.951,4.15c-0.732,0.304 -0.411,1.514 0.332,1.205" style="fill:#010101;fill-rule:nonzero;"/><path d="M226.378,291.012c0.216,1.778 0.432,3.555 0.648,5.333c0.095,0.788 1.346,0.798 1.25,0c-0.216,-1.778 -0.432,-3.555 -0.648,-5.333c-0.096,-0.788 -1.347,-0.798 -1.25,0" style="fill:#010101;fill-rule:nonzero;"/><path d="M222.001,295.138c3.765,-0.723 7.53,-1.445 11.295,-2.168c0.789,-0.151 0.455,-1.356 -0.332,-1.205c-3.765,0.722 -7.53,1.445 -11.295,2.168c-0.789,0.151 -0.455,1.356 0.332,1.205" style="fill:#010101;fill-rule:nonzero;"/><path d="M223.918,297.42c2.671,-0.64 5.343,-1.281 8.014,-1.921c0.782,-0.188 0.451,-1.393 -0.332,-1.206c-2.671,0.641 -5.343,1.281 -8.014,1.922c-0.782,0.187 -0.451,1.393 0.332,1.205" style="fill:#010101;fill-rule:nonzero;"/><path d="M200.442,285.192c0.421,1.561 0.842,3.122 1.264,4.683c0.209,0.776 1.415,0.446 1.205,-0.333l-1.264,-4.682c-0.209,-0.776 -1.415,-0.447 -1.205,0.332" style="fill:#010101;fill-rule:nonzero;"/><path d="M197.327,288.309c3.744,-1.381 7.354,-3.04 10.835,-4.992c0.329,-0.185 0.434,-0.721 0.126,-0.982c-1.932,-1.637 -4.135,-2.245 -6.633,-1.86c-0.792,0.122 -0.456,1.327 0.333,1.206c2.015,-0.311 3.863,0.222 5.416,1.538c0.043,-0.327 0.085,-0.654 0.127,-0.982c-3.388,1.9 -6.891,3.522 -10.536,4.867c-0.749,0.276 -0.425,1.484 0.332,1.205" style="fill:#010101;fill-rule:nonzero;"/><path d="M27.22,326.976c-0.044,1.109 -0.089,2.217 -0.133,3.326c-0.032,0.805 1.218,0.803 1.25,0c0.044,-1.109 0.089,-2.217 0.133,-3.326c0.032,-0.804 -1.218,-0.803 -1.25,0" style="fill:#010101;fill-rule:nonzero;"/><path d="M27.925,326.927c3.618,-1.603 7.392,-2.429 11.35,-2.513c-0.201,-0.264 -0.402,-0.528 -0.603,-0.792c-0.783,1.863 -0.863,3.654 -0.298,5.583c0.226,0.771 1.432,0.443 1.205,-0.332c-0.506,-1.731 -0.389,-3.285 0.298,-4.918c0.16,-0.379 -0.237,-0.799 -0.602,-0.791c-4.183,0.089 -8.155,0.988 -11.981,2.684c-0.734,0.325 -0.099,1.402 0.631,1.079" style="fill:#010101;fill-rule:nonzero;"/><path d="M31.907,341.438c-0.295,-1.048 0.122,-2.095 1.062,-2.647c-0.285,-0.075 -0.57,-0.15 -0.855,-0.224c0.618,1.3 0.739,2.703 0.386,4.097c0.201,-0.153 0.402,-0.306 0.603,-0.459c-0.601,-0.052 -1.011,-0.393 -1.276,-0.911c-0.366,-0.716 -1.445,-0.084 -1.079,0.631c0.479,0.937 1.321,1.441 2.355,1.53c0.265,0.023 0.54,-0.21 0.603,-0.459c0.439,-1.734 0.254,-3.447 -0.513,-5.06c-0.144,-0.305 -0.583,-0.384 -0.855,-0.225c-1.416,0.832 -2.082,2.477 -1.636,4.059c0.218,0.773 1.424,0.445 1.205,-0.332" style="fill:#010101;fill-rule:nonzero;"/><path d="M30.943,353.847c0.411,-0.641 0.822,-1.281 1.233,-1.922l-1.079,0c0.675,0.885 0.779,2.112 0.058,3.017c-0.497,0.622 0.382,1.512 0.884,0.883c1.046,-1.311 1.18,-3.166 0.137,-4.531c-0.284,-0.372 -0.805,-0.428 -1.079,0c-0.411,0.641 -0.822,1.281 -1.233,1.922c-0.436,0.679 0.646,1.307 1.079,0.631" style="fill:#010101;fill-rule:nonzero;"/><path d="M32.566,368.755c-0.201,-0.509 -0.095,-0.976 0.325,-1.332c-0.348,-0.092 -0.696,-0.184 -1.044,-0.276c0.121,0.509 -0.053,0.967 -0.434,1.312c-0.598,0.541 0.288,1.423 0.884,0.884c0.712,-0.644 0.977,-1.603 0.755,-2.528c-0.117,-0.49 -0.704,-0.564 -1.045,-0.276c-0.722,0.612 -0.996,1.665 -0.646,2.548c0.292,0.739 1.502,0.417 1.205,-0.332" style="fill:#010101;fill-rule:nonzero;"/><path d="M43.045,340.832c-0.183,-0.642 -0.367,-1.284 -0.55,-1.927c-0.306,0.236 -0.612,0.471 -0.918,0.706c0.611,0.358 0.444,1.687 -0.32,1.767c-0.792,0.083 -0.801,1.333 0,1.25c1.954,-0.204 2.708,-3.065 0.951,-4.096c-0.468,-0.274 -1.069,0.18 -0.919,0.706c0.184,0.642 0.367,1.284 0.551,1.926c0.22,0.772 1.427,0.444 1.205,-0.332" style="fill:#010101;fill-rule:nonzero;"/><path d="M41.131,352.959c0.056,-0.602 0.112,-1.203 0.168,-1.804c-0.355,0.147 -0.711,0.294 -1.067,0.441c0.285,0.325 0.42,0.76 0.348,1.188c-0.134,0.787 1.071,1.125 1.205,0.332c0.152,-0.896 -0.068,-1.717 -0.669,-2.403c-0.39,-0.446 -1.021,-0.051 -1.067,0.442c-0.056,0.601 -0.112,1.202 -0.168,1.804c-0.075,0.801 1.176,0.795 1.25,0" style="fill:#010101;fill-rule:nonzero;"/><path d="M39.701,368.492c0,0 0.014,-0.173 0.02,-0.174c-0.147,-0.061 -0.295,-0.122 -0.442,-0.183c0.282,0.25 0.439,0.716 0.179,1.05c-0.489,0.628 0.39,1.519 0.884,0.884c0.383,-0.492 0.564,-1.047 0.455,-1.674c-0.087,-0.5 -0.433,-1.228 -0.993,-1.316c-0.524,-0.082 -1.019,0.334 -1.222,0.782c-0.239,0.526 -0.154,1.089 0.235,1.515c0.543,0.596 1.425,-0.29 0.884,-0.884" style="fill:#010101;fill-rule:nonzero;"/><path d="M55.503,361.44c0.891,-0.438 1.782,-0.877 2.674,-1.315c0.721,-0.356 0.089,-1.434 -0.631,-1.08c-0.891,0.439 -1.783,0.877 -2.674,1.316c-0.722,0.355 -0.089,1.433 0.631,1.079" style="fill:#010101;fill-rule:nonzero;"/><path d="M54.768,366.379c0.666,-0.223 1.332,-0.446 1.998,-0.668c0.759,-0.254 0.434,-1.462 -0.332,-1.206l-1.998,0.669c-0.759,0.254 -0.434,1.461 0.332,1.205" style="fill:#010101;fill-rule:nonzero;"/><path d="M61.88,358.92l1.333,0c0.804,0 0.805,-1.25 0,-1.25l-1.333,0c-0.804,0 -0.806,1.25 0,1.25" style="fill:#010101;fill-rule:nonzero;"/><path d="M60.899,364.165c0.444,0.222 0.888,0.444 1.333,0.666c0.717,0.359 1.351,-0.719 0.631,-1.079c-0.445,-0.222 -0.889,-0.444 -1.333,-0.666c-0.718,-0.359 -1.351,0.719 -0.631,1.079" style="fill:#010101;fill-rule:nonzero;"/><path d="M191.843,301.829c0.198,1.336 0.397,2.672 0.595,4.008c0.118,0.793 1.323,0.456 1.206,-0.332c-0.199,-1.336 -0.397,-2.672 -0.596,-4.008c-0.117,-0.793 -1.322,-0.456 -1.205,0.332" style="fill:#010101;fill-rule:nonzero;"/><path d="M198.027,300.577c0.574,0.885 0.739,1.877 0.455,2.897c-0.216,0.776 0.99,1.107 1.206,0.332c0.367,-1.322 0.167,-2.707 -0.582,-3.86c-0.436,-0.672 -1.519,-0.046 -1.079,0.631" style="fill:#010101;fill-rule:nonzero;"/><path d="M207.228,297.5c-0.294,1.567 -0.078,3.081 0.66,4.497c0.372,0.713 1.451,0.082 1.079,-0.631c-0.574,-1.102 -0.763,-2.311 -0.534,-3.534c0.148,-0.786 -1.057,-1.123 -1.205,-0.332" style="fill:#010101;fill-rule:nonzero;"/><path d="M191.852,316.984l0,1.333c0,0.804 1.25,0.805 1.25,0l0,-1.333c0,-0.804 -1.25,-0.806 -1.25,0" style="fill:#010101;fill-rule:nonzero;"/><path d="M199.228,315.148l0.552,4.014c0.11,0.793 1.314,0.455 1.206,-0.333c-0.184,-1.338 -0.369,-2.675 -0.553,-4.013c-0.109,-0.794 -1.313,-0.456 -1.205,0.332" style="fill:#010101;fill-rule:nonzero;"/><path d="M206.511,312.319l0,3.332c0,0.804 1.25,0.805 1.25,0l0,-3.332c0,-0.804 -1.25,-0.806 -1.25,0" style="fill:#010101;fill-rule:nonzero;"/><path d="M193.585,327.869c-2.113,-1.672 -5.696,1.09 -4.089,3.483c1.369,2.039 5.129,0.716 4.966,-1.712c-0.053,-0.798 -1.304,-0.804 -1.25,0c0.078,1.152 -1.683,1.964 -2.542,1.174c-1.109,-1.019 0.96,-2.908 2.031,-2.061c0.624,0.494 1.515,-0.385 0.884,-0.884" style="fill:#010101;fill-rule:nonzero;"/><path d="M221.65,308.616c0.304,0.688 1.168,0.622 1.685,0.237c0.311,-0.233 0.444,-0.523 0.592,-0.871c0.042,-0.099 0.189,-0.299 0.199,-0.395c-0.284,0.003 -0.439,-0.088 -0.467,-0.273c0.061,-0.287 0.332,-0.364 0.814,-0.231c-0.557,-0.583 -1.44,0.302 -0.884,0.884c0.862,0.903 1.792,-0.673 1.027,-1.397c-0.444,-0.42 -1.097,-0.189 -1.451,0.224c-0.184,0.215 -0.287,0.473 -0.394,0.732c-0.029,0.07 -0.057,0.206 -0.113,0.267c-0.036,0.049 -0.083,0.084 -0.141,0.106c-0.141,0.022 -0.07,0.051 0.212,0.086c-0.324,-0.734 -1.401,-0.099 -1.079,0.631" style="fill:#010101;fill-rule:nonzero;"/><path d="M230.015,304.766c0.222,0.222 0.444,0.444 0.666,0.666c0.57,0.57 1.454,-0.314 0.884,-0.884c-0.222,-0.222 -0.444,-0.444 -0.666,-0.666c-0.57,-0.569 -1.454,0.314 -0.884,0.884" style="fill:#010101;fill-rule:nonzero;"/><path d="M183.19,320.315l0,0.666c0,0.805 1.25,0.806 1.25,0l0,-0.666c0,-0.804 -1.25,-0.806 -1.25,0" style="fill:#010101;fill-rule:nonzero;"/><path d="M6.113,374.396l15.98,-3.386c0.786,-0.167 0.454,-1.372 -0.332,-1.205c-5.327,1.128 -10.654,2.257 -15.98,3.386c-0.787,0.166 -0.454,1.372 0.332,1.205" style="fill:#010101;fill-rule:nonzero;"/><path d="M0.844,177.426c-0.606,12.569 15.556,10.312 23.287,8.524c12.008,-2.776 23.284,-8.25 33.515,-15.044c23.041,-15.304 40.142,-37.157 59.739,-56.297c4.864,-4.751 10.053,-9.281 16.092,-12.484c7.622,-4.042 16.178,-5.54 24.652,-6.563c13.344,-1.61 26.397,-3.051 39.217,-7.366c3.733,-1.256 9.029,-2.459 11.401,-5.983c2.876,-4.272 0.303,-9.533 -2.21,-13.277c-2.218,-3.303 -4.855,-6.839 -8.559,-8.536c-5.232,-2.396 -11.551,-0.742 -16.882,0.41c-27.141,5.863 -52.041,20.258 -70.962,40.525c-1.097,1.175 0.667,2.947 1.768,1.767c14.954,-16.017 33.604,-28.322 54.324,-35.519c4.576,-1.589 9.237,-2.931 13.958,-4.012c6.531,-1.495 14.455,-3.842 19.936,1.343c4.221,3.992 11.527,13.872 3.876,18.074c-5.287,2.904 -11.995,4.419 -17.813,5.849c-21.142,5.197 -44.05,2.437 -62.133,16.527c-9.086,7.08 -16.781,15.984 -24.663,24.333c-7.902,8.369 -15.836,16.728 -24.393,24.437c-9.583,8.632 -20.027,16.412 -31.61,22.161c-6.709,3.329 -40.827,17.463 -40.04,1.131c0.078,-1.608 -2.423,-1.604 -2.5,0" style="fill:#010101;fill-rule:nonzero;"/><path d="M2.507,178.37c0.459,-4.796 0.19,-11.537 2.823,-15.772c2.422,-3.895 7.576,-4.573 11.653,-5.409c8.229,-1.689 16.273,-3.962 24.077,-7.091c14.778,-5.924 28.314,-14.386 40.212,-24.951c1.205,-1.07 -0.568,-2.833 -1.768,-1.767c-14.496,12.872 -31.599,22.581 -50.176,28.185c-4.284,1.292 -8.626,2.324 -13.01,3.213c-3.344,0.678 -6.905,1.297 -9.817,3.201c-6.264,4.097 -5.86,13.764 -6.494,20.391c-0.153,1.601 2.348,1.59 2.5,0" style="fill:#010101;fill-rule:nonzero;"/><path d="M10.132,157.359c2.013,-13.912 7.424,-26.887 16.032,-38.015c0.973,-1.257 -0.784,-3.039 -1.768,-1.768c-8.884,11.486 -14.593,24.735 -16.675,39.118c-0.227,1.574 2.181,2.254 2.411,0.665" style="fill:#010101;fill-rule:nonzero;"/><path d="M59.428,79.322c10.038,-8.981 21.805,-15.333 34.809,-18.837c1.552,-0.418 0.894,-2.83 -0.664,-2.41c-13.412,3.613 -25.562,10.219 -35.913,19.479c-1.201,1.075 0.572,2.838 1.768,1.768" style="fill:#010101;fill-rule:nonzero;"/><path d="M147.484,56.269c12.559,-3.163 25.482,-1.072 36.429,5.836c1.364,0.861 2.62,-1.301 1.262,-2.158c-11.502,-7.259 -25.172,-9.409 -38.356,-6.089c-1.559,0.393 -0.898,2.805 0.665,2.411" style="fill:#010101;fill-rule:nonzero;"/><path d="M7.303,80.898c-2.046,-3.525 0.718,-8.762 4.783,-9.063c-5.637,-5.63 -9.386,-13.117 -10.518,-21.003l6.896,3.872c-2.359,-13.083 4.504,-27.311 16.212,-33.609c-0.46,1.017 0.006,2.356 0.999,2.866c0.622,-2.098 1.244,-4.195 1.866,-6.292c1.608,2.868 6.626,1.163 7.377,-2.038c0.752,-3.202 -1.291,-6.382 -3.586,-8.737c5.852,-0.966 10.445,6.297 16.365,5.95c3.393,-0.199 6.069,-2.848 9.167,-4.246c3.097,-1.399 7.958,-0.513 8.151,2.88c0.036,0.642 -0.11,1.315 0.133,1.91c0.518,1.267 2.27,1.282 3.635,1.173c7.685,-0.617 15.571,1.758 21.638,6.516c-1.858,1.608 -4.08,2.794 -6.45,3.443c3.481,2.304 6.599,5.154 9.206,8.414c-0.794,1.341 -1.587,2.683 -2.381,4.024c2.386,1.869 4.388,4.226 5.845,6.884c0.513,0.935 0.969,2.021 0.659,3.042c-0.286,0.938 -1.354,1.25 -2.223,1.112c5.197,3.993 -0.972,7.003 -2.078,11.326c-11.42,3.991 -22.242,9.689 -31.995,16.846c-1.093,0.802 -2.221,1.645 -3.551,1.91c-1.698,0.339 -3.415,-0.317 -5.057,-0.87c-16.065,-5.408 -29.446,1.723 -45.093,3.69" style="fill:#010101;fill-rule:nonzero;"/><path d="M26.868,122.283c18.812,-6.898 37.566,-19.563 39.669,-41.199c0.155,-1.601 -2.346,-1.59 -2.5,0c-1.984,20.411 -20.197,32.321 -37.834,38.788c-1.498,0.55 -0.85,2.967 0.665,2.411" style="fill:#010101;fill-rule:nonzero;"/><path d="M90.821,68.928c19.36,-3.755 39.063,-7.392 58.753,-3.971c1.573,0.274 2.249,-2.135 0.664,-2.41c-20.156,-3.503 -40.258,0.126 -60.082,3.97c-1.577,0.306 -0.909,2.716 0.665,2.411" style="fill:#010101;fill-rule:nonzero;"/><path d="M100.967,357.748c-11.639,2.079 -22.407,6.734 -31.893,13.794c-0.583,0.435 -0.933,1.396 -0.252,1.964c4.353,3.631 9.72,1.321 14.549,-0.129c7.986,-2.399 16.021,-4.636 24.098,-6.705c16.781,-4.3 33.735,-7.865 50.814,-10.759c0.871,-0.147 1.045,-1.179 0.747,-1.836c-1.583,-3.494 -5.206,-4.987 -8.796,-3.663c-1.497,0.552 -0.85,2.969 0.664,2.411c2.385,-0.88 4.927,0.204 5.973,2.514c0.249,-0.612 0.498,-1.225 0.747,-1.837c-14.548,2.465 -29.007,5.411 -43.346,8.894c-6.856,1.666 -13.683,3.45 -20.478,5.353c-3.706,1.038 -7.402,2.11 -11.088,3.217c-3.503,1.052 -8.774,3.559 -12.117,0.772c-0.084,0.654 -0.168,1.309 -0.253,1.963c9.321,-6.938 19.856,-11.499 31.296,-13.542c1.581,-0.283 0.911,-2.692 -0.665,-2.411" style="fill:#010101;fill-rule:nonzero;"/><path d="M158.766,351.111c15.828,-2.539 31.547,-5.71 47.102,-9.592c7.464,-1.863 14.89,-3.879 22.271,-6.052c5.867,-1.727 11.756,-3.275 16.403,-7.45c0.81,-0.727 0.169,-2.155 -0.884,-2.134c-22.931,0.467 -44.933,6.985 -66.703,13.633c-1.535,0.469 -0.88,2.883 0.664,2.411c21.555,-6.583 43.331,-13.082 66.039,-13.544c-0.294,-0.711 -0.589,-1.423 -0.884,-2.134c-5.353,4.809 -13.183,6.225 -19.919,8.144c-7.09,2.02 -14.222,3.898 -21.387,5.633c-14.335,3.472 -28.805,6.338 -43.367,8.674c-1.584,0.254 -0.911,2.664 0.665,2.411" style="fill:#010101;fill-rule:nonzero;"/><path d="M152.579,223.102c-6.207,61.075 -9.066,122.452 -8.563,183.839c0.013,1.608 2.513,1.612 2.5,0c-0.503,-61.387 2.356,-122.764 8.563,-183.839c0.163,-1.599 -2.339,-1.588 -2.5,0" style="fill:#010101;fill-rule:nonzero;"/><path d="M221.78,242.422c2.208,25.966 4.668,51.91 7.381,77.829c0.166,1.584 2.668,1.601 2.5,0c-2.713,-25.919 -5.173,-51.863 -7.381,-77.829c-0.135,-1.591 -2.637,-1.606 -2.5,0" style="fill:#010101;fill-rule:nonzero;"/><path d="M143.025,401.234c-9.529,1.828 -18.122,5.813 -25.751,11.793c-0.539,0.422 -0.424,1.328 0,1.768c2.454,2.548 5.495,2.386 8.83,2.046c5.126,-0.523 10.251,-1.142 15.348,-1.896c10.655,-1.579 21.072,-4.06 30.899,-8.546c0.942,-0.43 0.736,-2.115 -0.298,-2.285c-7.981,-1.309 -15.851,-1.376 -23.857,-0.213c-1.586,0.23 -0.912,2.639 0.664,2.41c7.539,-1.094 15.009,-1.02 22.528,0.214c-0.1,-0.762 -0.199,-1.524 -0.299,-2.285c-7.985,3.646 -16.409,5.914 -25.033,7.443c-4.566,0.81 -9.164,1.417 -13.768,1.961c-3.595,0.425 -10.31,2.432 -13.246,-0.617l0,1.768c7.284,-5.71 15.569,-9.408 24.648,-11.15c1.578,-0.303 0.91,-2.713 -0.665,-2.411" style="fill:#010101;fill-rule:nonzero;"/><path d="M110.918,412.397c-2.339,3.058 -6.415,8.912 -4.059,12.953c2.081,3.571 7.665,2.991 11.032,2.855c15.321,-0.619 30.552,-2.492 45.594,-5.448c1.578,-0.31 0.91,-2.72 -0.664,-2.411c-10.693,2.101 -21.473,3.665 -32.334,4.577c-5.114,0.43 -10.371,0.99 -15.506,0.886c-3.378,-0.068 -6.561,0.046 -5.909,-4.962c0.323,-2.478 2.522,-5.249 4.005,-7.188c0.977,-1.278 -1.194,-2.524 -2.159,-1.262" style="fill:#010101;fill-rule:nonzero;"/><path d="M16.894,404.698c24.973,-11.735 50.842,-21.37 77.399,-28.857c1.546,-0.436 0.889,-2.848 -0.665,-2.41c-26.764,7.545 -52.829,17.282 -77.996,29.108c-1.455,0.684 -0.187,2.84 1.262,2.159" style="fill:#010101;fill-rule:nonzero;"/><path d="M152.862,225.649c-0.97,-0.238 -1.941,-0.477 -2.911,-0.715c0.249,0.612 0.498,1.224 0.747,1.836c1.691,-3.296 5.281,-5.276 8.988,-4.666c-0.249,-0.612 -0.498,-1.224 -0.747,-1.836c-1.372,2.434 -4.142,3.394 -6.744,2.454l0,2.41c0.878,-0.297 1.756,-0.595 2.634,-0.893c1.516,-0.513 0.866,-2.929 -0.664,-2.41l-2.635,0.893c-1.202,0.407 -1.167,1.989 0,2.41c3.627,1.311 7.686,-0.262 9.568,-3.602c0.36,-0.64 0.074,-1.701 -0.747,-1.837c-4.789,-0.788 -9.571,1.448 -11.812,5.815c-0.357,0.695 -0.074,1.635 0.747,1.836c0.97,0.239 1.941,0.477 2.911,0.716c1.563,0.384 2.229,-2.027 0.665,-2.411" style="fill:#010101;fill-rule:nonzero;"/><path d="M156.094,225.052c-1.596,14.654 -3.191,29.309 -4.787,43.963c-0.174,1.597 2.328,1.585 2.5,0c1.596,-14.654 3.191,-29.309 4.787,-43.963c0.174,-1.597 -2.327,-1.585 -2.5,0" style="fill:#010101;fill-rule:nonzero;"/><path d="M225.209,241.69l0,18.657c0,1.608 2.5,1.611 2.5,0l0,-18.657c0,-1.609 -2.5,-1.611 -2.5,0" style="fill:#010101;fill-rule:nonzero;"/><path d="M25.304,73.62c-3.109,1.999 -6.219,3.998 -9.328,5.997c-2.698,1.734 -0.194,6.064 2.523,4.317l9.329,-5.997c2.698,-1.734 0.193,-6.064 -2.524,-4.317" style="fill:#010101;fill-rule:nonzero;"/><path d="M15.384,56.535c-1.899,-3.188 -3.353,-6.511 -4.392,-10.074c-0.899,-3.083 -5.726,-1.771 -4.822,1.329c1.153,3.955 2.788,7.729 4.897,11.269c1.645,2.761 5.97,0.25 4.317,-2.524" style="fill:#010101;fill-rule:nonzero;"/><path d="M19.91,30.688c-3.33,-0.805 -6.675,-0.793 -9.996,0.054c-3.116,0.795 -1.795,5.618 1.329,4.821c2.451,-0.625 4.878,-0.649 7.338,-0.054c3.126,0.757 4.46,-4.064 1.329,-4.821" style="fill:#010101;fill-rule:nonzero;"/><path d="M13.948,49.277c-1.339,-1.995 -2.678,-3.99 -4.017,-5.984c-0.751,-1.12 -2.203,-1.609 -3.42,-0.897c-1.111,0.65 -1.653,2.294 -0.897,3.42c1.339,1.995 2.678,3.99 4.017,5.985c0.751,1.119 2.203,1.608 3.42,0.896c1.111,-0.65 1.653,-2.294 0.897,-3.42" style="fill:#010101;fill-rule:nonzero;"/><path d="M22.67,27.244c-1.365,-2.323 -1.836,-4.757 -1.575,-7.432c0.313,-3.201 -4.689,-3.179 -5,0c-0.341,3.489 0.486,6.94 2.258,9.956c1.629,2.772 5.952,0.259 4.317,-2.524" style="fill:#010101;fill-rule:nonzero;"/><path d="M62.148,17.771c0.963,-3.485 2.83,-6.421 5.523,-8.826c2.404,-2.148 -1.142,-5.674 -3.536,-3.535c-3.306,2.952 -5.629,6.764 -6.808,11.032c-0.859,3.106 3.964,4.431 4.821,1.329" style="fill:#010101;fill-rule:nonzero;"/><path d="M53.14,17.29c5.245,-2.952 8.929,-8.16 9.741,-14.149c0.426,-3.147 -4.391,-4.508 -4.822,-1.33c-0.649,4.795 -3.202,8.775 -7.443,11.162c-2.804,1.578 -0.286,5.899 2.524,4.317" style="fill:#010101;fill-rule:nonzero;"/><path d="M50.97,14.468c0.226,-1.776 0.453,-3.553 0.679,-5.329c0.171,-1.342 -1.271,-2.5 -2.5,-2.5c-1.493,0 -2.329,1.155 -2.5,2.5c-0.226,1.776 -0.453,3.553 -0.679,5.329c-0.171,1.342 1.271,2.5 2.5,2.5c1.493,0 2.329,-1.154 2.5,-2.5" style="fill:#010101;fill-rule:nonzero;"/><path d="M86.792,40.715c1.935,-1.835 4.044,-3.389 6.358,-4.714c2.792,-1.598 0.276,-5.919 -2.524,-4.317c-2.668,1.527 -5.139,3.379 -7.37,5.495c-2.339,2.22 1.201,5.751 3.536,3.536" style="fill:#010101;fill-rule:nonzero;"/><path d="M154.343,222.88c-1.903,5.212 -2.858,10.6 -2.927,16.145c-0.04,3.219 4.96,3.221 5,0c0.064,-5.121 0.993,-10.009 2.748,-14.816c1.106,-3.027 -3.724,-4.332 -4.821,-1.329" style="fill:#010101;fill-rule:nonzero;"/><path d="M152.611,225.694l-4,45.975c-0.279,3.205 4.722,3.187 5,0l4,-45.975c0.279,-3.205 -4.723,-3.186 -5,0" style="fill:#010101;fill-rule:nonzero;"/><path d="M142.481,282.017c4.877,-1.585 9.753,-3.169 14.63,-4.754c3.047,-0.99 1.743,-5.819 -1.329,-4.821c-4.877,1.585 -9.754,3.169 -14.63,4.754c-3.047,0.99 -1.744,5.819 1.329,4.821" style="fill:#010101;fill-rule:nonzero;"/><path d="M223.293,240.358c-0.222,4.886 -0.444,9.773 -0.666,14.659c-0.147,3.217 4.854,3.209 5,0c0.222,-4.886 0.444,-9.773 0.666,-14.659c0.146,-3.217 -4.854,-3.21 -5,0" style="fill:#010101;fill-rule:nonzero;"/><path d="M224.963,266.358c1.349,-0.862 2.699,-1.724 4.048,-2.587c1.137,-0.726 1.598,-2.222 0.897,-3.42c-0.662,-1.132 -2.278,-1.627 -3.42,-0.897c-1.35,0.862 -2.699,1.724 -4.049,2.587c-1.136,0.726 -1.597,2.222 -0.896,3.42c0.662,1.132 2.278,1.627 3.42,0.897" style="fill:#010101;fill-rule:nonzero;"/><path d="M141.177,409.22c1.194,0.613 2.387,1.227 3.581,1.84c0.421,-1.553 0.841,-3.106 1.262,-4.658c-0.533,-0.022 -0.959,-0.182 -1.463,-0.493l-0.597,4.569c0.798,-0.323 1.542,-0.51 2.399,-0.512c2.529,-0.009 3.337,-3.357 1.262,-4.659c-1.336,-0.838 -2.775,-0.986 -4.302,-0.713c0.444,1.607 0.887,3.214 1.33,4.821c1.081,-0.414 2.163,-0.829 3.244,-1.243c1.26,-0.483 2.129,-1.683 1.747,-3.076c-0.332,-1.205 -1.808,-2.231 -3.076,-1.746c-1.081,0.415 -2.163,0.829 -3.245,1.244c-1.26,0.483 -2.128,1.683 -1.746,3.075c0.386,1.402 1.742,1.985 3.076,1.746c-0.078,0.014 -0.22,-0.067 0.058,0.017c0.313,0.093 -0.061,-0.091 0.39,0.192c0.421,-1.553 0.842,-3.106 1.262,-4.658c-1.275,0.004 -2.545,0.212 -3.728,0.691c-0.941,0.38 -1.663,1.005 -1.791,2.078c-0.119,1.004 0.321,1.951 1.194,2.491c1.221,0.755 2.557,1.118 3.986,1.176c2.437,0.098 3.461,-3.529 1.262,-4.659c-1.194,-0.614 -2.388,-1.227 -3.581,-1.84c-1.201,-0.617 -2.714,-0.313 -3.421,0.897c-0.654,1.118 -0.308,2.801 0.897,3.42" style="fill:#010101;fill-rule:nonzero;"/><path d="M228.451,320.956c0.121,0.024 0.241,0.048 0.362,0.072c0.368,0.214 0.735,0.429 1.103,0.643c-0.025,-0.03 -0.05,-0.061 -0.074,-0.091c0.214,0.368 0.428,0.735 0.643,1.103c-0.21,-0.978 0.102,1.706 -0.412,1.531c0.261,0.088 1.126,-0.342 1.407,-0.428c1.005,-0.305 2.009,-0.61 3.014,-0.915c3.07,-0.932 1.762,-5.76 -1.329,-4.821c-1.139,0.346 -2.278,0.691 -3.416,1.037c-1.144,0.347 -2.307,0.607 -3.131,1.537c-0.765,0.865 -1.289,2.091 -0.983,3.256c0.319,1.215 1.507,2.24 2.816,2.076c1.339,-0.168 2.5,-1.029 2.5,-2.5c0,-1.221 -1.151,-2.669 -2.5,-2.5" style="fill:#010101;fill-rule:nonzero;"/><path d="M120.515,419.674c11.886,-0.057 23.654,-1.349 35.275,-3.836c3.145,-0.673 1.814,-5.494 -1.329,-4.821c-11.191,2.395 -22.503,3.602 -33.946,3.657c-3.217,0.016 -3.223,5.016 0,5" style="fill:#010101;fill-rule:nonzero;"/><path d="M74.948,374.672c7.592,-3.236 15.184,-6.472 22.777,-9.708c2.95,-1.258 0.406,-5.566 -2.524,-4.318c-7.592,3.236 -15.184,6.473 -22.777,9.709c-2.95,1.257 -0.406,5.566 2.524,4.317" style="fill:#010101;fill-rule:nonzero;"/><path d="M84.398,371.629c6.26,-2.805 12.699,-5.011 19.341,-6.713c-0.941,-1.225 -1.882,-2.449 -2.823,-3.673c-0.615,0.861 -1.229,1.721 -1.844,2.582c-1.276,1.788 0.839,4.299 2.824,3.673c18.03,-5.685 36.491,-9.792 55.248,-12.176c3.148,-0.401 3.188,-5.406 0,-5c-19.216,2.443 -38.101,6.529 -56.578,12.354c0.941,1.224 1.883,2.449 2.824,3.673c0.614,-0.861 1.229,-1.722 1.843,-2.582c1.327,-1.858 -0.858,-4.176 -2.823,-3.673c-7.066,1.811 -13.881,4.236 -20.536,7.218c-2.931,1.313 -0.391,5.623 2.524,4.317" style="fill:#010101;fill-rule:nonzero;"/><path d="M98.52,364.688c1.331,-0.449 2.662,-0.897 3.993,-1.346c1.237,-0.416 2.179,-1.74 1.747,-3.075c-0.398,-1.23 -1.749,-2.193 -3.076,-1.746c-1.331,0.448 -2.662,0.897 -3.993,1.346c-1.237,0.416 -2.178,1.74 -1.746,3.075c0.398,1.229 1.748,2.193 3.075,1.746" style="fill:#010101;fill-rule:nonzero;"/><path d="M113.075,363.335c4.151,-7.108 14.693,-5.243 21.605,-6.46c3.163,-0.556 1.823,-5.376 -1.329,-4.821c-8.783,1.546 -19.339,-0.24 -24.593,8.757c-1.626,2.785 2.693,5.304 4.317,2.524" style="fill:#010101;fill-rule:nonzero;"/><path d="M169.156,344.468l-1.333,0c-1.307,0 -2.56,1.15 -2.5,2.5c0.061,1.355 1.099,2.5 2.5,2.5l1.333,0c1.308,0 2.56,-1.15 2.5,-2.5c-0.061,-1.355 -1.098,-2.5 -2.5,-2.5" style="fill:#010101;fill-rule:nonzero;"/><path d="M164.347,349.987c7.959,-1.603 15.751,-3.741 23.413,-6.423c3.08,-1.078 1.822,-5.331 -1.329,-4.822c-2.182,0.353 -3.309,1.287 -4.522,3.086c-1.205,1.787 0.799,4.339 2.823,3.672c17.818,-5.869 35.939,-10.683 54.32,-14.43c3.151,-0.643 1.817,-5.463 -1.329,-4.822c-18.382,3.747 -36.502,8.561 -54.32,14.431c0.941,1.224 1.882,2.448 2.823,3.672l1.534,-0.787c-0.443,-1.607 -0.886,-3.215 -1.329,-4.822c-7.663,2.683 -15.454,4.821 -23.413,6.424c-3.152,0.634 -1.818,5.455 1.329,4.821" style="fill:#010101;fill-rule:nonzero;"/><path d="M188.901,344.13c8.049,-4.086 16.571,-6.424 25.581,-7.007c3.195,-0.207 3.218,-5.209 0,-5c-9.895,0.641 -19.263,3.201 -28.105,7.69c-2.87,1.456 -0.342,5.772 2.524,4.317" style="fill:#010101;fill-rule:nonzero;"/><path d="M6.656,372.05c1.973,-2.693 5.411,-2.439 8.357,-2.864c2.811,-0.405 6.576,-2.724 8.902,-0.316c0.559,0.58 1.443,-0.304 0.884,-0.884c-3.638,-3.767 -5.626,-0.658 -10.039,-0.03c-3.455,0.492 -6.945,0.407 -9.183,3.463c-0.476,0.65 0.608,1.274 1.079,0.631" style="fill:#010101;fill-rule:nonzero;"/><path d="M28.234,324.896c4.857,-2.064 10.098,-2.04 14.938,0.06c0.73,0.317 1.367,-0.759 0.631,-1.079c-5.297,-2.299 -10.888,-2.317 -16.2,-0.06c-0.738,0.313 -0.102,1.39 0.631,1.079" style="fill:#010101;fill-rule:nonzero;"/><path d="M50.782,353.994c2.397,-1.115 4.981,-1.475 7.593,-1.049c0.787,0.128 1.126,-1.077 0.332,-1.206c-2.973,-0.484 -5.822,-0.096 -8.556,1.176c-0.729,0.339 -0.095,1.416 0.631,1.079" style="fill:#010101;fill-rule:nonzero;"/><path d="M204.441,290.493c4.452,-0.286 8.904,-0.572 13.357,-0.858c0.798,-0.051 0.804,-1.302 0,-1.25c-4.453,0.286 -8.905,0.572 -13.357,0.858c-0.799,0.051 -0.805,1.302 0,1.25" style="fill:#010101;fill-rule:nonzero;"/><path d="M194.642,294.265c1.777,-0.444 3.554,-0.888 5.33,-1.333c0.78,-0.195 0.45,-1.4 -0.332,-1.205c-1.777,0.444 -3.553,0.888 -5.33,1.333c-0.78,0.195 -0.45,1.4 0.332,1.205" style="fill:#010101;fill-rule:nonzero;"/></svg>