<?xml version="1.0" standalone="no"?><!DOCTYPE svg PUBLIC "-//W3C//DTD SVG 1.1//EN" "http://www.w3.org/Graphics/SVG/1.1/DTD/svg11.dtd"><svg width="100%" height="100%" viewBox="0 0 471 440" version="1.1" xmlns="http://www.w3.org/2000/svg" xmlns:xlink="http://www.w3.org/1999/xlink" xml:space="preserve" style="fill-rule:evenodd;clip-rule:evenodd;stroke-miterlimit:10;"><path d="M137.305,128.679c-5.065,2.383 -8.37,7.462 -8.37,13.138l0,27.355c0.181,0.097 0.365,0.193 0.523,0.309c0.168,0.123 0.325,0.253 0.477,0.385l0,-28.049c0,-5.517 3.353,-10.43 8.426,-12.512c-0.33,-0.226 -0.677,-0.436 -1.056,-0.626Z" style="fill:#010101;fill-rule:nonzero;stroke-width:0.25px;stroke:#010101;"/><path d="M317.77,127.273l-150.58,0c-0.025,0.028 -0.047,0.059 -0.073,0.087c-0.006,0.005 -0.01,0.012 -0.015,0.017c-0.208,0.298 -0.412,0.598 -0.618,0.896l151.899,0c-0.22,-0.32 -0.425,-0.652 -0.613,-1Z" style="fill:#010101;fill-rule:nonzero;stroke-width:0.25px;stroke:#010101;"/><path d="M323.571,363.559l-180.092,0c-7.468,0 -13.544,-6.076 -13.544,-13.544l0,-165.375c-0.334,0.033 -0.667,0.061 -1,0.086l0,165.289c0,8.02 6.524,14.544 14.544,14.544l179.669,0c0.13,-0.337 0.271,-0.671 0.423,-1Z" style="fill:#010101;fill-rule:nonzero;stroke-width:0.25px;stroke:#010101;"/><path d="M433.066,318.446l0,31.569c0,7.468 -6.076,13.544 -13.544,13.544l-15.731,0c0.095,0.334 0.19,0.668 0.274,1l15.457,0c8.02,0 14.544,-6.524 14.544,-14.544l0,-33.08c-0.257,0.57 -0.593,1.078 -1,1.511Z" style="fill:#010101;fill-rule:nonzero;stroke-width:0.25px;stroke:#010101;"/><path d="M121.923,163.945c0.2,0.27 0.374,0.547 0.549,0.823l0,-33.118c0,-7.372 5.612,-13.571 12.886,-14.378c-0.094,0.443 -0.111,0.87 -0.09,1.287c0.216,-0.083 0.437,-0.16 0.672,-0.213c-0.314,-0.71 -0.452,-1.406 -0.474,-2.075c-7.881,0.764 -13.994,7.426 -13.994,15.379l0,31.751c0.155,0.169 0.306,0.349 0.451,0.544" style="fill:#010101;fill-rule:nonzero;"/><path d="M320.09,372.138l-183.134,0c-7.986,0 -14.484,-6.497 -14.484,-14.483l0,-169.705c-0.245,0.047 -0.494,0.083 -0.748,0.111c-0.08,0.07 -0.169,0.123 -0.252,0.189l0,169.405c0,8.537 6.946,15.483 15.484,15.483l182.937,0c0.034,-0.356 0.102,-0.688 0.197,-1" style="fill:#010101;fill-rule:nonzero;"/><path d="M441.019,284.761l0,72.893c0,7.987 -6.497,14.484 -14.483,14.484l-20.702,0c0.172,0.309 0.307,0.644 0.407,1l20.295,0c8.537,0 15.483,-6.947 15.483,-15.484l0,-77.678c-0.387,1.58 -0.728,3.172 -1,4.785" style="fill:#010101;fill-rule:nonzero;"/><path d="M312.561,117.167c0.212,-0.307 0.456,-0.604 0.773,-0.874c0.052,-0.044 0.102,-0.083 0.154,-0.126l-146.345,0c0.175,0.392 0.306,0.708 0.407,1l145.011,0Z" style="fill:#010101;fill-rule:nonzero;"/><path d="M319.866,377.642l0,-3.949c0,-0.188 0.01,-0.37 0.027,-0.547l-187.456,0c-1.651,0 -3.002,1.351 -3.002,3.002l0,4.793c0,1.652 1.351,3.003 3.002,3.003l187.88,0c-0.739,-1.946 -1.095,-3.925 -0.451,-6.302Z" style="fill:none;stroke-width:2px;stroke:#010101;"/><path d="M430.564,373.145l-24.32,0c0.211,0.748 0.261,1.588 0.074,2.514c0.109,0.419 0.174,0.87 0.174,1.365l0,0.647c0.267,1.165 0.282,2.508 0,3.674l0,0.343c0,0.872 -0.185,1.62 -0.497,2.255l24.569,0c1.651,0 3.002,-1.351 3.002,-3.002l0,-4.794c0,-1.651 -1.351,-3.002 -3.002,-3.002Z" style="fill:none;stroke-width:2px;stroke:#010101;"/><path d="M319.866,377.642l0,-3.949c0,-0.374 0.037,-0.724 0.1,-1.055l-194.791,0c-1.761,0 -3.203,1.442 -3.203,3.203l0,5.292c0,1.761 1.442,3.203 3.203,3.203l195.298,0c-0.84,-2.074 -1.295,-4.157 -0.607,-6.694Z" style="fill:none;stroke-width:2px;stroke:#010101;"/><path d="M438.317,372.638l-32.237,0c0.353,0.865 0.469,1.882 0.238,3.022c0.109,0.418 0.174,0.87 0.174,1.364l0,0.648c0.268,1.164 0.282,2.508 0,3.673l0,0.343c0,1.058 -0.269,1.938 -0.712,2.647l32.537,0c1.762,0 3.203,-1.441 3.203,-3.203l0,-5.291c0,-1.762 -1.441,-3.203 -3.203,-3.203Z" style="fill:none;stroke-width:2px;stroke:#010101;"/><path d="M286.127,79.696c-4.312,-3.486 -10.281,-12.489 -2.775,-16.312c7.272,-3.704 9.249,7.942 10.491,12.415c0.215,0.774 1.422,0.445 1.206,-0.332c-1.474,-5.31 -3.981,-17.497 -12.328,-13.162c-8.187,4.25 -2.445,14.26 2.522,18.275c0.62,0.501 1.51,-0.378 0.884,-0.884" style="fill:#010101;fill-rule:nonzero;"/><path d="M286.027,81.754c3.231,-1.35 6.071,-3.295 8.459,-5.859c0.548,-0.588 -0.334,-1.474 -0.884,-0.884c-2.231,2.395 -4.885,4.275 -7.907,5.538c-0.732,0.305 -0.411,1.515 0.332,1.205" style="fill:#010101;fill-rule:nonzero;"/><path d="M299.825,105.13c-2.048,-3.554 -4.001,-7.157 -5.797,-10.846c-0.769,-1.579 -1.513,-3.171 -2.233,-4.774c-0.697,-1.554 -1.37,-3.119 -2.017,-4.695c-1.274,-1.59 -0.782,-2.387 1.477,-2.391c1.544,-1.35 2.462,-1.176 2.754,0.521l1.523,3.345c0.761,1.673 1.522,3.346 2.283,5.018c1.777,3.903 3.553,7.806 5.329,11.709c0.333,0.731 1.411,0.097 1.08,-0.631c-3.039,-6.677 -5.873,-13.502 -9.136,-20.072c-1.09,-2.196 -3.224,-5.594 -6.236,-4.083c-3.29,1.651 -0.457,6.521 0.46,8.688c2.742,6.48 5.921,12.747 9.434,18.842c0.401,0.697 1.482,0.068 1.079,-0.631" style="fill:#010101;fill-rule:nonzero;"/><path d="M284.131,79.946c-1.814,0.168 -2.693,2.128 -1.869,3.736c1.299,2.536 5.01,1.541 7.015,0.748c2.774,-1.098 6.306,-3.292 7.582,-6.119c0.943,-2.089 -0.2,-4.527 -2.679,-4.072c-0.79,0.145 -0.455,1.35 0.333,1.206c1.063,1.82 0.973,3.238 -0.271,4.253c-0.395,0.398 -0.81,0.774 -1.244,1.13c-0.824,0.669 -1.733,1.27 -2.676,1.755c-0.931,0.48 -1.95,0.93 -2.969,1.184c-0.878,0.271 -1.781,0.339 -2.71,0.205c-1.673,-0.595 -1.844,-1.521 -0.512,-2.776c0.794,-0.074 0.802,-1.324 0,-1.25" style="fill:#010101;fill-rule:nonzero;"/><path d="M287.882,80.995c-0.889,-3.312 -1.778,-6.625 -2.667,-9.937l-0.769,0.769c4.159,1.522 7.079,5.126 7.825,9.474c0.135,0.791 1.34,0.456 1.205,-0.332c-0.823,-4.797 -4.144,-8.681 -8.698,-10.347c-0.461,-0.169 -0.884,0.338 -0.769,0.769c0.889,3.312 1.779,6.624 2.668,9.936c0.208,0.776 1.414,0.447 1.205,-0.332" style="fill:#010101;fill-rule:nonzero;"/><path d="M32.674,385.777c-4.321,2.061 -9.321,3.756 -14.123,2.363c-4.127,-1.198 -7.742,-4.442 -7.538,-9.078c0.462,-10.487 15.541,-5.909 21.558,-4.844c1.574,0.278 2.249,-2.131 0.665,-2.411c-7.98,-1.412 -25.776,-5.531 -24.687,8.457c0.367,4.726 3.858,8.352 8.186,9.918c5.805,2.101 11.858,0.302 17.201,-2.246c1.451,-0.693 0.184,-2.849 -1.262,-2.159" style="fill:#010101;fill-rule:nonzero;"/><path d="M35.321,387.247c0.223,-4.84 -0.532,-9.482 -2.287,-14.001c-0.288,-0.742 -1.498,-0.419 -1.206,0.332c1.712,4.407 2.46,8.945 2.243,13.669c-0.037,0.804 1.213,0.802 1.25,0" style="fill:#010101;fill-rule:nonzero;"/><path d="M73.652,384.327c-6.068,0.475 -12.144,0.758 -18.232,0.779c-2.882,0.009 -5.764,-0.033 -8.645,-0.13c-1.726,-0.058 -8.545,0.549 -9.885,-0.705c0.222,-2.064 0.444,-4.129 0.666,-6.193c0.928,-0.113 1.856,-0.225 2.784,-0.338c1.455,-0.076 2.949,0.036 4.407,0.064c2.906,0.055 5.812,0.109 8.718,0.164c6.458,0.122 12.916,0.244 19.374,0.366c0.805,0.016 0.805,-1.234 0,-1.25c-9.687,-0.183 -19.373,-0.395 -29.061,-0.549c-3.473,-0.055 -11.192,-0.231 -10.713,5.359c0.429,4.999 8.609,4.125 11.79,4.259c9.606,0.405 19.214,0.173 28.797,-0.576c0.797,-0.062 0.803,-1.313 0,-1.25" style="fill:#010101;fill-rule:nonzero;"/><path d="M32.308,388.924c-0.692,2.235 1.166,4.34 3.536,4.17c3.744,-0.267 4.607,-5.284 4.816,-8.15c0.305,-4.174 -0.249,-11.119 -3.832,-13.999c-2.042,-1.641 -4.887,-1.055 -5.592,1.548c-0.21,0.777 0.995,1.109 1.206,0.332c3.006,-0.948 4.781,-0.318 5.325,1.888c0.384,0.812 0.687,1.653 0.907,2.525c0.448,1.566 0.682,3.196 0.769,4.819c0.085,1.604 0.053,3.307 -0.262,4.873c-0.075,0.355 -0.15,0.709 -0.226,1.064c-0.369,2.836 -2.183,3.257 -5.442,1.262c0.239,-0.77 -0.967,-1.099 -1.205,-0.332" style="fill:#010101;fill-rule:nonzero;"/><path d="M35.735,384.852c-4.74,-0.881 -9.481,-1.762 -14.221,-2.643l0.276,1.045c4.585,-4.408 10.837,-5.992 16.972,-4.308c0.777,0.213 1.108,-0.992 0.332,-1.205c-6.553,-1.799 -13.29,-0.08 -18.188,4.629c-0.319,0.307 -0.192,0.958 0.276,1.045c4.74,0.881 9.48,1.761 14.221,2.642c0.786,0.146 1.123,-1.058 0.332,-1.205" style="fill:#010101;fill-rule:nonzero;"/><path d="M75.124,404.671c-4.321,2.061 -9.321,3.756 -14.123,2.363c-4.127,-1.198 -7.742,-4.442 -7.538,-9.078c0.462,-10.487 15.541,-5.909 21.558,-4.844c1.574,0.278 2.249,-2.131 0.665,-2.411c-7.98,-1.412 -25.776,-5.531 -24.687,8.457c0.367,4.726 3.858,8.352 8.186,9.918c5.805,2.101 11.858,0.302 17.201,-2.246c1.451,-0.693 0.184,-2.849 -1.262,-2.159" style="fill:#010101;fill-rule:nonzero;"/><path d="M77.771,406.141c0.223,-4.84 -0.532,-9.482 -2.287,-14.001c-0.288,-0.742 -1.498,-0.419 -1.206,0.332c1.712,4.407 2.46,8.945 2.243,13.669c-0.037,0.804 1.213,0.802 1.25,0" style="fill:#010101;fill-rule:nonzero;"/><path d="M116.101,403.221c-6.068,0.475 -12.144,0.758 -18.232,0.779c-2.882,0.009 -5.764,-0.033 -8.645,-0.13c-1.726,-0.058 -8.545,0.549 -9.885,-0.705c0.222,-2.064 0.444,-4.129 0.666,-6.193c0.928,-0.113 1.856,-0.225 2.784,-0.338c1.455,-0.076 2.949,0.036 4.407,0.064c2.906,0.055 5.812,0.109 8.718,0.164c6.458,0.122 12.916,0.244 19.374,0.366c0.805,0.016 0.805,-1.234 0,-1.25c-9.687,-0.183 -19.373,-0.395 -29.061,-0.549c-3.473,-0.055 -11.192,-0.231 -10.713,5.359c0.429,4.999 8.609,4.125 11.79,4.259c9.606,0.405 19.214,0.173 28.797,-0.576c0.797,-0.062 0.803,-1.313 0,-1.25" style="fill:#010101;fill-rule:nonzero;"/><path d="M74.758,407.818c-0.692,2.235 1.166,4.34 3.536,4.17c3.744,-0.267 4.607,-5.284 4.816,-8.15c0.305,-4.174 -0.249,-11.119 -3.832,-13.999c-2.042,-1.641 -4.887,-1.055 -5.592,1.548c-0.21,0.777 0.995,1.109 1.206,0.332c3.006,-0.948 4.781,-0.318 5.325,1.888c0.384,0.812 0.687,1.653 0.907,2.525c0.448,1.566 0.682,3.195 0.769,4.819c0.085,1.604 0.053,3.307 -0.262,4.873c-0.075,0.355 -0.15,0.709 -0.226,1.064c-0.369,2.836 -2.183,3.257 -5.442,1.262c0.239,-0.77 -0.967,-1.099 -1.205,-0.332" style="fill:#010101;fill-rule:nonzero;"/><path d="M78.185,403.746c-4.74,-0.881 -9.481,-1.762 -14.221,-2.643c0.092,0.349 0.184,0.697 0.276,1.045c4.585,-4.408 10.837,-5.992 16.972,-4.308c0.777,0.213 1.108,-0.992 0.332,-1.205c-6.553,-1.799 -13.29,-0.08 -18.188,4.629c-0.319,0.307 -0.192,0.958 0.276,1.045c4.74,0.881 9.48,1.761 14.221,2.642c0.786,0.146 1.123,-1.058 0.332,-1.205" style="fill:#010101;fill-rule:nonzero;"/><path d="M131.857,407.991c6.357,-4.689 19.71,-9.909 23.689,0.773c4.678,12.561 -14.244,11.141 -21.119,11.247c-1.607,0.024 -1.612,2.525 0,2.5c8.557,-0.131 28.05,0.501 23.766,-13.915c-3.836,-12.906 -19.814,-8.505 -27.598,-2.764c-1.281,0.945 -0.035,3.116 1.262,2.159" style="fill:#010101;fill-rule:nonzero;"/><path d="M129.095,406.95c0.727,5.067 2.474,9.789 5.204,14.114c0.429,0.679 1.511,0.052 1.08,-0.631c-2.685,-4.252 -4.365,-8.842 -5.079,-13.815c-0.113,-0.793 -1.318,-0.456 -1.205,0.332" style="fill:#010101;fill-rule:nonzero;"/><path d="M89.721,417.608c6.212,-1.711 12.471,-3.225 18.794,-4.468c3.16,-0.621 6.332,-1.179 9.514,-1.677c2.017,-0.315 9.259,-2.534 11.093,-1.011c-0.631,2.344 -1.262,4.688 -1.893,7.032c-0.514,0.131 -1.029,0.261 -1.543,0.392c-1.501,0.597 -3.806,0.681 -5.382,0.954c-2.861,0.496 -5.722,0.991 -8.584,1.487c-6.676,1.157 -13.352,2.314 -20.029,3.471c-0.791,0.138 -0.455,1.342 0.333,1.206c10.173,-1.763 20.352,-3.495 30.52,-5.29c3.535,-0.623 11.597,-1.984 9.881,-7.709c-1.481,-4.941 -9.444,-2.528 -12.818,-2.028c-10.203,1.511 -20.277,3.698 -30.218,6.436c-0.775,0.213 -0.446,1.419 0.332,1.205" style="fill:#010101;fill-rule:nonzero;"/><path d="M131.813,404.505c0.31,-2.81 -2.805,-4.47 -5.246,-3.237c-3.317,1.675 -2.931,6.9 -2.496,9.835c0.619,4.173 2.614,10.953 6.737,13.093c2.508,1.3 5.218,0.017 5.424,-2.78c0.06,-0.803 -1.19,-0.799 -1.25,0c-3.166,1.159 -5.282,0.688 -6.348,-1.414c-0.418,-0.645 -0.793,-1.313 -1.126,-2.006c-0.763,-1.543 -1.37,-3.214 -1.763,-4.888c-0.391,-1.66 -0.704,-3.432 -0.695,-5.143c0.007,-0.385 0.014,-0.77 0.021,-1.155c-0.165,-3.063 1.666,-3.831 5.492,-2.305c-0.088,0.798 1.163,0.792 1.25,0" style="fill:#010101;fill-rule:nonzero;"/><path d="M129.148,409.453c5.118,-0.035 10.236,-0.069 15.354,-0.104c-0.18,-0.313 -0.36,-0.627 -0.54,-0.94c-3.873,5.527 -10.175,8.424 -16.886,7.881c-0.802,-0.065 -0.798,1.186 0,1.25c7.162,0.58 13.85,-2.628 17.965,-8.5c0.278,-0.396 -0.094,-0.944 -0.539,-0.941c-5.118,0.035 -10.236,0.069 -15.354,0.104c-0.804,0.005 -0.806,1.255 0,1.25" style="fill:#010101;fill-rule:nonzero;"/><path d="M442.766,325.676l9.328,0c0.805,0 0.806,-1.25 0,-1.25l-9.328,0c-0.804,0 -0.806,1.25 0,1.25" style="fill:#010101;fill-rule:nonzero;"/><path d="M53.208,330.882c3.554,5.356 7.551,10.367 11.951,15.052c1.103,1.176 2.869,-0.595 1.767,-1.767c-4.255,-4.531 -8.122,-9.367 -11.559,-14.547c-0.886,-1.334 -3.052,-0.084 -2.159,1.262" style="fill:#010101;fill-rule:nonzero;"/><path d="M38.099,152.996c2.181,24.979 2.379,50.063 1.214,75.102c-1.108,23.808 -5.555,48.252 0.643,71.7c0.411,1.554 2.823,0.895 2.411,-0.665c-6.285,-23.778 -1.525,-48.821 -0.466,-72.972c1.069,-24.396 0.823,-48.831 -1.302,-73.165c-0.139,-1.59 -2.64,-1.605 -2.5,0" style="fill:#010101;fill-rule:nonzero;"/><path d="M249.114,41.099c-8.408,-15.277 -22.332,-26.47 -38.245,-33.267c-18.304,-7.819 -38.083,-8.904 -57.68,-7.045c-11.45,1.087 -22.877,2.392 -34.325,3.495c-9.301,0.896 -18.353,2.653 -27.015,6.27c-16.364,6.834 -29.943,19.23 -38.994,34.413c-11.079,18.586 -14.784,40.443 -15.846,61.764c-0.08,1.608 2.42,1.603 2.5,0c1.769,-35.526 13.12,-72.538 46.381,-90.577c18.192,-9.866 39.335,-10.017 59.451,-12.082c18.951,-1.945 37.838,-2.865 56.265,2.973c18.749,5.941 35.757,17.888 45.349,35.318c0.776,1.41 2.936,0.15 2.159,-1.262" style="fill:#010101;fill-rule:nonzero;"/><path d="M87.656,360.287c11.13,6.795 23.796,9.442 36.66,10.465c1.604,0.127 1.596,-2.373 0,-2.5c-12.44,-0.989 -24.633,-3.551 -35.398,-10.124c-1.377,-0.84 -2.635,1.321 -1.262,2.159" style="fill:#010101;fill-rule:nonzero;"/><path d="M113.902,7.257c1.609,0 1.611,-2.5 0,-2.5c-1.609,0 -1.611,2.5 0,2.5" style="fill:#010101;fill-rule:nonzero;"/><path d="M42.505,70.025c-17.173,-1.439 -27.715,-19.543 -17.3,-34.328c4.241,-6.02 11.016,-10.251 18.219,-11.66c7.177,-1.405 17.048,-1.107 22.065,4.821c1.041,1.23 2.802,-0.546 1.768,-1.767c-5.537,-6.542 -15.93,-6.97 -23.825,-5.582c-8.518,1.497 -16.508,6.685 -21.122,14.034c-10.4,16.564 1.847,35.444 20.195,36.982c1.603,0.134 1.594,-2.366 0,-2.5" style="fill:#010101;fill-rule:nonzero;"/><path d="M233.27,23.264c12.473,-6.399 32.47,-9.55 40.793,4.682c7.881,13.474 2.838,33.929 -14.121,36.846c-1.582,0.273 -0.911,2.682 0.665,2.411c18.066,-3.108 23.933,-24.616 16.227,-39.409c-8.646,-16.595 -30.625,-13.974 -44.826,-6.689c-1.432,0.735 -0.168,2.893 1.262,2.159" style="fill:#010101;fill-rule:nonzero;"/><path d="M136.31,90.19c0.344,-0.052 0.689,-0.104 1.033,-0.155c-0.105,-0.389 -0.21,-0.777 -0.315,-1.165c-1.707,0.904 -3.318,0.851 -5.005,1.963c-2.291,1.51 -4.484,3.246 -6.389,5.225c-2.57,2.669 -5.39,6.423 -4.583,10.377c0.971,4.755 6.938,7.386 11.246,7.832c7.811,0.808 14.942,-3.979 22.696,-3.854c8.096,0.13 23.521,9.315 25.491,-4.791c1.425,-10.206 -11.581,-15.823 -19.236,-18.658c-0.755,-0.279 -1.081,0.928 -0.332,1.206c7.163,2.652 20.762,8.453 18.126,18.312c-3.098,11.589 -17.661,2.321 -25.454,2.698c-4.589,0.221 -8.942,1.957 -13.371,3.016c-5.505,1.316 -17.469,1.294 -18.044,-6.808c-0.309,-4.339 3.905,-8.305 6.933,-10.84c1.785,-1.496 3.728,-3.02 5.928,-3.811c0.857,-0.309 1.806,-0.354 2.625,-0.788c0.541,-0.286 0.3,-1.194 -0.316,-1.164c-0.492,0.023 -0.833,0.104 -1.365,0.2c-0.791,0.142 -0.456,1.347 0.332,1.205" style="fill:#010101;fill-rule:nonzero;"/><path d="M164.526,112.672c1.866,4.852 2.715,10.511 1.393,15.621c-1.007,3.893 -4.706,6.673 -8.758,5.61c-3.003,-0.788 -3.67,-3.397 -4.915,-5.915c-0.356,-0.721 -1.435,-0.089 -1.079,0.631c1.217,2.461 2.062,5.39 4.845,6.476c2.459,0.96 5.551,0.222 7.657,-1.218c6.344,-4.337 4.368,-15.542 2.062,-21.537c-0.285,-0.743 -1.495,-0.421 -1.205,0.332" style="fill:#010101;fill-rule:nonzero;"/><path d="M66.358,346.265c10.348,-5.209 15.82,7.889 22.962,12.805c0.049,-0.381 0.099,-0.762 0.149,-1.142c-5.723,0.879 -10.368,4.676 -14.861,8.063c-5.017,3.782 -11.826,9.743 -18.517,6.652c-8.898,-4.112 -6.51,-12.66 -0.777,-18.1c4.191,-3.978 9.284,-7.025 14.417,-9.627c0.717,-0.364 0.085,-1.443 -0.631,-1.079c-8.173,4.143 -28.044,15.822 -17.575,26.9c12.289,13.005 26.203,-9.748 38.276,-11.604c0.581,-0.089 0.542,-0.872 0.149,-1.142c-7.764,-5.345 -12.977,-18.467 -24.223,-12.805c-0.719,0.361 -0.086,1.44 0.631,1.079" style="fill:#010101;fill-rule:nonzero;"/><path d="M54.514,371.065c-1.726,-6.058 2.793,-10.816 7.799,-13.449c0.713,-0.375 0.081,-1.454 -0.631,-1.079c-5.537,2.912 -10.256,8.252 -8.373,14.86c0.22,0.773 1.426,0.444 1.205,-0.332" style="fill:#010101;fill-rule:nonzero;"/><path d="M264.257,110.177c2.639,-1.28 6.671,0.084 9.633,-0.729c3.158,-0.866 6.18,-2.324 8.718,-4.409c5.19,-4.266 8.23,-11.111 7.188,-17.853c-0.696,-4.507 -3.595,-7.65 -8.33,-7.421c-7.444,0.359 -12.776,6.389 -17.332,11.578c-0.529,0.602 0.352,1.49 0.884,0.884c3.829,-4.361 7.944,-9.215 13.791,-10.751c9.189,-2.416 11.216,6.689 9.118,13.677c-1.891,6.296 -7.437,11.051 -13.627,12.886c-3.392,1.006 -7.57,-0.447 -10.674,1.059c-0.723,0.351 -0.09,1.429 0.631,1.079" style="fill:#010101;fill-rule:nonzero;"/><path d="M278.309,92.863c5.425,-1.983 9.654,-6.917 7.115,-12.789c-0.319,-0.737 -1.396,-0.101 -1.08,0.63c2.199,5.085 -1.809,9.288 -6.367,10.954c-0.75,0.274 -0.426,1.482 0.332,1.205" style="fill:#010101;fill-rule:nonzero;"/><path d="M229.451,53.793c0,-19.358 -15.695,-35.052 -35.053,-35.052c-19.358,0 -35.052,15.694 -35.052,35.052c0,19.358 15.694,35.052 35.052,35.052c19.358,0 35.053,-15.694 35.053,-35.052Z" style="fill:none;stroke-width:1.5px;stroke:#010101;"/><path d="M141.169,57.512c0,-19.355 -15.69,-35.046 -35.049,-35.046c-19.358,0 -35.052,15.691 -35.052,35.046c0,19.361 15.694,35.052 35.052,35.052c19.359,0 35.049,-15.691 35.049,-35.052Z" style="fill:none;stroke-width:1.5px;stroke:#010101;"/><path d="M261.518,39.917c0,-4.092 -3.32,-7.413 -7.414,-7.413c-4.098,0 -7.414,3.321 -7.414,7.413c0,4.099 3.316,7.416 7.414,7.416c4.094,0 7.414,-3.317 7.414,-7.416" style="fill:#010101;fill-rule:nonzero;"/><path d="M53.26,46.545c0,-4.096 -3.32,-7.413 -7.416,-7.413c-4.096,0 -7.415,3.317 -7.415,7.413c0,4.095 3.319,7.415 7.415,7.415c4.096,0 7.416,-3.32 7.416,-7.415" style="fill:#010101;fill-rule:nonzero;"/><path d="M166.166,86.142c0,-4.8 -7.025,-8.685 -15.683,-8.685c-8.666,0 -15.689,3.885 -15.689,8.685c0,4.794 7.023,8.683 15.689,8.683c8.658,0 15.683,-3.889 15.683,-8.683" style="fill:#010101;fill-rule:nonzero;"/><path d="M204.381,80.562c-1.792,0 -3.244,-1.452 -3.244,-3.243c0,-1.791 1.452,-3.244 3.244,-3.244c1.791,0 3.243,1.453 3.243,3.244c0,1.791 -1.452,3.243 -3.243,3.243M199.766,61.816c-6.328,0 -11.457,5.127 -11.457,11.459c0,6.327 5.129,11.459 11.457,11.459c6.329,0 11.46,-5.132 11.46,-11.459c0,-6.332 -5.131,-11.459 -11.46,-11.459" style="fill:#010101;fill-rule:nonzero;"/><path d="M121.796,82.011c-1.788,0 -3.24,-1.452 -3.24,-3.243c0,-1.792 1.452,-3.244 3.24,-3.244c1.794,0 3.246,1.452 3.246,3.244c0,1.791 -1.452,3.243 -3.246,3.243M117.184,63.265c-6.328,0 -11.456,5.127 -11.456,11.456c0,6.329 5.128,11.462 11.456,11.462c6.33,0 11.46,-5.133 11.46,-11.462c0,-6.329 -5.13,-11.456 -11.46,-11.456" style="fill:#010101;fill-rule:nonzero;"/><path d="M151.315,110.306c0.8,4.309 0.569,9.63 0.175,13.971c-0.242,2.672 -0.648,5.69 -2.372,7.863c-2.318,2.919 -6.831,3.287 -9.531,0.567c-4.467,-4.501 -3.087,-13.948 -1.492,-19.361c0.228,-0.773 -0.978,-1.103 -1.205,-0.332c-1.907,6.468 -3.489,20.055 5.161,22.565c12.775,3.707 11.727,-18.832 10.469,-25.605c-0.146,-0.79 -1.351,-0.456 -1.205,0.332" style="fill:#010101;fill-rule:nonzero;"/><path d="M105.238,160.828c7.297,-1.312 14.476,1.54 20.425,5.636c4.909,3.38 13.166,11.488 4.852,16.213c-0.7,0.397 -0.07,1.477 0.631,1.079c6.743,-3.832 4.029,-10.413 -0.617,-14.966c-6.524,-6.393 -16.452,-10.816 -25.623,-9.167c-0.791,0.142 -0.456,1.347 0.332,1.205" style="fill:#010101;fill-rule:nonzero;"/><path d="M123.471,178.026c2.497,1.207 7.1,4.306 5.265,7.769c-2.041,3.852 -7.604,2.607 -10.594,1.146c-5.057,-2.471 -9.721,-6.721 -12.989,-11.289c-0.464,-0.649 -1.548,-0.026 -1.079,0.63c4.06,5.677 12.727,14.551 20.536,13.234c2.699,-0.455 5.872,-2.295 5.767,-5.389c-0.115,-3.38 -3.549,-5.862 -6.275,-7.18c-0.721,-0.349 -1.356,0.729 -0.631,1.079" style="fill:#010101;fill-rule:nonzero;"/><path d="M245.14,38.386c13.942,23.377 19.004,50.503 18.352,77.477c-0.039,1.609 2.461,1.608 2.5,0c0.662,-27.392 -4.539,-55.005 -18.693,-78.739c-0.824,-1.38 -2.986,-0.124 -2.159,1.262" style="fill:#010101;fill-rule:nonzero;"/><path d="M333.266,116.476c10.848,3.861 14.245,16.352 18.598,25.813c4.37,9.5 10.975,17.636 19.487,23.743c8.202,5.885 17.78,9.564 27.81,10.676c6.116,0.678 12.288,0.523 18.409,1.129c3.662,0.363 7.355,0.996 10.805,2.32c3.557,1.365 6.306,3.733 9.608,5.536c3.112,1.7 6.887,2.767 10.251,1.004c4.268,-2.236 3.462,-6.618 3.109,-10.701c-1.104,-12.743 1.868,-25.381 1.471,-38.118c-0.362,-11.595 -4.299,-21.846 -12.718,-29.948c-7.921,-7.623 -18.755,-14.903 -29.213,-18.398c-13.701,-4.579 -28.634,2.818 -41.618,6.87c-7.532,2.35 -15.219,4.444 -22.636,7.14c-5.06,1.838 -9.555,4.285 -12.877,8.619c-0.978,1.276 1.192,2.522 2.159,1.262c3.713,-4.845 9.34,-6.869 14.957,-8.659c6.342,-2.021 12.708,-3.969 19.062,-5.952c5.504,-1.717 11.005,-3.45 16.514,-5.153c6.658,-2.058 13.584,-4.164 20.59,-2.617c10.208,2.253 21.119,9.789 28.959,16.539c9.791,8.43 14.247,19.153 14.35,31.993c0.089,11.025 -2.094,21.95 -1.709,32.984c0.072,2.066 1.196,5.935 0.637,7.931c-0.624,2.228 -2.935,4.664 -5.257,4.612c-1.694,-0.039 -3.307,-0.775 -4.77,-1.567c-4.846,-2.623 -8.592,-5.613 -14.071,-6.966c-10.368,-2.56 -21.237,-0.998 -31.65,-3.284c-9.812,-2.153 -18.954,-7.035 -26.324,-13.844c-8.28,-7.649 -12.458,-17.063 -16.987,-27.11c-3.509,-7.782 -7.844,-15.262 -16.281,-18.265c-1.519,-0.54 -2.172,1.874 -0.665,2.411" style="fill:#010101;fill-rule:nonzero;"/><path d="M334.847,112.065c-6.197,-3.019 -13.234,-3.503 -19.625,-0.688c-5.725,2.521 -8.367,6.756 -4.271,12.208c5.323,7.084 12.718,12.984 18.934,19.274c6.472,6.55 12.452,13.426 17.565,21.098c8.598,12.9 16.036,27.295 29.499,35.87c13.789,8.782 30.817,10.451 46.788,10.575c7.817,0.061 17.332,0.043 23.231,-5.973c4.332,-4.419 5.892,-11.412 2.119,-16.606c-0.937,-1.289 -3.107,-0.042 -2.159,1.262c3.137,4.318 1.859,9.9 -1.728,13.576c-3.416,3.5 -8.606,4.632 -13.292,5.042c-8.062,0.706 -16.544,0.224 -24.573,-0.698c-17.804,-2.046 -32.916,-9.067 -43.907,-23.51c-9.556,-12.556 -16.664,-26.433 -27.546,-38.028c-5.959,-6.349 -12.355,-12.267 -18.417,-18.515c-1.207,-1.243 -2.467,-2.469 -3.593,-3.788c-3.783,-4.427 -0.809,-8.459 3.787,-10.076c5.301,-1.864 10.933,-1.297 15.926,1.136c1.441,0.702 2.71,-1.454 1.262,-2.159" style="fill:#010101;fill-rule:nonzero;"/><path d="M442.341,115.391c0.688,-1.452 -0.391,-3.091 -1.445,-4.303c-7.589,-8.726 -17.082,-15.787 -27.621,-20.547c-4.995,-2.256 -6.206,-5.037 -6.553,-10.446c-0.089,-1.388 2.595,-13.855 3.014,-13.449c2.321,2.247 4.641,4.493 6.962,6.74c1.218,-4.72 2.479,-9.538 5.178,-13.597c2.698,-4.058 7.151,-7.286 12.024,-7.194c-0.753,2.31 -0.748,5.87 1.674,6.056c0.838,0.065 1.617,-0.389 2.339,-0.817c4.108,-2.433 8.553,-4.573 13.315,-4.907c1.429,-0.101 2.948,-0.013 4.156,0.757c3.726,2.375 1.563,8.075 2.073,12.464c0.386,3.324 2.518,6.133 4.265,8.987c2.709,4.429 4.61,9.295 6.496,14.132c0.705,1.807 1.416,3.809 0.767,5.637c-0.649,1.827 -3.378,2.888 -4.568,1.357c1.351,3.904 -2.904,8.466 -6.892,7.391c0.105,1.966 0.194,4.019 -0.611,5.816c-0.805,1.797 -2.806,3.224 -4.702,2.692c-1.052,-0.295 -1.915,-1.131 -2.996,-1.291c-0.877,-0.13 -1.749,0.208 -2.571,0.539c-1.733,0.698 -3.465,1.396 -5.197,2.094" style="fill:#010101;fill-rule:nonzero;"/><path d="M35.066,326.133c-11.495,-0.117 -22.982,0.101 -34.464,0.656c-0.801,0.039 -0.805,1.289 0,1.25c11.482,-0.555 22.969,-0.773 34.464,-0.656c0.805,0.008 0.805,-1.242 0,-1.25" style="fill:#010101;fill-rule:nonzero;"/><path d="M414.935,87.262c-5.312,-1.899 -10.187,-4.588 -14.665,-8.013c-1.277,-0.977 -2.524,1.193 -1.262,2.159c4.652,3.558 9.75,6.294 15.262,8.265c1.518,0.542 2.172,-1.872 0.665,-2.411" style="fill:#010101;fill-rule:nonzero;"/><path d="M415.063,88.21c-5.633,-1.941 -11.349,-2.434 -17.244,-1.624c-1.587,0.218 -0.911,2.627 0.665,2.41c5.427,-0.745 10.743,-0.157 15.914,1.625c1.525,0.525 2.18,-1.889 0.665,-2.411" style="fill:#010101;fill-rule:nonzero;"/><path d="M412.229,84.474c-2.927,-2.375 -5.244,-5.246 -6.935,-8.615c-0.722,-1.438 -2.88,-0.174 -2.159,1.262c1.776,3.538 4.251,6.626 7.326,9.121c1.239,1.005 3.018,-0.754 1.768,-1.768" style="fill:#010101;fill-rule:nonzero;"/><path d="M410.152,86.584c-2.092,0.2 -4.122,-0.287 -5.788,-1.61c-1.247,-0.991 -3.027,0.766 -1.767,1.767c2.171,1.726 4.77,2.609 7.555,2.343c1.587,-0.152 1.603,-2.653 0,-2.5" style="fill:#010101;fill-rule:nonzero;"/><path d="M420.838,77.4c-2.652,-6.003 -3.74,-12.321 -3.365,-18.867c0.092,-1.607 -2.408,-1.602 -2.5,0c-0.401,7.007 0.873,13.715 3.706,20.129c0.649,1.468 2.804,0.198 2.159,-1.262" style="fill:#010101;fill-rule:nonzero;"/><path d="M419.895,75.887c-1.474,-2.411 -2.532,-4.953 -3.206,-7.697c-0.383,-1.562 -2.794,-0.9 -2.41,0.664c0.72,2.936 1.88,5.716 3.457,8.295c0.839,1.37 3.002,0.116 2.159,-1.262" style="fill:#010101;fill-rule:nonzero;"/><path d="M435.714,65.444c1.354,-4.838 3.831,-9.063 7.39,-12.61c1.141,-1.137 -0.626,-2.905 -1.768,-1.768c-3.851,3.839 -6.567,8.477 -8.033,13.713c-0.434,1.552 1.977,2.215 2.411,0.665" style="fill:#010101;fill-rule:nonzero;"/><path d="M436.048,62.526c-0.17,-2.089 0.335,-4.111 1.649,-5.774c0.988,-1.249 -0.77,-3.03 -1.767,-1.768c-1.719,2.174 -2.608,4.757 -2.382,7.542c0.129,1.592 2.631,1.606 2.5,0" style="fill:#010101;fill-rule:nonzero;"/><path d="M453.953,68.742c2.04,-1.499 4.079,-2.998 6.119,-4.498c1.283,-0.943 0.037,-3.113 -1.262,-2.158l-6.119,4.497c-1.283,0.943 -0.037,3.114 1.262,2.159" style="fill:#010101;fill-rule:nonzero;"/><path d="M455.596,72.663c1.721,-1.896 3.803,-3.337 6.218,-4.206c1.502,-0.541 0.854,-2.957 -0.665,-2.411c-2.819,1.015 -5.303,2.627 -7.321,4.849c-1.079,1.189 0.684,2.962 1.768,1.768" style="fill:#010101;fill-rule:nonzero;"/><path d="M455.772,72.996c1.785,-0.643 3.571,-1.286 5.356,-1.929c1.502,-0.541 0.854,-2.957 -0.665,-2.41c-1.785,0.643 -3.57,1.285 -5.356,1.928c-1.502,0.541 -0.854,2.958 0.665,2.411" style="fill:#010101;fill-rule:nonzero;"/><path d="M457.803,76.417l4.001,-1.323c1.52,-0.503 0.869,-2.918 -0.665,-2.411l-4.001,1.323c-1.52,0.503 -0.869,2.918 0.665,2.411" style="fill:#010101;fill-rule:nonzero;"/><path d="M460.129,79.112c1.739,-0.231 3.368,-0.042 5.004,0.591c1.502,0.58 2.152,-1.836 0.665,-2.411c-1.813,-0.701 -3.742,-0.936 -5.669,-0.68c-0.675,0.09 -1.242,0.511 -1.25,1.25c-0.006,0.607 0.581,1.339 1.25,1.25" style="fill:#010101;fill-rule:nonzero;"/><path d="M442.248,112.137c3.339,2.399 6.066,5.441 8.138,8.987c0.812,1.389 2.973,0.132 2.159,-1.261c-2.296,-3.931 -5.341,-7.231 -9.035,-9.885c-1.309,-0.94 -2.559,1.228 -1.262,2.159" style="fill:#010101;fill-rule:nonzero;"/><path d="M447.217,107.424c2.247,1.988 3.768,4.467 4.501,7.377c0.392,1.559 2.804,0.898 2.41,-0.665c-0.83,-3.299 -2.595,-6.224 -5.143,-8.48c-1.201,-1.063 -2.976,0.699 -1.768,1.768" style="fill:#010101;fill-rule:nonzero;"/><path d="M443.847,112.237c3.089,1.053 5.761,2.834 7.968,5.232c1.093,1.186 2.857,-0.586 1.768,-1.768c-2.502,-2.717 -5.579,-4.684 -9.071,-5.875c-1.527,-0.52 -2.182,1.894 -0.665,2.411" style="fill:#010101;fill-rule:nonzero;"/><path d="M447.839,113.555c1.774,0.455 3.548,0.91 5.322,1.365c1.559,0.4 2.224,-2.01 0.665,-2.41c-1.774,-0.455 -3.548,-0.911 -5.322,-1.366c-1.56,-0.4 -2.225,2.011 -0.665,2.411" style="fill:#010101;fill-rule:nonzero;"/><path d="M450.879,109.485c2.427,1.144 4.855,2.288 7.282,3.432c1.447,0.683 2.718,-1.472 1.262,-2.158c-2.428,-1.144 -4.855,-2.289 -7.282,-3.433c-1.447,-0.682 -2.718,1.473 -1.262,2.159" style="fill:#010101;fill-rule:nonzero;"/><path d="M456.463,103.711c2.456,0.614 4.912,1.228 7.369,1.842c1.561,0.391 2.227,-2.02 0.664,-2.41c-2.456,-0.614 -4.912,-1.229 -7.368,-1.843c-1.561,-0.39 -2.227,2.02 -0.665,2.411" style="fill:#010101;fill-rule:nonzero;"/><path d="M458.129,105.064c2.379,0.092 4.607,0.713 6.694,1.857c1.412,0.774 2.675,-1.384 1.262,-2.158c-2.473,-1.356 -5.138,-2.09 -7.956,-2.199c-1.609,-0.062 -1.606,2.438 0,2.5" style="fill:#010101;fill-rule:nonzero;"/><path d="M452.88,107.168l0,1.333c0,1.608 2.5,1.611 2.5,0l0,-1.333c0,-1.609 -2.5,-1.611 -2.5,0" style="fill:#010101;fill-rule:nonzero;"/><path d="M451.465,113.082l2.665,0c1.609,0 1.612,-2.5 0,-2.5l-2.665,0c-1.609,0 -1.611,2.5 0,2.5" style="fill:#010101;fill-rule:nonzero;"/><path d="M450.545,107.799l2.096,-3.872c-0.719,-0.421 -1.439,-0.842 -2.158,-1.262c-0.871,1.868 -1.395,3.786 -1.601,5.836c-0.161,1.599 2.341,1.588 2.5,0c0.159,-1.583 0.587,-3.133 1.259,-4.574c0.669,-1.435 -1.381,-2.698 -2.158,-1.262c-0.699,1.291 -1.398,2.581 -2.097,3.872c-0.766,1.415 1.392,2.679 2.159,1.262" style="fill:#010101;fill-rule:nonzero;"/><path d="M443.038,110.473c1.966,3.804 4.499,7.228 7.55,10.232c1.147,1.129 2.916,-0.637 1.767,-1.768c-2.906,-2.862 -5.286,-6.103 -7.158,-9.726c-0.739,-1.43 -2.897,-0.167 -2.159,1.262" style="fill:#010101;fill-rule:nonzero;"/><path d="M443.723,110.464c1.442,2.422 2.501,4.968 3.206,7.697c0.402,1.557 2.813,0.897 2.41,-0.664c-0.755,-2.926 -1.912,-5.698 -3.457,-8.295c-0.822,-1.381 -2.985,-0.125 -2.159,1.262" style="fill:#010101;fill-rule:nonzero;"/><path d="M438.042,60.527c0.572,-1.166 1.145,-2.333 1.717,-3.499c1.171,-1.137 -0.556,-2.793 -1.768,-1.768c-1.018,0.961 -2.193,1.504 -3.527,1.63l1.216,2.089c0.855,-0.908 1.709,-1.815 2.563,-2.722c0.952,-1.011 -0.268,-2.721 -1.515,-1.963c-1.183,0.719 -2.366,1.438 -3.549,2.157c-0.56,0.341 -0.817,1.132 -0.448,1.711c0.005,-1.076 0.01,-2.153 0.014,-3.229c-0.776,-0.21 -1.552,-0.42 -2.329,-0.631c0.438,3.536 -1.111,6.445 -4.347,7.991l1.836,1.411c0.958,-2.432 -1.222,-4.656 -3.739,-3.97c-3.807,1.038 -5.437,7.056 -6.443,10.285l2.411,0c-0.455,-2.97 -0.909,-5.939 -1.364,-8.909c-0.803,0.222 -1.607,0.444 -2.41,0.665c0.715,2.033 1.654,3.712 2.979,5.412c0.798,1.022 2.408,-0.096 2.089,-1.217c-0.633,-2.23 -1.266,-4.46 -1.9,-6.69c-0.761,0.321 -1.523,0.642 -2.285,0.963c2.096,3.096 3.482,6.308 4.293,9.958c0.349,1.569 2.76,0.905 2.411,-0.665c-0.856,-3.85 -2.335,-7.29 -4.545,-10.555c-0.766,-1.131 -2.689,-0.462 -2.285,0.964c0.634,2.23 1.267,4.46 1.901,6.69l2.089,-1.216c-1.082,-1.272 -1.861,-2.708 -2.337,-4.309c-0.543,-1.543 -2.651,-0.908 -2.41,0.665c0.454,2.97 0.909,5.939 1.363,8.908c0.199,1.299 2.076,1.075 2.411,0c0.502,-1.611 1.068,-3.186 1.817,-4.704c0.216,-0.465 0.457,-0.917 0.721,-1.356c0.441,-1.113 1.382,-1.641 2.823,-1.583c-0.44,1.116 0.962,1.829 1.836,1.411c3.968,-1.895 6.128,-5.771 5.585,-10.149c-0.132,-1.066 -1.749,-1.903 -2.329,-0.631c-1.064,2.334 -2.063,7.138 1.904,7.492c2.413,0.214 3.58,-2.411 2.399,-4.263c-0.15,0.57 -0.299,1.14 -0.449,1.71c1.183,-0.719 2.366,-1.438 3.549,-2.158c-0.505,-0.654 -1.01,-1.308 -1.515,-1.963c-0.854,0.907 -1.708,1.815 -2.563,2.722c-0.891,0.947 0.011,2.321 1.217,2.089c1.877,-0.361 3.181,-1.046 4.63,-2.272l-1.768,-1.768c-1.635,1.588 -2.251,3.006 -2.449,5.267c-0.14,1.602 2.361,1.593 2.5,0" style="fill:#010101;fill-rule:nonzero;"/><path d="M410.581,81.066c-2.181,0.367 -4.332,0.19 -6.445,-0.446c-1.326,-0.399 -2.268,1.677 -0.963,2.285c1.9,0.884 3.8,1.769 5.7,2.654c1.449,0.674 2.72,-1.48 1.261,-2.159c-1.9,-0.885 -3.799,-1.769 -5.699,-2.654l-0.964,2.285c2.561,0.77 5.143,0.889 7.775,0.446c1.583,-0.267 0.911,-2.677 -0.665,-2.411" style="fill:#010101;fill-rule:nonzero;"/><path d="M458.938,76.713c0.2,-1.992 0.81,-3.753 1.872,-5.45c0.498,-0.795 1.248,-1.378 1.249,-2.382c0.002,-1.146 -0.734,-1.897 -1.926,-1.796c-0.404,0.034 -0.903,0.204 -1.08,0.619c-0.043,0.101 -0.086,0.202 -0.129,0.303c-0.524,1.232 0.867,2.58 1.964,1.515c0.903,-0.878 1.806,-1.757 2.709,-2.635l-2.089,-1.216c-0.962,3.151 -1.924,6.301 -2.885,9.452c-0.414,1.355 1.59,2.198 2.284,0.963c1.238,-2.199 2.101,-4.413 2.658,-6.881c0.353,-1.569 -1.932,-2.206 -2.411,-0.665c-0.901,2.897 -1.561,5.798 -2.002,8.8c-0.142,0.962 0.833,2.095 1.836,1.411c1.322,-0.901 3.157,-1.131 4.663,-0.589c0.221,-0.804 0.443,-1.607 0.665,-2.411c-1.657,-0.535 -3.313,-1.07 -4.97,-1.606c-0.11,0.819 -0.221,1.637 -0.332,2.456c1.379,0.074 2.594,0.517 3.647,1.33c0.647,0.414 1.681,0.03 1.837,-0.747c-0.371,0.265 -0.741,0.529 -1.111,0.793c-0.186,0.566 -0.372,1.132 -0.558,1.698c-0.31,0.943 -0.619,1.887 -0.929,2.83c0.804,0.222 1.607,0.443 2.411,0.665c0.261,-0.525 0.214,-1.068 -0.141,-1.626c-0.34,-1.488 -2.297,-0.963 -2.456,0.332c-0.095,0.779 -0.191,1.559 -0.286,2.338c0.776,-0.21 1.552,-0.421 2.329,-0.631c-0.581,-0.882 -0.978,-1.836 -1.191,-2.86c-0.291,0.512 -0.582,1.025 -0.873,1.537c1.84,-0.608 2.902,-1.439 3.853,-3.136c0.319,-0.569 0.159,-1.39 -0.448,-1.71c-0.737,-0.388 -1.474,-0.777 -2.211,-1.165c-0.1,0.761 -0.199,1.523 -0.299,2.285c0.837,-0.292 1.675,-0.585 2.512,-0.877c1.509,-0.526 0.86,-2.942 -0.665,-2.41c-0.837,0.292 -1.674,0.584 -2.511,0.876c-0.954,0.333 -1.31,1.752 -0.299,2.285l2.211,1.165c-0.15,-0.57 -0.299,-1.14 -0.449,-1.71c-0.786,0.662 -1.572,1.324 -2.359,1.987c-0.638,0.211 -1.064,0.859 -0.873,1.537c0.355,1.26 0.802,2.327 1.443,3.458c0.669,1.179 2.189,0.512 2.33,-0.631c0.095,-0.779 0.191,-1.559 0.286,-2.338c-0.818,0.111 -1.637,0.222 -2.455,0.332c0.52,2.277 1.022,4.413 3.86,4.069c1.768,-0.214 3.416,-1.746 3.331,-3.583c-0.185,-4.009 -6.197,-3.691 -7.05,-0.189c-0.382,1.571 1.91,2.19 2.411,0.665c0.593,-1.809 2.986,-6.082 1.024,-7.8c-1.246,-1.091 -2.955,-0.309 -3.248,1.15c0.612,-0.249 1.224,-0.498 1.836,-0.747c-1.601,-1.026 -3.03,-1.473 -4.909,-1.672c-1.457,-0.155 -1.611,2.042 -0.332,2.455c1.656,0.535 3.313,1.07 4.969,1.606c1.545,0.499 2.162,-1.873 0.665,-2.411c-2.36,-0.849 -4.523,-0.567 -6.59,0.842c0.612,0.47 1.224,0.941 1.836,1.411c0.442,-3.002 1.102,-5.902 2.003,-8.799c-0.804,-0.222 -1.607,-0.444 -2.411,-0.665c-0.507,2.252 -1.271,4.268 -2.405,6.284c0.761,0.321 1.523,0.642 2.284,0.963c0.962,-3.15 1.924,-6.301 2.886,-9.451c0.372,-1.22 -1.217,-2.065 -2.09,-1.216c-0.903,0.878 -1.806,1.756 -2.709,2.634c0.654,0.505 1.309,1.01 1.963,1.515c-0.596,-0.046 -1.192,-0.091 -1.788,-0.137c-0.349,0.417 -0.657,0.86 -0.925,1.332c-0.338,0.555 -0.631,1.131 -0.885,1.73c-0.617,1.461 -0.889,2.952 -1.047,4.519c-0.161,1.599 2.34,1.588 2.5,0" style="fill:#010101;fill-rule:nonzero;"/><path d="M460.656,77.513c0.801,-2.126 2.234,-3.952 4.1,-5.245c1.314,-0.91 0.066,-3.078 -1.261,-2.159c-2.44,1.69 -4.204,3.963 -5.25,6.739c-0.567,1.508 1.848,2.159 2.411,0.665" style="fill:#010101;fill-rule:nonzero;"/><path d="M461.677,76.735c1.111,-0.888 2.221,-1.777 3.332,-2.665c0.527,-0.422 0.44,-1.328 0,-1.768c-0.522,-0.521 -1.239,-0.423 -1.768,0c-1.111,0.888 -2.221,1.777 -3.332,2.665c-0.527,0.422 -0.44,1.328 0,1.768c0.522,0.521 1.239,0.423 1.768,0" style="fill:#010101;fill-rule:nonzero;"/><path d="M337.025,413.721c-11.832,-9.619 -17.682,-25.012 -16.089,-40.111c1.705,-16.159 12.521,-29.286 27.691,-34.822c14.721,-5.372 31.935,-3.266 43.838,7.324c14.207,12.639 16.085,34.524 5.491,50.038c-13.144,19.249 -37.456,22.556 -58.939,18.914c-1.574,-0.267 -2.25,2.142 -0.665,2.411c20.223,3.428 42.906,1.245 57.508,-14.656c12.697,-13.828 15.5,-35.421 4.727,-51.265c-20.318,-29.885 -70.165,-20.5 -80.416,13.253c-5.463,17.989 0.449,38.783 15.086,50.682c1.238,1.006 3.017,-0.752 1.768,-1.768" style="fill:#010101;fill-rule:nonzero;"/><path d="M343.271,339.581c-7.121,-4.212 -10.709,-12.575 -7.701,-20.529c2.616,-6.92 9.482,-10.681 16.377,-12.123c6.664,-1.394 14.287,-0.984 20.102,2.871c3.576,2.372 6.056,6.045 7.324,10.108c0.858,2.75 2.718,10.651 -1.575,11.301c-1.586,0.241 -0.912,2.65 0.664,2.411c8.388,-1.271 3.333,-16.032 0.609,-20.204c-5.45,-8.345 -15.968,-10.648 -25.311,-9.332c-8.645,1.218 -17.433,5.676 -20.601,14.303c-3.319,9.04 0.766,18.571 8.85,23.353c1.388,0.821 2.647,-1.34 1.262,-2.159" style="fill:#010101;fill-rule:nonzero;"/><path d="M350.709,305.251c-9.915,-3.759 -6.177,-17.273 2.73,-19.401c9.633,-2.301 16.68,8.161 12.366,16.61c-0.73,1.43 1.426,2.697 2.159,1.262c5.572,-10.913 -4.166,-23.817 -16.253,-19.986c-10.935,3.466 -13.14,19.575 -1.667,23.926c1.506,0.571 2.157,-1.845 0.665,-2.411" style="fill:#010101;fill-rule:nonzero;"/><path d="M347.524,287.726c-0.635,-4.964 -0.91,-9.942 -0.651,-14.945c0.121,-2.318 -0.295,-7.126 0.996,-8.967c1.374,-1.959 4.842,-1.465 7.063,-1.538c1.797,-0.058 5.436,-0.719 7.067,0.055c1.989,0.943 1.007,3.154 0.775,5.434c-0.541,5.309 -1.082,10.617 -1.623,15.926c-0.163,1.599 2.338,1.588 2.5,0c0.509,-4.996 1.018,-9.993 1.527,-14.989c0.208,-2.033 1.491,-5.966 0.136,-7.762c-0.96,-1.272 -2.814,-1.082 -4.198,-1.152c-4.708,-0.237 -9.434,0.071 -14.111,0.602c-0.513,0.058 -1.099,0.344 -1.205,0.918c-1.629,8.789 -1.911,17.543 -0.776,26.418c0.201,1.574 2.704,1.594 2.5,0" style="fill:#010101;fill-rule:nonzero;"/><path d="M337.122,417.439c-2.924,-0.472 -5.562,-0.105 -8.238,1.184c-0.674,0.324 -0.858,1.481 -0.253,1.963c3.808,3.036 8.642,4.032 13.307,2.519c1.524,-0.495 0.872,-2.91 -0.665,-2.411c-3.761,1.22 -7.752,0.614 -10.874,-1.876c-0.084,0.654 -0.169,1.309 -0.253,1.963c2.015,-0.97 4.093,-1.29 6.311,-0.931c1.574,0.254 2.252,-2.155 0.665,-2.411" style="fill:#010101;fill-rule:nonzero;"/><path d="M390.52,413.656c1.253,-0.294 2.509,-0.285 3.739,0.123c0.838,0.278 1.511,0.713 2.191,1.264c0.519,0.42 0.652,0.384 0.319,0.597c-0.711,0.456 -3.464,-0.419 -4.301,-0.543c-1.544,-0.23 -3.089,-0.459 -4.634,-0.689c-1.574,-0.234 -2.253,2.175 -0.664,2.411c2.962,0.44 6.018,1.155 9.008,1.321c1.474,0.082 3.307,-0.421 3.436,-2.183c0.131,-1.787 -1.834,-3.237 -3.216,-3.967c-2.042,-1.08 -4.317,-1.266 -6.543,-0.745c-1.565,0.367 -0.903,2.778 0.665,2.411" style="fill:#010101;fill-rule:nonzero;"/><path d="M355.811,317.628c0.383,-2.862 4.248,-3.374 6.111,-1.693c1.786,1.612 2.295,4.636 1.587,6.876c-2.134,6.756 -12.869,-1.069 -8.751,-5.167c0.571,-0.568 -0.313,-1.452 -0.884,-0.884c-5.528,5.501 7.646,14.72 10.65,6.955c1.261,-3.258 0.287,-8.146 -3.197,-9.644c-2.83,-1.216 -6.351,0.455 -6.766,3.557c-0.106,0.795 1.145,0.787 1.25,0" style="fill:#010101;fill-rule:nonzero;"/><path d="M333.11,318.552c-7.624,-1.04 -15.218,-1.268 -22.891,-0.653c-0.796,0.064 -0.803,1.315 0,1.25c7.554,-0.606 15.048,-0.416 22.559,0.608c0.786,0.108 1.127,-1.097 0.332,-1.205" style="fill:#010101;fill-rule:nonzero;"/><path d="M331.3,322.72c-5.771,0.912 -11.542,1.824 -17.313,2.736c-0.792,0.125 -0.456,1.33 0.332,1.205c5.771,-0.912 11.542,-1.824 17.313,-2.736c0.793,-0.125 0.456,-1.33 -0.332,-1.205" style="fill:#010101;fill-rule:nonzero;"/><path d="M375.505,311.667c7.329,-0.221 14.659,-0.442 21.988,-0.663c0.803,-0.024 0.806,-1.275 0,-1.25c-7.329,0.221 -14.659,0.442 -21.988,0.663c-0.803,0.024 -0.806,1.274 0,1.25" style="fill:#010101;fill-rule:nonzero;"/><path d="M380.288,318.687c3.087,-0.423 6.097,-0.039 9.005,1.068c0.752,0.287 1.077,-0.921 0.332,-1.205c-3.137,-1.195 -6.348,-1.523 -9.669,-1.068c-0.794,0.108 -0.456,1.313 0.332,1.205" style="fill:#010101;fill-rule:nonzero;"/><path d="M344.015,288.609c0.215,-2.813 1.441,-4.162 3.678,-4.046c1.144,-0.165 2.289,-0.32 3.435,-0.465c1.535,-0.204 3.07,-0.421 4.609,-0.597c4.402,-0.501 11.508,-0.78 11.932,5.481c0.109,1.596 2.609,1.608 2.5,0c-0.79,-11.661 -18.175,-8.482 -25.511,-6.408c-2.793,0.789 -6.205,3.422 -4.78,6.79c1.068,2.525 4.116,2.73 5.905,1.013c1.162,-1.117 -0.607,-2.883 -1.768,-1.768" style="fill:#010101;fill-rule:nonzero;"/><path d="M351.518,293.653c1.609,0 1.611,-2.5 0,-2.5c-1.609,0 -1.611,2.5 0,2.5" style="fill:#010101;fill-rule:nonzero;"/><path d="M357.515,294.985c1.609,0 1.611,-2.5 0,-2.5c-1.609,0 -1.611,2.5 0,2.5" style="fill:#010101;fill-rule:nonzero;"/><path d="M352.851,295.274c-4.178,2.523 -8.357,5.045 -12.535,7.568c-1.205,0.728 -0.423,2.66 0.963,2.285c5.084,-1.377 10.154,-2.803 15.21,-4.278c1.541,-0.449 0.885,-2.863 -0.665,-2.41c-5.056,1.475 -10.126,2.9 -15.209,4.277c0.321,0.762 0.642,1.523 0.963,2.285c4.178,-2.523 8.356,-5.046 12.535,-7.568c1.375,-0.831 0.12,-2.994 -1.262,-2.159" style="fill:#010101;fill-rule:nonzero;"/><path d="M265.135,438.811c3.551,-4.864 9.174,-7.318 14.495,-9.753c6.041,-2.766 12.224,-5.22 18.512,-7.366c11.633,-3.97 23.594,-6.815 35.742,-8.663c1.586,-0.242 0.912,-2.651 -0.664,-2.411c-13.974,2.126 -27.692,5.593 -40.946,10.519c-9.89,3.675 -22.823,7.543 -29.298,16.412c-0.949,1.301 1.219,2.55 2.159,1.262" style="fill:#010101;fill-rule:nonzero;"/><path d="M397.107,405.792c17.127,3.923 33.363,10.524 48.364,19.672c1.378,0.84 2.635,-1.322 1.262,-2.159c-15.18,-9.257 -31.629,-15.954 -48.961,-19.924c-1.567,-0.358 -2.235,2.051 -0.665,2.411" style="fill:#010101;fill-rule:nonzero;"/><path d="M191.573,412.563c32.605,-2.711 65.351,-2.754 97.964,-0.129c1.603,0.129 1.595,-2.372 0,-2.5c-32.613,-2.625 -65.359,-2.582 -97.964,0.129c-1.592,0.132 -1.606,2.634 0,2.5" style="fill:#010101;fill-rule:nonzero;"/><path d="M330.487,423.546c1.007,1.328 -0.193,3.126 -0.478,4.575c-0.231,1.175 -0.239,2.363 0.326,3.453c1.267,2.449 4.364,3.594 6.975,3.503c5.865,-0.205 9.526,-6.223 7.428,-11.593c-0.578,-1.482 -2.997,-0.837 -2.41,0.664c1.871,4.793 -2.469,10.238 -7.658,7.962c-4.861,-2.133 0.478,-6.528 -2.024,-9.826c-0.96,-1.265 -3.132,-0.021 -2.159,1.262" style="fill:#010101;fill-rule:nonzero;"/><path d="M387.074,417.738c-5.271,4.236 -1.722,12.577 4.692,12.736c7.366,0.183 10.5,-8.068 7.28,-13.896c-0.779,-1.409 -2.939,-0.149 -2.159,1.262c2.208,3.995 0.571,9.822 -4.572,10.126c-4.647,0.274 -7.211,-5.456 -3.473,-8.46c1.254,-1.008 -0.525,-2.767 -1.768,-1.768" style="fill:#010101;fill-rule:nonzero;"/><path d="M338.898,421.009c0.914,-9.326 1.828,-18.652 2.741,-27.978c0.079,-0.8 -1.172,-0.794 -1.25,0c-0.913,9.326 -1.827,18.652 -2.741,27.978c-0.078,0.8 1.172,0.795 1.25,0" style="fill:#010101;fill-rule:nonzero;"/><path d="M342.637,424.476c0.71,-4.88 1.419,-9.76 2.129,-14.64c0.114,-0.787 -1.09,-1.127 -1.205,-0.332c-0.71,4.88 -1.42,9.76 -2.129,14.64c-0.115,0.787 1.089,1.126 1.205,0.332" style="fill:#010101;fill-rule:nonzero;"/><path d="M389.22,419.314c-2.639,-6.297 -5.494,-12.492 -8.575,-18.585c-0.363,-0.718 -1.442,-0.086 -1.079,0.631c3.032,5.996 5.851,12.089 8.449,18.286c0.306,0.731 1.516,0.41 1.205,-0.332" style="fill:#010101;fill-rule:nonzero;"/><path d="M394.754,417.316c-4.285,-6.107 -6.959,-12.902 -7.914,-20.308c-0.101,-0.787 -1.353,-0.797 -1.25,0c0.985,7.636 3.66,14.632 8.085,20.939c0.458,0.654 1.542,0.03 1.079,-0.631" style="fill:#010101;fill-rule:nonzero;"/><path d="M358.675,353.316c2.321,-4.447 9.658,-3.611 9.518,1.924c-0.06,2.394 -1.681,4.497 -4.199,4.49c-2.205,-0.005 -4.234,-1.464 -4.705,-3.638c-0.171,-0.785 -1.376,-0.453 -1.206,0.333c0.603,2.78 3.312,4.631 6.112,4.549c2.933,-0.086 5.009,-2.469 5.228,-5.31c0.533,-6.936 -8.792,-8.793 -11.827,-2.979c-0.372,0.712 0.706,1.345 1.079,0.631" style="fill:#010101;fill-rule:nonzero;"/><path d="M360.413,384.75c-0.369,-2.682 1.555,-5.138 4.115,-5.808c2.614,-0.683 5.12,0.897 6.431,3.093c1.332,2.231 1.756,5.659 -0.756,7.187c-2.844,1.73 -5.744,-0.566 -7.673,-2.582c-0.557,-0.583 -1.44,0.302 -0.883,0.884c2.369,2.477 6.163,4.968 9.544,2.687c2.855,-1.925 2.399,-6.201 0.847,-8.807c-1.665,-2.797 -4.931,-4.596 -8.165,-3.56c-3.136,1.003 -5.111,3.999 -4.665,7.238c0.109,0.794 1.314,0.456 1.205,-0.332" style="fill:#010101;fill-rule:nonzero;"/><path d="M349.162,264.348c5.047,3.407 12.028,1.982 15.436,-3.021c0.454,-0.667 -0.629,-1.293 -1.079,-0.631c-3.042,4.465 -9.281,5.573 -13.726,2.573c-0.669,-0.452 -1.295,0.631 -0.631,1.079" style="fill:#010101;fill-rule:nonzero;"/><path d="M355.801,126.252c8.182,18.371 26.022,28.382 44.226,34.778c0.761,0.267 1.088,-0.94 0.333,-1.205c-17.931,-6.3 -35.418,-16.102 -43.48,-34.204c-0.326,-0.733 -1.404,-0.098 -1.079,0.631" style="fill:#010101;fill-rule:nonzero;"/><path d="M371.045,130.285c3.632,3.484 7.683,6.4 12.145,8.73c0.712,0.372 1.345,-0.706 0.631,-1.079c-4.367,-2.28 -8.336,-5.124 -11.892,-8.535c-0.581,-0.557 -1.466,0.326 -0.884,0.884" style="fill:#010101;fill-rule:nonzero;"/><path d="M37.694,151.673c-7.314,-0.852 -16.578,-2.511 -17.847,-11.263c-0.291,0.513 -0.582,1.025 -0.873,1.538c1.387,-0.254 2.774,-0.508 4.161,-0.761c0.84,-0.154 1.085,-1.179 0.748,-1.837c-6.582,-12.836 1.001,-29.182 8.914,-39.668l-1.963,0.253c2.057,2.628 4.114,5.255 6.171,7.883c1.357,1.732 2.982,4.904 5.302,5.589c2.121,0.625 3.448,-0.521 4.662,-2.135c1.989,-2.645 4.531,-7.72 7.456,0.421c0.912,2.539 1.104,5.237 2.197,7.771c1.882,4.367 4.765,8.035 8.373,11.101c0.403,0.343 1.033,0.52 1.514,0.196c1.546,-1.043 3.092,-2.086 4.637,-3.128c-0.612,-0.249 -1.224,-0.498 -1.836,-0.747c0.657,2.905 2.189,5.373 4.733,7.014c3.376,2.179 8.261,0.477 11.254,2.847c1.8,1.426 1.605,3.857 4.281,4.464c1.727,0.393 3.066,-0.3 4.421,-1.299c0.497,-0.366 0.89,-0.848 1.354,-1.253c1.788,-1.561 1.723,-3.129 4.179,-1.401c2.257,1.589 0.813,2.6 1.948,4.613c0.339,0.601 0.81,1.146 1.457,1.453c2.545,1.205 3.607,-1.458 5.724,-1.637c1.86,-0.157 3.35,4.019 5.603,4.887c2.239,0.863 4.355,0.276 6.105,-1.236c1.22,-1.053 -0.555,-2.815 -1.768,-1.767c-5.099,4.403 -4.903,-3.805 -7.284,-4.872c-1.267,-0.567 -2.375,0.017 -3.505,0.565c-1.697,0.822 -3.015,3.182 -4.315,0.296c-0.297,-0.66 0.073,-1.974 -0.04,-2.683c-0.25,-1.578 -0.806,-2.968 -2.41,-3.592c-1.838,-0.715 -3.895,0.353 -5.313,1.424c-0.794,0.599 -1.36,1.646 -2.149,2.182c-5.14,3.496 -4.837,-0.071 -6.717,-2.244c-1.244,-1.439 -2.401,-1.878 -4.331,-1.869c-5.186,0.025 -9.436,-0.454 -10.816,-6.557c-0.171,-0.754 -1.184,-1.187 -1.837,-0.747c-0.832,0.562 -3.04,2.589 -4.256,2.359c-0.85,-0.161 -3.561,-3.883 -3.771,-4.171c-1.684,-2.316 -3.006,-4.92 -3.875,-7.646c-1.166,-3.661 -0.921,-9.215 -5.086,-11.079c-2.834,-1.269 -4.953,0.301 -6.557,2.566c-0.381,0.538 -0.719,1.752 -1.272,2.124c-2.943,1.975 -4.439,-1.208 -5.733,-2.86c-2.244,-2.867 -4.488,-5.733 -6.733,-8.6c-0.55,-0.702 -1.538,-0.309 -1.963,0.253c-8.508,11.275 -15.939,28.49 -8.914,42.192c0.249,-0.612 0.498,-1.224 0.747,-1.836c-1.387,0.254 -2.775,0.507 -4.162,0.761c-0.721,0.132 -0.963,0.92 -0.873,1.538c1.437,9.908 11.892,12.123 20.258,13.098c1.595,0.186 1.582,-2.316 0,-2.5" style="fill:#010101;fill-rule:nonzero;"/><path d="M40.317,299.378c-6.491,0.803 -11.916,3.715 -15.984,8.882c-0.607,0.772 -0.309,2.201 0.884,2.134c1.636,-0.091 1.88,-0.18 3.499,-0.424c0.944,-0.158 1.889,-0.317 2.834,-0.476c0.848,1.436 1.696,2.871 2.544,4.307c-0.018,1.583 -1.947,4.341 -2.233,6.073c-0.558,3.391 0.121,6.37 2.597,8.783c0.395,0.385 1.035,0.481 1.515,0.195c2.265,-1.347 2.707,-6.234 5.079,-3.251c1.585,1.993 1.603,3.999 4.272,4.936c0.435,0.152 0.891,-0.04 1.216,-0.322c1.176,-1.018 2.352,-2.037 3.528,-3.055c-0.655,-0.085 -1.309,-0.169 -1.963,-0.253c2.662,4.016 7.705,8.842 12.124,4.267c2.413,-2.497 3.942,-5.05 8.143,-3.639c2.587,0.869 4.528,2.875 6.445,4.715c2.59,2.487 5.245,4.993 8.883,5.736c2.635,0.538 5.45,0.175 7.888,-0.934c1.564,-0.711 2.601,-1.715 3.933,-2.722c1.912,-1.446 2.68,-1.706 5.058,-0.616c2.66,1.219 4.084,2.044 7.176,1.389c4.673,-0.992 8.827,-3.211 13.643,-3.868c1.587,-0.216 0.911,-2.625 -0.665,-2.41c-4.384,0.598 -8.094,2.459 -12.308,3.509c-2.901,0.724 -4.404,0.744 -6.854,-1.225c-0.761,-0.612 -1.168,-1.495 -2.166,-1.828c-1.793,-0.598 -2.856,0.148 -4.101,1.316c-3.48,3.264 -6.16,6.215 -11.56,4.818c-6.6,-1.706 -9.364,-9.525 -16.369,-10.695c-2.057,-0.343 -4.141,-0.157 -5.884,1.052c-1.202,0.834 -1.573,2.206 -2.615,3.042c-4.161,3.335 -6.6,-0.133 -8.613,-3.169c-0.467,-0.705 -1.332,-0.799 -1.963,-0.253c-1.502,1.301 -2.219,2.668 -4.031,1.094c-0.641,-0.557 -0.795,-1.836 -1.264,-2.565c-0.584,-0.911 -1.111,-1.957 -2.191,-2.367c-1.082,-0.412 -2.163,-0.17 -3.083,0.516c-0.416,0.311 -0.683,0.765 -0.986,1.182c-0.913,1.256 -0.159,3.03 -1.73,1.923c-3.027,-2.133 0.64,-8.638 1.619,-10.816c0.688,-1.53 1.25,-2.878 0.479,-4.501c-2.16,-4.554 -8.312,-2.163 -11.896,-1.964c0.294,0.712 0.589,1.423 0.884,2.134c3.608,-4.584 8.398,-7.43 14.216,-8.15c1.576,-0.195 1.595,-2.697 0,-2.5" style="fill:#010101;fill-rule:nonzero;"/><path d="M101.713,161.737c-3.784,5.719 -8.085,15.641 -4.313,22.341c2.384,4.236 8.642,4.736 10.643,-0.02c0.623,-1.481 -1.795,-2.128 -2.411,-0.665c-2.207,5.246 -6.813,-1.437 -6.982,-4.216c-0.106,-1.748 0.166,-3.597 0.52,-5.286c0.825,-3.941 2.486,-7.544 4.702,-10.892c0.89,-1.346 -1.274,-2.599 -2.159,-1.262" style="fill:#010101;fill-rule:nonzero;"/><path d="M95.415,160.234c-6.364,7.99 -10.716,21.029 -5.768,30.837c5.931,11.755 16.847,0.919 21.131,-5.976c0.852,-1.371 -1.31,-2.628 -2.158,-1.262c-1.796,2.89 -4.936,7.808 -8.353,9.087c-7.162,2.681 -9.613,-4.408 -9.946,-9.957c-0.459,-7.635 2.125,-15.015 6.862,-20.961c0.992,-1.246 -0.765,-3.027 -1.768,-1.768" style="fill:#010101;fill-rule:nonzero;"/><path d="M38.577,153.546c4.302,4.237 7.109,9.199 8.539,15.065c0.266,1.093 1.722,1.165 2.284,0.299c1.223,-1.882 2.639,-4.242 5.206,-3.515c0.999,0.283 1.745,1.64 2.843,1.97c1.641,0.494 2.655,0.016 3.418,-1.514l-2.159,0c1.64,3.275 3.379,10.532 7.517,11.645c2.812,0.756 5.082,-2.898 7.845,-3.541c2.636,-0.613 4.35,1.139 6.549,0.159c3.202,-1.426 6.272,-5.751 8.872,-8.045c2.199,-1.941 4.447,-3.88 6.898,-5.498c0.922,-0.609 1.885,-1.281 2.912,-1.703c0.516,-0.249 1.051,-0.44 1.606,-0.571c1.536,-0.415 1.926,0.618 1.172,3.098c-1.287,0.939 -0.041,3.109 1.261,2.158c3.289,-2.399 2.331,-7.959 -2.199,-7.811c-4.591,0.151 -9.409,5.072 -12.631,7.869c-2.176,1.889 -4.274,3.864 -6.383,5.827c-0.638,0.594 -1.598,1.865 -2.404,2.203c-1.111,0.464 -1.739,-0.177 -3.126,-0.346c-1.567,-0.192 -3.164,0.177 -4.613,0.743c-1.678,0.655 -3.932,3.162 -5.883,2.389c-2.426,-0.961 -4.123,-7.619 -5.234,-9.838c-0.408,-0.815 -1.752,-0.817 -2.159,0c-0.159,0.32 -4.895,-2.739 -6.233,-2.524c-2.62,0.42 -3.979,3.652 -5.233,5.583c0.761,0.1 1.523,0.199 2.284,0.299c-1.528,-6.271 -4.582,-11.639 -9.181,-16.169c-1.148,-1.13 -2.917,0.637 -1.768,1.768" style="fill:#010101;fill-rule:nonzero;"/><path d="M41.836,301.758c-0.174,-4.993 2.763,-9 7.598,-10.292c-0.513,-0.512 -1.026,-1.025 -1.538,-1.537c-1.758,4.703 -0.698,9.331 2.804,12.896c0.464,0.471 1.306,0.488 1.768,0c0.594,-0.629 1.362,-1.83 2.116,-2.239c1.636,-0.887 2.041,-0.113 3.092,0.564c1.037,0.667 1.703,1.672 2.847,2.29c2.237,1.21 4.987,1.63 7.476,1.032c3.095,-0.745 4.844,-4.47 7.556,-5.107c4.033,-0.947 7.197,10.561 8.465,13.412c0.229,0.515 0.914,0.686 1.412,0.574c1.609,-0.361 1.569,-1.103 2.487,-2.277c2.362,-3.021 3.743,-0.734 6.901,-0.264c4.456,0.663 4.753,-2.513 7.436,-4.934c7.259,-6.552 5.81,3.562 10.794,4.739c3.032,0.716 5.657,-1.176 6.625,-3.912c-0.612,0.249 -1.224,0.498 -1.836,0.747c0.42,0.757 0.84,1.514 1.26,2.271c0.156,1.587 2.658,1.603 2.5,0c-0.213,-2.168 -0.763,-3.121 -2.498,-4.43c-0.694,-0.523 -1.598,0.071 -1.837,0.747c-1.184,3.348 -4.447,1.772 -5.632,-0.065c-0.564,-0.875 -0.639,-2.034 -1.082,-2.974c-0.433,-0.916 -0.858,-1.783 -1.69,-2.418c-2.651,-2.022 -5.55,-0.259 -7.388,1.917c-2.146,2.543 -2.873,5.625 -7.17,5.574c-1.607,-0.019 -3.063,-1.609 -4.802,-1.488c-1.032,0.071 -1.879,0.424 -2.619,1.158c-1.815,1.804 -0.888,3.354 -2.541,-0.362c-1.319,-2.965 -2.548,-8.872 -5.745,-10.484c-2.792,-1.407 -5.13,0.884 -7.102,2.587c-2.757,2.381 -5.731,3.62 -9.285,1.949c-2.172,-1.021 -2.829,-3.366 -4.733,-4.41c-2.825,-1.55 -5.157,2.324 -6.775,4.035l1.768,0c-2.902,-2.954 -3.584,-6.656 -2.161,-10.464c0.344,-0.922 -0.683,-1.766 -1.538,-1.538c-5.862,1.566 -9.644,6.633 -9.433,12.703c0.056,1.604 2.556,1.612 2.5,0" style="fill:#010101;fill-rule:nonzero;"/><path d="M97.148,161.967c1.11,-1.111 2.221,-2.221 3.331,-3.332c1.139,-1.139 -0.628,-2.908 -1.768,-1.768l-3.331,3.332c-1.139,1.139 0.629,2.908 1.768,1.768" style="fill:#010101;fill-rule:nonzero;"/><path d="M109.533,182.793c0.015,0.073 0.018,-0.141 0.004,-0.113c0.078,-0.165 0.069,-0.142 0.224,-0.227l-1.262,0c0.214,0.117 0.296,0.176 0.421,0.347c-0.042,-0.057 0.107,0.207 0.06,0.089c0.013,0.034 0.103,0.372 0.087,0.24c0.081,0.67 0.517,1.25 1.25,1.25c0.613,0 1.332,-0.575 1.25,-1.25c-0.09,-0.744 -0.303,-1.382 -0.778,-1.974c-0.419,-0.522 -1.111,-1.117 -1.825,-1.009c-1.477,0.222 -2.11,2.031 -1.842,3.312c0.139,0.661 0.916,1.044 1.538,0.873c0.685,-0.189 1.012,-0.875 0.873,-1.538" style="fill:#010101;fill-rule:nonzero;"/><path d="M103.09,158.446c0.861,-0.488 2.091,-0.024 2.384,0.932c0.471,1.533 2.885,0.879 2.411,-0.665c-0.768,-2.5 -3.772,-3.721 -6.057,-2.426c-1.399,0.794 -0.141,2.954 1.262,2.159" style="fill:#010101;fill-rule:nonzero;"/><path d="M434.181,318.378c-0.524,-36.447 -1.993,-72.872 -4.406,-109.243c-0.053,-0.798 -1.303,-0.804 -1.25,0c2.413,36.371 3.882,72.796 4.406,109.243c0.012,0.804 1.262,0.806 1.25,0" style="fill:#010101;fill-rule:nonzero;"/><path d="M442.303,283.735c-0.674,-25.541 -0.575,-51.091 0.298,-76.626c0.028,-0.804 -1.222,-0.803 -1.25,0c-0.873,25.535 -0.972,51.085 -0.298,76.626c0.021,0.803 1.271,0.806 1.25,0" style="fill:#010101;fill-rule:nonzero;"/></svg>