<?xml version="1.0" standalone="no"?><!DOCTYPE svg PUBLIC "-//W3C//DTD SVG 1.1//EN" "http://www.w3.org/Graphics/SVG/1.1/DTD/svg11.dtd"><svg width="100%" height="100%" viewBox="0 0 449 432" version="1.1" xmlns="http://www.w3.org/2000/svg" xmlns:xlink="http://www.w3.org/1999/xlink" xml:space="preserve" style="fill-rule:evenodd;clip-rule:evenodd;stroke-miterlimit:10;"><path d="M317.787,224.877c-0.99,7.584 -0.567,15.841 -5.177,22.353c-0.933,1.32 1.236,2.567 2.158,1.262c4.869,-6.877 4.474,-15.609 5.519,-23.615c0.208,-1.595 -2.294,-1.575 -2.5,0" style="fill:#010101;fill-rule:nonzero;"/><path d="M59.714,338.042c-7.005,-2.438 -16.917,-1.349 -18.638,7.082c-2.55,12.496 18.778,10.361 25.165,11.653c0.78,0.157 1.192,-1.024 0.404,-1.183c-7.23,-1.462 -14.537,0.198 -21.338,-3.773c-7.556,-4.411 -1.088,-12.075 4.433,-13.347c3.118,-0.719 6.585,-0.287 9.57,0.751c0.762,0.265 1.164,-0.919 0.404,-1.183" style="fill:#010101;fill-rule:nonzero;"/><path d="M285.642,371.199c2.27,6.697 0.934,15.682 -7.485,16.573c-8.268,0.875 -11.936,-9.616 -13.811,-15.821c-2.298,-7.61 -3.602,-17.285 3.788,-22.27c9.454,-6.377 9.907,11.08 7.1,15.857c-0.403,0.685 0.741,1.176 1.14,0.498c3.001,-5.108 3.606,-18.122 -4.725,-18.723c-3.791,-0.273 -7.42,3.321 -8.984,6.385c-2.422,4.743 -1.262,11.215 -0.148,16.139c1.808,8.002 5.903,19.3 15.778,19.167c9.41,-0.127 10.816,-11.426 8.505,-18.241c-0.258,-0.761 -1.414,-0.319 -1.158,0.436" style="fill:#010101;fill-rule:nonzero;"/><path d="M269.774,348.333c3.382,-2.26 6.995,-4.013 11.008,-1.373c3.238,2.13 3.928,7.879 4.324,11.321c0.511,4.444 -0.941,8.835 0.631,13.147c0.275,0.755 1.432,0.315 1.158,-0.436c-1.479,-4.06 -0.312,-8.6 -0.556,-12.839c-0.222,-3.845 -1.407,-7.712 -3.569,-10.906c-3.4,-5.019 -9.821,-2.532 -13.724,0.078c-0.665,0.444 0.068,1.45 0.728,1.008" style="fill:#010101;fill-rule:nonzero;"/><path d="M281.509,230.978c-6.52,-3.328 -13.714,-14.156 -21.491,-7.352c-7.71,6.746 1.12,18.571 5.712,24.183c4.742,5.794 13.295,17.552 21.757,11.201c8.286,-6.22 -8.516,-17.408 -11.846,-20.254c-0.607,-0.519 -1.509,0.347 -0.895,0.874c3.542,3.026 21.558,15.443 9.303,19.814c-6.86,2.447 -14.446,-8.87 -18.115,-13.353c-4.798,-5.863 -12.237,-16.988 -3.41,-22.825c5.873,-3.885 13.591,6.358 18.341,8.784c0.715,0.363 1.363,-0.705 0.644,-1.072" style="fill:#010101;fill-rule:nonzero;"/><path d="M290.304,254.082c7.163,-9.686 -0.662,-18 -9.079,-23.327c-0.683,-0.432 -1.325,0.641 -0.644,1.072c7.739,4.896 15.441,12.43 8.65,21.612c-0.479,0.648 0.597,1.286 1.073,0.643" style="fill:#010101;fill-rule:nonzero;"/><path d="M131.914,63.176c-9.199,-1.128 -18.306,0.633 -25.719,6.369c-5.922,4.582 -9.242,12.029 -8.251,19.467c1.127,8.46 7.797,14.593 14.845,18.705c0.313,-0.242 0.637,-0.463 0.968,-0.671c0.126,-0.151 0.254,-0.301 0.39,-0.444c0.145,-0.237 0.315,-0.468 0.5,-0.696c-6.514,-3.682 -12.277,-8.757 -14.079,-16.317c-1.509,-6.331 1.479,-12.623 5.918,-16.988c5.312,-5.224 13.004,-7.228 20.25,-7.305c4.704,-0.05 9.26,1.105 13.726,2.461c3.589,1.089 12.58,4.268 12.794,9.309c0.069,1.606 2.569,1.613 2.5,0c-0.393,-9.268 -17.036,-13.055 -23.842,-13.89" style="fill:#010101;fill-rule:nonzero;"/><path d="M136.572,89.091c1.146,-3.701 -1.394,-7.718 -5.682,-8.967c-4.287,-1.251 -8.694,0.732 -9.844,4.442c-1.148,3.701 1.397,7.717 5.684,8.967c4.287,1.254 8.692,-0.735 9.842,-4.442" style="fill:#010101;fill-rule:nonzero;"/><path d="M196.605,39.52c-0.072,0.011 -0.139,0.029 -0.211,0.041c0.128,0.107 0.268,0.198 0.385,0.318c0.431,0.445 0.761,0.937 1.01,1.463c0.134,0.168 0.27,0.335 0.379,0.521c3.242,-0.041 6.532,0.955 9.244,2.636c6.195,3.843 6.556,12.235 4.132,18.336c-0.595,1.5 1.824,2.145 2.412,0.665c4.778,-12.031 -3.42,-26.088 -17.351,-23.98" style="fill:#010101;fill-rule:nonzero;"/><path d="M280.57,157.986c0,-25.7 -21.478,-46.535 -47.977,-46.535c-26.499,0 -47.975,20.835 -47.975,46.535c0,25.703 21.476,46.538 47.975,46.538c26.499,0 47.977,-20.835 47.977,-46.538Z" style="fill:none;stroke-width:1.5px;stroke:#010101;"/><path d="M270.064,174.025c-2.45,0 -4.437,-1.93 -4.437,-4.305c0,-2.381 1.987,-4.309 4.437,-4.309c2.457,0 4.443,1.928 4.443,4.309c0,2.375 -1.986,4.305 -4.443,4.305M263.752,149.135c-8.664,0 -15.684,6.81 -15.684,15.214c0,8.404 7.02,15.214 15.684,15.214c8.661,0 15.684,-6.81 15.684,-15.214c0,-8.404 -7.023,-15.214 -15.684,-15.214" style="fill:#010101;fill-rule:nonzero;"/><path d="M296.676,172.571c0.508,-0.069 1.015,-0.138 1.522,-0.208c-0.11,-0.401 -0.221,-0.803 -0.332,-1.205c-8.499,2.571 -20.229,9.487 -20.485,19.528c-0.28,10.962 13.67,12.431 21.404,11.564c5.64,-0.632 11.152,-2.184 16.667,-3.46c4.613,-1.068 10.65,-0.427 14.893,-2.622c11.407,-5.904 -2.29,-18.853 -7.858,-23.035c-0.645,-0.485 -1.266,0.601 -0.63,1.079c3.787,2.844 7.3,6.023 9.882,10.03c2.128,3.301 2.286,7.931 -1.16,10.398c-1.859,1.331 -4.795,1.392 -6.946,1.595c-7.256,0.685 -14.201,2.887 -21.346,4.225c-8.485,1.588 -22.567,1.889 -23.656,-9.774c-0.852,-9.126 12.385,-16.149 19.567,-18.323c0.795,-0.24 0.444,-1.311 -0.332,-1.205c-0.507,0.069 -1.014,0.138 -1.522,0.208c-0.796,0.108 -0.456,1.312 0.332,1.205" style="fill:#010101;fill-rule:nonzero;"/><path d="M333.87,167.579c0,-5.906 -8.915,-10.689 -19.902,-10.689c-10.994,0 -19.904,4.783 -19.904,10.689c0,5.906 8.91,10.691 19.904,10.691c10.987,0 19.902,-4.785 19.902,-10.691" style="fill:#010101;fill-rule:nonzero;"/><path d="M315.938,198.421c0.113,7.947 3.721,25.704 -5.982,29.581c-7.593,3.033 -11.799,-5.159 -12.519,-11.163c-0.592,-4.932 0.083,-10.199 1.536,-14.928c0.237,-0.772 -0.969,-1.1 -1.205,-0.332c-2.928,9.527 -3.801,28.746 10.679,28.007c12.682,-0.647 8.848,-23.589 8.741,-31.165c-0.012,-0.805 -1.262,-0.807 -1.25,0" style="fill:#010101;fill-rule:nonzero;"/><path d="M316.121,224.052c13.839,2.987 8.439,-19.306 8.439,-26.516c0,-0.806 -1.25,-0.806 -1.25,0c0,6.424 5.138,27.9 -6.857,25.311c-0.786,-0.17 -1.12,1.035 -0.332,1.205" style="fill:#010101;fill-rule:nonzero;"/><path d="M355.057,168.432c-2.451,0 -4.439,-1.928 -4.439,-4.304c0,-2.38 1.988,-4.311 4.439,-4.311c2.453,0 4.442,1.931 4.442,4.311c0,2.376 -1.989,4.304 -4.442,4.304M348.743,143.544c-8.661,0 -15.682,6.808 -15.682,15.211c0,8.404 7.021,15.215 15.682,15.215c8.66,0 15.686,-6.811 15.686,-15.215c0,-8.403 -7.026,-15.211 -15.686,-15.211" style="fill:#010101;fill-rule:nonzero;"/><path d="M318.332,227.596c-2.541,15.62 -8.882,30.174 -18.713,42.588c-0.989,1.248 0.769,3.029 1.767,1.768c10.113,-12.77 16.739,-27.604 19.357,-43.691c0.256,-1.574 -2.153,-2.251 -2.411,-0.665" style="fill:#010101;fill-rule:nonzero;"/><path d="M272.484,82.383c-15.785,-7.052 -32.003,-13.524 -49.077,-16.652c-15.544,-2.848 -32.745,-3.576 -47.286,3.42c-1.449,0.698 -0.183,2.854 1.262,2.159c14.924,-7.18 33.15,-5.803 48.941,-2.461c15.569,3.295 30.413,9.221 44.898,15.693c1.457,0.65 2.73,-1.503 1.262,-2.159" style="fill:#010101;fill-rule:nonzero;"/><path d="M325.209,158.889c-1.222,-19.001 -8.039,-36.901 -19.807,-51.871c-0.994,-1.264 -2.752,0.516 -1.768,1.768c11.33,14.412 17.899,31.821 19.075,50.103c0.103,1.598 2.603,1.609 2.5,0" style="fill:#010101;fill-rule:nonzero;"/><path d="M304.225,271.076c-26.57,-10.616 -55.46,-8.617 -83.366,-6.371c-1.593,0.128 -1.607,2.629 0,2.5c27.698,-2.229 56.325,-4.257 82.701,6.282c1.494,0.597 2.143,-1.82 0.665,-2.411" style="fill:#010101;fill-rule:nonzero;"/><path d="M72.325,182.771c-5.888,18.618 -10.044,37.62 -13.875,56.748c-3.692,18.44 -6.878,36.672 -6.147,55.554c1.173,30.262 8.506,62.386 29.087,85.606c9.797,11.053 24.137,16.635 37.85,21.114c17.706,5.784 35.869,9.448 54.409,11.206c19.715,1.87 39.677,1.789 59.436,0.65c18.146,-1.046 36.046,-4.132 53.251,-10.07c14.462,-4.991 28.764,-11.598 40.285,-21.856c12.513,-11.141 19.79,-25.997 21.761,-42.577c0.189,-1.595 -2.312,-1.581 -2.5,0c-1.862,15.667 -8.813,29.731 -20.522,40.349c-10.21,9.259 -22.852,15.502 -35.688,20.245c-33.184,12.263 -69.528,13.573 -104.545,11.619c-18.602,-1.038 -37.176,-3.725 -55.11,-8.852c-14.379,-4.112 -29.815,-8.833 -41.564,-18.449c-11.719,-9.592 -19.577,-24.712 -24.601,-38.733c-5.072,-14.154 -7.706,-29.105 -8.721,-44.077c-1.364,-20.134 1.409,-39.47 5.352,-59.177c3.953,-19.759 8.17,-39.402 14.253,-58.635c0.486,-1.538 -1.927,-2.196 -2.411,-0.665" style="fill:#010101;fill-rule:nonzero;"/><path d="M176.889,68.269c-18.384,6.138 -35.347,15.481 -50.377,27.716c-1.249,1.016 0.53,2.775 1.768,1.767c14.689,-11.957 31.308,-21.074 49.274,-27.072c1.518,-0.507 0.867,-2.923 -0.665,-2.411" style="fill:#010101;fill-rule:nonzero;"/><path d="M349.657,374.738c-4.375,5.555 -12.634,9.336 -17.973,2.767c-0.384,-0.474 -0.696,-0.959 -0.951,-1.455c-0.253,0.305 -0.511,0.604 -0.764,0.909c0.219,0.447 0.463,0.892 0.757,1.332c5.239,7.819 15.477,2.834 19.928,-2.82c0.497,-0.632 -0.504,-1.361 -0.997,-0.733" style="fill:#010101;fill-rule:nonzero;"/><path d="M362.044,349.981c-1.838,-3.326 -6.83,-4.408 -10.251,-4.047c-1.902,0.2 -3.735,0.919 -5.47,1.914c-0.095,0.598 -0.31,1.217 -0.686,1.843c-0.039,0.064 -0.078,0.129 -0.117,0.194c3.796,-2.385 8.084,-3.48 12.623,-1.558c10.501,4.446 -3.883,14.346 -9.419,14.599c-0.793,0.037 -0.581,1.263 0.205,1.227c5.918,-0.271 17.156,-6.862 13.115,-14.172" style="fill:#010101;fill-rule:nonzero;"/><path d="M360.167,348.965c3.739,1.602 7.179,3.674 7.155,8.477c-0.019,3.876 -4.461,7.59 -7.13,9.799c-3.446,2.853 -7.918,4.031 -10.675,7.701c-0.483,0.642 0.517,1.371 0.997,0.732c2.596,-3.454 7.038,-4.952 10.458,-7.469c3.101,-2.283 5.696,-5.386 7.193,-8.94c2.354,-5.587 -3.234,-9.612 -7.55,-11.46c-0.735,-0.315 -1.178,0.847 -0.448,1.16" style="fill:#010101;fill-rule:nonzero;"/><path d="M316.813,113.96c-2.952,0 -5.839,0.27 -8.647,0.761c0.37,0.406 0.671,0.863 0.878,1.369c2.529,-0.407 5.122,-0.63 7.769,-0.63c26.041,0 47.227,20.539 47.227,45.785c0,22.538 -16.894,41.291 -39.042,45.063l0,1.508c22.978,-3.793 40.542,-23.208 40.542,-46.571c0,-26.073 -21.859,-47.285 -48.727,-47.285" style="fill:#010101;fill-rule:nonzero;"/><path d="M331.532,235.625c-4.428,-0.082 -9.323,1.709 -13.663,3.99c-0.014,0.008 -0.02,0.019 -0.033,0.027c-0.021,0.297 -0.065,0.594 -0.133,0.885c0.169,0.22 0.457,0.348 0.773,0.182c3.641,-1.915 7.739,-3.552 11.563,-3.831c0.493,-0.424 0.991,-0.841 1.493,-1.253" style="fill:#010101;fill-rule:nonzero;"/><path d="M329.356,308.888c-8.491,-9.534 -18.195,-20.849 -19.347,-34.148c-1.208,-13.945 9.901,-25.557 18.109,-35.542c8.449,-10.28 17.525,-20.045 27.16,-29.222c9.049,-8.618 20.134,-20.548 33.692,-20.16c12.988,0.371 24.074,12.491 30.882,22.452c6.606,9.664 10.936,20.717 13.564,32.085c2.611,11.296 4.196,23.863 2.929,35.457c-1.615,14.765 -17.668,22.541 -29.205,29.333c-13.611,8.011 -28.897,16.286 -45.02,16.96c-13.525,0.565 -27.659,-5.501 -33.242,-18.456c-0.635,-1.473 -2.789,-0.201 -2.159,1.262c4.725,10.963 15.634,17.595 27.184,19.291c14.533,2.134 28.934,-3.498 41.681,-9.911c7.337,-3.691 14.467,-7.794 21.353,-12.27c5.933,-3.855 12.709,-7.835 17.153,-13.469c7.699,-9.763 5.353,-25.577 3.851,-37.014c-3.2,-24.374 -14.639,-54.169 -38.417,-65.477c-12.24,-5.821 -23.819,-0.868 -33.689,7.093c-12.233,9.867 -23.333,21.509 -33.628,33.35c-5.762,6.627 -11.329,13.468 -16.484,20.58c-4.302,5.935 -7.865,12.324 -8.268,19.79c-0.835,15.494 10.471,28.934 20.133,39.784c1.072,1.204 2.835,-0.569 1.768,-1.768" style="fill:#010101;fill-rule:nonzero;"/><path d="M340.117,324.257c-1.196,11.547 10.328,18.38 20.597,18.199c13.787,-0.242 28.429,-7.543 40.519,-13.654c6.837,-3.455 13.464,-7.316 19.848,-11.548c5.712,-3.786 11.978,-7.74 16.512,-12.956c8.585,-9.878 6.226,-23.56 3.733,-35.276c-0.167,-0.786 -1.372,-0.453 -1.205,0.333c2.557,12.02 4.795,25.544 -4.569,35.31c-8.186,8.537 -19.917,15.023 -30.25,20.603c-10.548,5.696 -21.732,10.675 -33.275,13.982c-6.645,1.903 -14.125,3.117 -20.69,0.297c-6.127,-2.633 -10.681,-8.421 -9.97,-15.29c0.083,-0.799 -1.168,-0.794 -1.25,0" style="fill:#010101;fill-rule:nonzero;"/><path d="M358.154,221.725c-10.704,2.189 -21.349,9.103 -26.017,19.291c-4.441,9.694 3.211,14.877 12.354,14.529c9.058,-0.345 17.996,-5.803 22.115,-13.939c3.35,-6.616 3.199,-19.68 -7.395,-17.886c-1.583,0.267 -0.911,2.677 0.665,2.41c8.131,-1.376 6.804,9.061 5.025,13.171c-1.235,2.853 -3.08,5.354 -5.377,7.447c-4.712,4.292 -11.227,6.782 -17.626,6.248c-5.177,-0.432 -9.956,-3.264 -8.228,-9.081c1.037,-3.49 3.515,-6.68 5.954,-9.281c5.156,-5.498 11.849,-8.996 19.195,-10.498c1.575,-0.322 0.908,-2.733 -0.665,-2.411" style="fill:#010101;fill-rule:nonzero;"/><path d="M367.636,234.058c-0.615,8.843 1.441,17.277 6.039,24.854c0.417,0.687 1.499,0.06 1.08,-0.63c-4.508,-7.429 -6.472,-15.553 -5.869,-24.224c0.056,-0.803 -1.194,-0.799 -1.25,0" style="fill:#010101;fill-rule:nonzero;"/><path d="M346.631,256.148c6.424,-1.254 12.907,-0.45 18.69,2.698c2.896,1.577 5.066,3.639 8.522,2.934c0.788,-0.161 0.455,-1.366 -0.332,-1.206c-3.177,0.649 -5.656,-1.823 -8.292,-3.186c-2.012,-1.04 -4.117,-1.821 -6.322,-2.345c-4.189,-0.996 -8.389,-0.922 -12.598,-0.1c-0.789,0.154 -0.455,1.359 0.332,1.205" style="fill:#010101;fill-rule:nonzero;"/><path d="M374.042,263.909c0.372,-0.372 0.744,-0.744 1.117,-1.117c1.139,-1.139 -0.629,-2.907 -1.768,-1.767c-0.372,0.372 -0.745,0.744 -1.117,1.116c-1.139,1.139 0.628,2.908 1.768,1.768" style="fill:#010101;fill-rule:nonzero;"/><path d="M367.983,261.754c-1.107,3.689 -10.211,6.618 -4.204,11.276c4.809,3.729 13.778,-1.807 17.644,-4.634c2.798,-2.047 10.861,-8.435 9.602,-12.71c-1.606,-5.449 -12.062,-0.215 -14.812,1.267c-0.708,0.382 -0.078,1.461 0.631,1.079c2.375,-1.279 4.845,-2.372 7.493,-2.94c2.67,-1.228 4.281,-0.163 4.832,3.195c-0.759,1.228 -1.6,2.398 -2.522,3.512c-2.516,3.027 -5.568,5.602 -8.982,7.564c-1.942,1.116 -4.465,2.691 -6.698,2.901c-3.572,0.336 -9.421,-2.936 -5.431,-6.011c1.671,-1.287 3.024,-2.072 3.652,-4.167c0.232,-0.772 -0.974,-1.102 -1.205,-0.332" style="fill:#010101;fill-rule:nonzero;"/><path d="M308.991,285.302c8.177,21.157 21.595,39.739 39.217,54.035c0.619,0.503 1.509,-0.376 0.884,-0.884c-17.442,-14.15 -30.799,-32.535 -38.896,-53.483c-0.287,-0.743 -1.496,-0.42 -1.205,0.332" style="fill:#010101;fill-rule:nonzero;"/><path d="M359.004,285.39c21.749,7.425 42.581,-16.911 49.459,-34.796c0.289,-0.751 -0.92,-1.076 -1.206,-0.332c-6.648,17.289 -26.891,41.103 -47.921,33.923c-0.763,-0.261 -1.09,0.946 -0.332,1.205" style="fill:#010101;fill-rule:nonzero;"/><path d="M358.605,225.507c0.938,12.937 -9.288,24.688 -22.277,25.409c-0.8,0.044 -0.805,1.294 0,1.25c13.624,-0.756 24.516,-13.015 23.527,-26.659c-0.058,-0.798 -1.308,-0.804 -1.25,0" style="fill:#010101;fill-rule:nonzero;"/><path d="M353.834,328.01c-4.278,5.748 0.463,14.129 7.69,12.773c7.254,-1.361 8.591,-10.773 2.611,-14.679c-0.676,-0.442 -1.303,0.64 -0.631,1.079c5.19,3.39 3.772,11.538 -2.543,12.415c-6.149,0.853 -9.573,-6.22 -6.048,-10.957c0.481,-0.646 -0.604,-1.27 -1.079,-0.631" style="fill:#010101;fill-rule:nonzero;"/><path d="M381.996,323.675c-5.579,3.269 -2.76,11.971 3.333,12.462c3.413,0.275 6.87,-1.686 8.727,-4.501c2.764,-4.191 2.09,-9.549 0.381,-13.984c-0.286,-0.743 -1.495,-0.42 -1.205,0.333c2.223,5.769 2.271,13.991 -4.691,16.46c-2.822,1.001 -6.142,0.349 -7.603,-2.481c-1.288,-2.495 -0.83,-5.734 1.689,-7.21c0.694,-0.406 0.065,-1.487 -0.631,-1.079" style="fill:#010101;fill-rule:nonzero;"/><path d="M409.896,309.081c-2.083,2.763 -4.035,6.434 -2.042,9.8c1.722,2.908 5.17,3.154 7.773,1.277c4.666,-3.365 5.702,-12.138 -0.478,-14.427c-0.755,-0.28 -1.081,0.928 -0.332,1.206c4.391,1.626 4.08,7.499 1.645,10.641c-2.212,2.857 -6.929,3.843 -8.057,-0.613c-0.678,-2.679 1.047,-5.233 2.57,-7.253c0.485,-0.643 -0.6,-1.266 -1.079,-0.631" style="fill:#010101;fill-rule:nonzero;"/><path d="M427.097,296.286c-5.352,3.967 -2.514,13.378 4.6,12.237c9.162,-1.47 8.125,-12.321 3.386,-17.711c-0.532,-0.605 -1.413,0.281 -0.883,0.884c3.669,4.173 5.464,11.643 -0.499,14.837c-6.147,3.293 -11.521,-5.055 -5.973,-9.168c0.639,-0.473 0.016,-1.559 -0.631,-1.079" style="fill:#010101;fill-rule:nonzero;"/><path d="M327.316,309.076c21.065,17.16 49.455,8.765 70.332,-4.016c10.596,-6.488 23.434,-13.855 30.812,-24.134c8.06,-11.231 6.774,-25.625 5.319,-38.606c-0.089,-0.79 -1.34,-0.799 -1.25,0c1.367,12.194 2.772,25.795 -4.235,36.642c-6.737,10.429 -19.446,17.619 -29.76,24.078c-20.618,12.914 -49.145,22.413 -70.334,5.152c-0.619,-0.504 -1.508,0.376 -0.884,0.884" style="fill:#010101;fill-rule:nonzero;"/><path d="M354.831,251.81c1.433,-1.659 -0.032,-2.65 -0.742,-4.24c-0.314,-0.706 -1.368,-2.946 0.108,-3.427c0.578,-0.188 1.654,0.618 2.243,0.867c1.011,0.426 2.045,0.978 3.159,1.043c1.75,0.102 3.118,-0.816 3.194,-2.682c0.051,-1.261 -0.757,-2.469 -1.538,-3.374c-1.535,-1.779 -1.823,-1.119 -1.439,-3.959c-0.393,-2.689 0.768,-3.24 3.483,-1.654c0.857,0.51 1.652,1.104 2.385,1.784c0.612,0.514 1.501,-0.365 0.884,-0.884c-2.256,-1.896 -6.835,-4.793 -9.083,-1.065c-0.614,1.019 -0.575,2.057 -0.145,3.136c0.668,1.674 7.126,6.433 2.56,7.485c-2.343,0.539 -4.963,-3.273 -7.369,-1.642c-3.4,2.305 2.985,5.911 1.416,7.728c-0.523,0.606 0.357,1.494 0.884,0.884" style="fill:#010101;fill-rule:nonzero;"/><path d="M393.625,333.779c15.288,-1.769 30.636,-2.713 46.025,-2.83c0.804,-0.006 0.806,-1.256 0,-1.25c-15.389,0.117 -30.737,1.061 -46.025,2.83c-0.79,0.091 -0.799,1.342 0,1.25" style="fill:#010101;fill-rule:nonzero;"/><path d="M58.799,331.114c-12.764,0.595 -25.476,1.764 -38.136,3.494c-0.794,0.108 -0.456,1.313 0.332,1.205c12.549,-1.714 25.152,-2.859 37.804,-3.449c0.801,-0.037 0.806,-1.288 0,-1.25" style="fill:#010101;fill-rule:nonzero;"/><path d="M77.223,403.432c-4.72,-4.821 -12.338,-4.832 -17.074,-0.025c-0.409,0.416 -0.077,1.013 0.442,1.067c12.505,1.299 25.017,1.236 37.508,-0.189c0.79,-0.09 0.799,-1.341 0,-1.25c-12.491,1.425 -25.003,1.488 -37.508,0.189c0.147,0.356 0.295,0.711 0.442,1.067c4.254,-4.319 11.077,-4.295 15.306,0.025c0.564,0.576 1.447,-0.308 0.884,-0.884" style="fill:#010101;fill-rule:nonzero;"/><path d="M31.493,414.536c13.99,-0.933 27.979,-1.866 41.969,-2.799c0.798,-0.054 0.804,-1.304 0,-1.25c-13.99,0.933 -27.979,1.866 -41.969,2.799c-0.798,0.053 -0.804,1.304 0,1.25" style="fill:#010101;fill-rule:nonzero;"/><path d="M58.137,419.753c5.108,-0.222 10.217,-0.444 15.325,-0.666c0.801,-0.035 0.806,-1.285 0,-1.25c-5.108,0.222 -10.217,0.444 -15.325,0.666c-0.801,0.035 -0.806,1.285 0,1.25" style="fill:#010101;fill-rule:nonzero;"/><path d="M171.414,421.811c36.612,-2.029 73.287,-2.513 109.94,-1.451c0.804,0.023 0.804,-1.227 0,-1.25c-36.653,-1.062 -73.328,-0.578 -109.94,1.451c-0.8,0.044 -0.805,1.295 0,1.25" style="fill:#010101;fill-rule:nonzero;"/><path d="M212.731,431.857c15.959,-1.329 31.951,-2.047 47.965,-2.154c0.804,-0.005 0.806,-1.255 0,-1.25c-16.014,0.107 -32.006,0.825 -47.965,2.154c-0.796,0.066 -0.803,1.317 0,1.25" style="fill:#010101;fill-rule:nonzero;"/><path d="M303.487,273.047c1.839,2.169 3.677,4.337 5.516,6.506c0.521,0.614 1.402,-0.274 0.884,-0.884c-1.839,-2.169 -3.677,-4.337 -5.516,-6.506c-0.521,-0.614 -1.402,0.274 -0.884,0.884" style="fill:#010101;fill-rule:nonzero;"/><path d="M303.877,273.627c1.626,0.37 2.958,1.496 3.521,3.078c0.268,0.752 1.476,0.428 1.206,-0.333c-0.707,-1.984 -2.329,-3.481 -4.395,-3.95c-0.783,-0.178 -1.117,1.026 -0.332,1.205" style="fill:#010101;fill-rule:nonzero;"/><path d="M374.355,263.603c0.639,-0.716 1.277,-1.431 1.916,-2.147c0.187,-0.21 0.242,-0.507 0.098,-0.758c-0.462,-0.804 -0.598,-1.598 -0.408,-2.5l-0.437,0.437l1.943,-0.818c0.73,-0.307 0.409,-1.517 -0.332,-1.205c-0.911,0.383 -2.253,0.545 -2.46,1.634c-0.205,1.08 0.078,2.148 0.614,3.083c0.033,-0.252 0.065,-0.505 0.098,-0.757c-0.639,0.716 -1.277,1.431 -1.916,2.147c-0.534,0.599 0.347,1.486 0.884,0.884" style="fill:#010101;fill-rule:nonzero;"/><path d="M441.888,270.368c-1.343,-3.55 -2.686,-7.1 -4.028,-10.649c-0.282,-0.746 -1.491,-0.423 -1.206,0.332c1.343,3.55 2.686,7.099 4.029,10.649c0.282,0.746 1.49,0.422 1.205,-0.332" style="fill:#010101;fill-rule:nonzero;"/><path d="M311.954,113.29c-0.857,-6.845 -8.714,-8.548 -14.367,-10.104c-8.588,-2.364 -17.515,-3.424 -26.394,-3.864c-18.505,-0.917 -37.794,-0.397 -55.911,3.767c-17.258,3.966 -32.922,12.27 -46.339,23.776c-13.65,11.706 -24.338,26.376 -37.757,38.32c-15.025,13.374 -36.975,24.028 -56.923,15.255c-2.188,-0.963 -4.099,2.267 -1.893,3.238c31.193,13.719 59.326,-12.232 78.788,-33.501c11.946,-13.054 24.145,-25.584 39.884,-34.081c17.121,-9.242 36.329,-12.275 55.562,-13.034c9.989,-0.394 20.056,-0.459 30.025,0.365c5.538,0.458 11.052,1.23 16.467,2.491c3.827,0.892 14.501,2.527 15.108,7.372c0.296,2.363 4.05,2.392 3.75,0" style="fill:#010101;fill-rule:nonzero;"/><path d="M102.768,51.992c0.487,0.885 1.966,0.578 2.48,-0.291c0.513,-0.869 0.376,-1.957 0.268,-2.961c-1.06,-9.843 2.549,-20.088 9.543,-27.095c1.058,-1.06 3.797,-0.872 2.983,0.385c4.229,-8.831 14.214,-14.544 23.97,-13.715c2.363,-1.787 5.17,-2.981 8.096,-3.444c0.486,1.166 0.374,2.563 -0.291,3.637c1.71,-1.1 3.421,-2.201 5.131,-3.301c0.537,-0.346 1.113,-0.703 1.752,-0.704c3.382,-0.001 1.575,7.887 4.95,7.672c3.927,-6.94 11.496,-11.676 19.454,-12.175c-4.938,3.521 -8.187,9.312 -8.619,15.362c5.106,-0.457 10.363,1.023 14.481,4.077c-2.342,1.169 -4.684,2.337 -7.026,3.506c4.448,2.772 9.161,5.367 13.324,8.503c-0.957,0.327 -2.031,1.633 -3.499,1.915c7.777,8.619 21.599,12.299 1.865,19.327c1.295,0.339 2.484,1.073 3.367,2.079c-1.218,1.027 -2.437,2.054 -3.655,3.081c1.077,-0.125 2.204,0.433 2.758,1.365c-5.906,9.622 -16.554,7.428 -25.41,12.061c-4.281,2.239 -8.509,4.58 -12.68,7.018c0.776,-3.034 -2.464,-5.462 -5.265,-6.863c-5.692,-2.849 -11.571,-5.466 -17.809,-6.733c-6.751,-1.371 -14.113,2.45 -20.074,1.133c-7.152,-1.581 -7.371,-8.892 -10.094,-13.839" style="fill:#010101;fill-rule:nonzero;"/><path d="M73.787,181.742c-3.941,-8.279 -4.438,-17.876 -1.027,-26.439c0.934,-2.346 3.013,-8.229 7.041,-6.397c0.981,0.446 2.004,2.292 2.907,2.99c2.256,1.744 4.992,2.751 7.787,3.208c7.463,1.22 15.514,-1.534 22.486,-3.922c7.785,-2.668 15.24,-6.146 22.361,-10.265c1.392,-0.805 0.135,-2.966 -1.262,-2.158c-8.949,5.176 -18.435,9.289 -28.399,12.074c-5.477,1.531 -11.329,2.915 -16.947,1.308c-3.333,-0.953 -4.862,-2.82 -7.165,-5.003c-0.758,-0.718 -1.365,-1.428 -2.432,-1.692c-6.155,-1.523 -9.493,10.406 -10.358,14.444c-1.689,7.893 -0.605,15.857 2.849,23.114c0.691,1.452 2.848,0.185 2.159,-1.262" style="fill:#010101;fill-rule:nonzero;"/><path d="M82.089,149.339c11.427,-23.907 30.042,-43.601 53.287,-56.325c1.411,-0.773 0.151,-2.933 -1.262,-2.159c-23.585,12.91 -42.588,32.961 -54.184,57.222c-0.69,1.445 1.465,2.715 2.159,1.262" style="fill:#010101;fill-rule:nonzero;"/><path d="M312.816,115.677c3.028,-4.347 3.044,-9.593 1.127,-14.428c-1.885,-4.753 -5.683,-10.725 -9.805,-13.909c-4.261,-3.291 -10.6,-2.88 -15.673,-3.303c-7.744,-0.645 -15.495,-1.221 -23.258,-1.571c-28.767,-1.297 -58.282,0.653 -84.301,14.081c-1.43,0.738 -0.167,2.896 1.262,2.158c22.449,-11.585 47.717,-14.44 72.67,-14.059c12.088,0.184 24.15,1.081 36.19,2.108c3.335,0.284 7.484,0.114 10.475,1.796c2.662,1.498 4.465,4.462 6.188,6.882c3.971,5.574 7.39,12.632 2.966,18.983c-0.921,1.323 1.245,2.574 2.159,1.262" style="fill:#010101;fill-rule:nonzero;"/><path d="M74.822,183.606c34.497,-1.713 58.957,-28.606 82.37,-50.776c13.261,-12.557 27.494,-24.385 44.808,-30.845c17.247,-6.435 35.863,-7.86 54.13,-7.335c9.912,0.285 19.889,0.981 29.728,2.233c9.931,1.265 20.103,3.739 26.88,11.639c1.05,1.223 2.811,-0.552 1.768,-1.768c-10.324,-12.034 -28.004,-12.562 -42.648,-13.723c-18.264,-1.449 -36.875,-1.718 -54.894,2.059c-17.063,3.576 -32.225,11.279 -45.816,22.105c-14.229,11.334 -26.39,24.949 -40.079,36.889c-15.892,13.862 -34.604,25.948 -56.247,27.022c-1.601,0.079 -1.611,2.58 0,2.5" style="fill:#010101;fill-rule:nonzero;"/><path d="M358.305,225.743c1.117,0.469 0.459,4.68 0.264,5.512c-0.389,1.668 -1.048,3.286 -1.831,4.805c-1.276,2.472 -3.111,4.687 -5.165,6.552c-4.53,4.111 -10.285,6.542 -15.976,8.559c-1.506,0.534 -0.857,2.95 0.665,2.411c8.162,-2.893 16.463,-6.783 21.423,-14.224c2.313,-3.469 7.011,-13.619 1.285,-16.026c-1.481,-0.622 -2.128,1.796 -0.665,2.411" style="fill:#010101;fill-rule:nonzero;"/><path d="M154.475,70.64c-0.116,1.882 -0.232,3.763 -0.348,5.645c-0.061,1 1.093,1.486 1.881,1.08c7.616,-3.934 15.537,-6.946 23.834,-9.09c1.557,-0.402 0.897,-2.814 -0.664,-2.41c-8.502,2.196 -16.632,5.312 -24.432,9.341c0.627,0.36 1.254,0.719 1.881,1.079c0.116,-1.882 0.232,-3.763 0.348,-5.645c0.099,-1.607 -2.401,-1.601 -2.5,0" style="fill:#010101;fill-rule:nonzero;"/><path d="M110.33,51.464c-2.171,-4.025 -4.343,-8.049 -6.514,-12.074c-0.764,-1.416 -2.923,-0.156 -2.159,1.262c2.172,4.024 4.343,8.049 6.514,12.074c0.765,1.416 2.924,0.155 2.159,-1.262" style="fill:#010101;fill-rule:nonzero;"/><path d="M108.564,45.342c-1.638,-3.261 -2.077,-6.793 -1.299,-10.356c0.342,-1.568 -2.067,-2.238 -2.411,-0.664c-0.927,4.245 -0.398,8.4 1.551,12.282c0.723,1.438 2.88,0.173 2.159,-1.262" style="fill:#010101;fill-rule:nonzero;"/><path d="M117.125,63.372c-4.705,-1.14 -9.457,-0.918 -14.014,0.73c-1.502,0.542 -0.854,2.959 0.664,2.41c4.155,-1.502 8.387,-1.771 12.685,-0.729c1.563,0.378 2.23,-2.032 0.665,-2.411" style="fill:#010101;fill-rule:nonzero;"/><path d="M109.9,61.777c-0.818,0.633 -2.514,-0.097 -2.635,-1.117c-0.08,-0.676 -0.517,-1.243 -1.25,-1.25c-0.614,-0.007 -1.329,0.58 -1.25,1.25c0.391,3.301 4.282,4.912 6.903,2.885c0.538,-0.416 0.429,-1.329 0,-1.768c-0.522,-0.533 -1.237,-0.411 -1.768,0" style="fill:#010101;fill-rule:nonzero;"/><path d="M115.471,62.896l-8.679,4.632c-1.42,0.758 -0.159,2.917 1.262,2.159l8.679,-4.632c1.42,-0.758 0.158,-2.917 -1.262,-2.159" style="fill:#010101;fill-rule:nonzero;"/><path d="M109.322,35.667c2.089,-5.86 4.994,-11.242 8.693,-16.238c0.958,-1.294 -1.211,-2.542 -2.159,-1.262c-3.823,5.164 -6.788,10.787 -8.945,16.835c-0.541,1.519 1.874,2.172 2.411,0.665" style="fill:#010101;fill-rule:nonzero;"/><path d="M123.836,22.63c2.534,-4.197 4.194,-8.75 4.922,-13.6c0.236,-1.574 -2.172,-2.253 -2.41,-0.665c-0.7,4.658 -2.234,8.968 -4.671,13.003c-0.833,1.381 1.328,2.639 2.159,1.262" style="fill:#010101;fill-rule:nonzero;"/><path d="M130.536,13.662c0.306,-1.853 1.115,-3.431 2.483,-4.724c1.171,-1.107 -0.599,-2.873 -1.768,-1.767c-1.647,1.557 -2.755,3.586 -3.126,5.826c-0.26,1.574 2.149,2.251 2.411,0.665" style="fill:#010101;fill-rule:nonzero;"/><path d="M171.769,19.945c1.27,-2.419 3.17,-4.278 5.61,-5.506c1.438,-0.723 0.173,-2.88 -1.262,-2.159c-2.789,1.403 -5.056,3.639 -6.507,6.403c-0.747,1.423 1.41,2.689 2.159,1.262" style="fill:#010101;fill-rule:nonzero;"/><path d="M147.287,9.936c0.053,0.034 0.107,0.069 0.16,0.103c-0.206,-0.36 -0.412,-0.72 -0.619,-1.079c0.126,-0.224 0.252,-0.448 0.377,-0.672c0.321,0.042 0.642,0.084 0.963,0.126c0.693,0.386 0.824,-0.355 1.135,-0.83c0.376,-0.571 0.751,-1.141 1.127,-1.712c0.697,-1.06 1.394,-2.12 2.091,-3.181c0.886,-1.348 -1.278,-2.602 -2.159,-1.261c-1.072,1.631 -2.145,3.262 -3.217,4.893c-0.679,1.032 -1.743,2.436 -0.882,3.692c1.401,2.046 4.468,-0.838 2.286,-2.238c-1.358,-0.871 -2.613,1.292 -1.262,2.159" style="fill:#010101;fill-rule:nonzero;"/><path d="M142.726,10.268c-0.586,-0.253 -1.173,-0.507 -1.759,-0.76c0.084,0.654 0.168,1.308 0.253,1.963c1.902,-2.053 3.261,-4.443 4.036,-7.133c0.447,-1.549 -1.965,-2.21 -2.41,-0.665c-0.658,2.281 -1.78,4.288 -3.394,6.03c-0.488,0.527 -0.523,1.628 0.253,1.963c0.586,0.254 1.173,0.507 1.759,0.761c1.462,0.631 2.736,-1.522 1.262,-2.159" style="fill:#010101;fill-rule:nonzero;"/><path d="M142.917,3.471c-3.999,4.343 -8.742,7.677 -14.169,9.997c-1.475,0.631 -0.203,2.784 1.262,2.159c5.609,-2.397 10.543,-5.902 14.675,-10.388c1.088,-1.183 -0.675,-2.955 -1.768,-1.768" style="fill:#010101;fill-rule:nonzero;"/><path d="M183.754,67.232c3.775,-1.558 7.549,-3.116 11.324,-4.673c1.466,-0.605 0.823,-3.025 -0.665,-2.411c-3.775,1.558 -7.549,3.116 -11.324,4.673c-1.466,0.606 -0.823,3.025 0.665,2.411" style="fill:#010101;fill-rule:nonzero;"/><path d="M188.676,65.687c2.949,-1.515 6.075,-2.336 9.386,-2.473c1.603,-0.066 1.611,-2.567 0,-2.5c-3.753,0.156 -7.308,1.098 -10.648,2.814c-1.431,0.736 -0.168,2.894 1.262,2.159" style="fill:#010101;fill-rule:nonzero;"/><path d="M189.711,62.44c3.332,-0.888 6.663,-1.776 9.995,-2.663c1.553,-0.414 0.894,-2.826 -0.664,-2.411c-3.332,0.888 -6.664,1.776 -9.996,2.663c-1.553,0.414 -0.894,2.826 0.665,2.411" style="fill:#010101;fill-rule:nonzero;"/><path d="M190.768,59.869c1.323,-0.684 2.647,-1.368 3.97,-2.052c1.43,-0.739 0.167,-2.897 -1.261,-2.159c-1.324,0.684 -2.647,1.368 -3.971,2.052c-1.43,0.739 -0.167,2.897 1.262,2.159" style="fill:#010101;fill-rule:nonzero;"/><path d="M193.555,60.137l5.948,-5.384c1.195,-1.083 -0.577,-2.846 -1.768,-1.768c-1.983,1.795 -3.965,3.589 -5.948,5.384c-1.195,1.082 0.577,2.846 1.768,1.768" style="fill:#010101;fill-rule:nonzero;"/><path d="M191.692,55.068c1.97,-0.585 3.989,-0.783 6.031,-0.491c1.573,0.226 2.253,-2.183 0.664,-2.41c-2.499,-0.359 -4.933,-0.231 -7.36,0.49c-1.538,0.457 -0.883,2.871 0.665,2.411" style="fill:#010101;fill-rule:nonzero;"/><path d="M194.138,55.985c0.006,-0.135 0.005,-0.158 -0.002,-0.066c-0.011,0.089 -0.002,0.069 0.028,-0.059c-0.012,0.03 -0.024,0.059 -0.036,0.089c0.071,-0.108 0.08,-0.13 0.027,-0.067c-0.092,0.11 0.109,-0.115 0.131,-0.135c-0.157,0.146 0.096,-0.057 0.129,-0.077c0.183,-0.114 -0.038,0 0.081,-0.031c0.103,-0.027 0.248,-0.033 0.067,-0.027c0.036,-0.001 0.394,-0.031 0.123,-0.003l0.11,0.032c-0.121,-0.051 -0.116,-0.041 0.014,0.03c1.376,0.841 2.634,-1.32 1.262,-2.159c-1.865,-1.14 -4.386,0.33 -4.434,2.473c-0.036,1.609 2.464,1.609 2.5,0" style="fill:#010101;fill-rule:nonzero;"/><path d="M105.44,67.198c1.844,-0.1 3.687,-0.201 5.531,-0.301c1.612,-0.088 1.605,-2.394 0,-2.5c-2.678,-0.176 -5.356,-0.353 -8.034,-0.529c-1.331,-0.088 -1.571,1.685 -0.63,2.329c1.64,1.125 3.535,1.417 5.455,0.954c1.564,-0.376 0.902,-2.788 -0.664,-2.41c-1.32,0.318 -2.424,0.056 -3.53,-0.702c-0.21,0.776 -0.42,1.552 -0.631,2.329c2.678,0.176 5.356,0.353 8.034,0.529l0,-2.5c-1.844,0.1 -3.687,0.201 -5.531,0.301c-1.6,0.087 -1.61,2.588 0,2.5" style="fill:#010101;fill-rule:nonzero;"/><path d="M102.077,66.395c3.6,-2.241 6.816,-4.974 9.583,-8.189c1.045,-1.213 -0.715,-2.989 -1.767,-1.767c-2.634,3.059 -5.649,5.663 -9.078,7.797c-1.363,0.849 -0.109,3.012 1.262,2.159" style="fill:#010101;fill-rule:nonzero;"/><path d="M34.458,327.974c-0.23,1.109 -0.46,2.218 -0.689,3.327c-0.163,0.785 1.041,1.12 1.205,0.332c0.23,-1.109 0.46,-2.218 0.689,-3.327c0.163,-0.785 -1.042,-1.12 -1.205,-0.332" style="fill:#010101;fill-rule:nonzero;"/><path d="M39.607,327.155c-0.301,0.59 -0.163,1.164 0.229,1.677c0.187,0.245 0.443,0.431 0.625,0.677c0.027,0.039 0.054,0.079 0.081,0.118c0.025,0.145 0.089,0.152 0.191,0.019c0.119,-0.013 0.164,-0.044 0.137,-0.092c-0.194,-0.069 -0.176,0.133 0.054,0.606c0.585,-0.555 -0.3,-1.437 -0.884,-0.884c-0.871,0.825 0.48,1.9 1.335,1.393c0.509,-0.301 0.564,-0.971 0.345,-1.47c-0.123,-0.282 -0.32,-0.524 -0.532,-0.744c-0.092,-0.094 -0.59,-0.496 -0.502,-0.669c0.365,-0.715 -0.713,-1.348 -1.079,-0.631" style="fill:#010101;fill-rule:nonzero;"/><path d="M18.453,325.018c11.73,3.253 23.766,3.578 35.658,0.983c0.786,-0.172 0.453,-1.377 -0.332,-1.206c-11.688,2.551 -23.465,2.215 -34.994,-0.982c-0.776,-0.216 -1.107,0.99 -0.332,1.205" style="fill:#010101;fill-rule:nonzero;"/><path d="M18.255,323.637c6.18,-2.71 11.336,-6.596 15.645,-11.788c0.411,-0.495 0.019,-1.149 -0.608,-1.044c-5.16,0.861 -9.777,-0.125 -14.167,-2.925c-0.05,0.38 -0.1,0.761 -0.15,1.142c9.595,-1.378 14.359,-9.909 18.244,-17.869c0.209,-0.428 -0.153,-1.146 -0.706,-0.918c-0.988,0.408 -7.578,2.466 -7.657,1.207c-0.032,-0.516 2.976,-2.909 3.319,-3.296c1.935,-2.183 3.628,-4.571 5.046,-7.12c2.995,-5.384 4.589,-11.284 4.98,-17.415c-0.409,0.055 -0.818,0.11 -1.228,0.166c1.488,6.246 2.398,13.113 4.681,19.111c0.977,2.565 2.327,4.383 5.122,4.63l-0.166,-1.228c-2.728,0.916 -5.456,1.833 -8.184,2.749c-0.427,0.144 -0.637,0.707 -0.276,1.045c2.935,2.744 5.869,5.489 8.804,8.233c0.587,0.549 1.473,-0.333 0.884,-0.884c-1.801,-1.683 -5.935,-4.261 -6.918,-6.469c-0.675,-1.516 -1.218,-0.789 1.112,-1.819c1.557,-0.689 3.299,-1.109 4.91,-1.65c0.686,-0.23 0.535,-1.166 -0.166,-1.227c-4.565,-0.403 -5.079,-8.048 -5.857,-11.314l-2.74,-11.51c-0.17,-0.714 -1.185,-0.512 -1.228,0.167c-0.701,11.001 -5.734,20.869 -14.175,27.95c-0.338,0.284 -0.178,0.978 0.276,1.045c3.501,0.516 6.5,0.194 9.793,-1.165c-0.235,-0.306 -0.47,-0.613 -0.706,-0.919c-3.746,7.677 -8.167,15.955 -17.496,17.295c-0.57,0.082 -0.556,0.883 -0.149,1.142c4.673,2.981 9.676,3.961 15.13,3.051c-0.203,-0.348 -0.405,-0.696 -0.608,-1.045c-4.23,5.097 -9.327,8.934 -15.392,11.593c-0.735,0.322 -0.099,1.399 0.631,1.079" style="fill:#010101;fill-rule:nonzero;"/><path d="M52.283,307.798c-1.922,1.295 -4.012,2.076 -6.322,2.304c-0.56,0.055 -0.797,0.633 -0.442,1.067c2.429,2.961 5.678,4.971 9.405,5.84c0.783,0.183 1.117,-1.022 0.333,-1.205c-3.537,-0.825 -6.553,-2.714 -8.854,-5.519c-0.147,0.356 -0.295,0.711 -0.442,1.067c2.539,-0.25 4.833,-1.047 6.953,-2.475c0.664,-0.447 0.039,-1.53 -0.631,-1.079" style="fill:#010101;fill-rule:nonzero;"/><path d="M26.839,288.926c0.131,-3.724 3.933,-5.783 6.877,-7.248c0.72,-0.358 0.088,-1.437 -0.631,-1.079c-3.404,1.694 -7.347,4.088 -7.496,8.327c-0.028,0.805 1.222,0.803 1.25,0" style="fill:#010101;fill-rule:nonzero;"/><path d="M21.19,305.514c-0.85,-0.801 0.111,-1.996 0.853,-2.493c0.687,-0.46 1.527,-0.58 2.316,-0.769c1.404,-0.337 2.655,-0.778 3.514,-1.996c0.464,-0.659 -0.619,-1.285 -1.08,-0.631c-1.315,1.866 -4.243,1.232 -5.9,2.724c-1.167,1.049 -1.892,2.818 -0.587,4.049c0.585,0.551 1.471,-0.331 0.884,-0.884" style="fill:#010101;fill-rule:nonzero;"/><path d="M20.104,321.702c-0.826,-0.598 -1.152,-1.546 -0.924,-2.531l-0.437,0.437c1.991,-0.672 3.981,-1.344 5.971,-2.016c0.759,-0.256 0.433,-1.463 -0.332,-1.205c-1.208,0.408 -2.417,0.816 -3.625,1.224c-0.713,0.24 -2.275,0.431 -2.72,1.079c-0.903,1.316 0.404,3.343 1.436,4.091c0.652,0.473 1.277,-0.611 0.631,-1.079" style="fill:#010101;fill-rule:nonzero;"/><path d="M5.839,333.015c14.543,-1.342 23.638,10.942 29.823,22.331c0.384,0.707 1.464,0.077 1.079,-0.631c-6.39,-11.768 -15.932,-24.331 -30.902,-22.95c-0.794,0.073 -0.802,1.324 0,1.25" style="fill:#010101;fill-rule:nonzero;"/><path d="M25.828,362.101c3.332,-0.222 6.663,-0.444 9.995,-0.666c0.798,-0.054 0.804,-1.304 0,-1.25c-3.332,0.222 -6.663,0.444 -9.995,0.666c-0.798,0.053 -0.804,1.304 0,1.25" style="fill:#010101;fill-rule:nonzero;"/><path d="M1.157,361.197c4.312,-8.177 14.216,-5.416 21.139,-2.952c0.759,0.27 1.086,-0.937 0.332,-1.205c-7.486,-2.665 -17.971,-5.16 -22.55,3.526c-0.375,0.711 0.703,1.344 1.079,0.631" style="fill:#010101;fill-rule:nonzero;"/><path d="M390.581,355.8c16.699,-13.88 39.078,-8.744 56.541,0.62c0.709,0.38 1.341,-0.699 0.631,-1.08c-18.017,-9.66 -40.925,-14.662 -58.056,-0.424c-0.619,0.515 0.269,1.395 0.884,0.884" style="fill:#010101;fill-rule:nonzero;"/><path d="M379.001,361.114c12.642,1.029 25.295,1.141 37.953,0.334c0.799,-0.051 0.805,-1.301 0,-1.25c-12.658,0.807 -25.311,0.695 -37.953,-0.334c-0.802,-0.065 -0.798,1.185 0,1.25" style="fill:#010101;fill-rule:nonzero;"/></svg>