<?xml version="1.0" standalone="no"?><!DOCTYPE svg PUBLIC "-//W3C//DTD SVG 1.1//EN" "http://www.w3.org/Graphics/SVG/1.1/DTD/svg11.dtd"><svg width="100%" height="100%" viewBox="0 0 402 505" version="1.1" xmlns="http://www.w3.org/2000/svg" xmlns:xlink="http://www.w3.org/1999/xlink" xml:space="preserve" style="fill-rule:evenodd;clip-rule:evenodd;stroke-miterlimit:10;"><path d="M260.346,259.075c-7.663,-9.107 -18.773,-13.999 -30.439,-15.451c-14.723,-1.832 -29.579,2.836 -43.569,6.894c-11.629,3.374 -22.001,8.885 -29.274,18.858c-3.956,5.425 -6.574,11.636 -8.181,18.134c-0.725,2.934 -1.297,5.925 -1.67,8.925c-0.428,3.441 -0.145,7.68 -2.13,10.623c-1.401,2.076 -2.524,2.885 -3.211,5.43c-0.963,3.564 -2.126,7.465 -2.559,11.131c-0.476,4.028 2.209,7.096 6.344,5.81c1.532,-0.476 0.878,-2.89 -0.664,-2.411c-5.013,1.559 -1.307,-11.637 -0.902,-13.042c0.73,-2.539 2.198,-3.97 3.538,-6.034c2.711,-4.174 1.956,-11.604 2.892,-16.273c2.93,-14.625 10.76,-27.245 24.265,-34.192c6.963,-3.582 14.789,-5.301 22.325,-7.24c7.833,-2.014 15.58,-4.226 23.719,-4.521c14.041,-0.509 28.527,4.168 37.748,15.127c1.037,1.232 2.798,-0.544 1.768,-1.768" style="fill:#010101;fill-rule:nonzero;"/><path d="M207.964,442.791c12.497,1.41 25.154,2.125 37.675,0.588c10.719,-1.316 22.087,-4.052 30.431,-11.269c1.219,-1.055 -0.555,-2.816 -1.767,-1.768c-9.036,7.815 -22.252,10.171 -33.82,11.049c-10.844,0.822 -21.733,0.117 -32.519,-1.1c-1.596,-0.18 -1.583,2.321 0,2.5" style="fill:#010101;fill-rule:nonzero;"/><path d="M148.492,293.93c-8.907,0.615 -16.811,-6.879 -12.526,-15.928c3.186,-6.728 14.207,-12.281 20.93,-7.305c1.294,0.958 2.542,-1.21 1.262,-2.158c-8.138,-6.023 -21.429,0.731 -24.842,9.222c-4.216,10.489 4.819,19.384 15.176,18.669c1.596,-0.11 1.608,-2.611 0,-2.5" style="fill:#010101;fill-rule:nonzero;"/><path d="M249.678,251.958c5.855,-4.179 15.722,-8.069 21.766,-2.208c6.279,6.09 5.581,17.518 -3.191,20.922c-1.484,0.576 -0.839,2.994 0.664,2.411c9.46,-3.672 11.725,-14.927 6.1,-22.954c-6.426,-9.17 -18.817,-5.885 -26.601,-0.33c-1.298,0.927 -0.051,3.096 1.262,2.159" style="fill:#010101;fill-rule:nonzero;"/><path d="M202.286,296.847c0.206,-0.07 0.412,-0.139 0.617,-0.209l-0.608,-1.044c-2.842,2.539 -9.157,6.187 -7.168,11.204c3.193,8.053 15.136,-0.184 19.681,-0.822c4.521,-0.634 13.643,2.698 13.696,-5.034c0.041,-5.995 -8.058,-7.899 -12.602,-8.731c-0.787,-0.144 -1.124,1.06 -0.332,1.205c3.931,0.72 11.796,2.274 11.684,7.526c-0.139,6.526 -10.132,3.102 -13.862,3.982c-1.948,0.459 -3.715,1.43 -5.53,2.229c-4.045,1.78 -14.01,3.378 -10.944,-4.577c1.236,-3.207 4.037,-4.111 6.261,-6.099c0.46,-0.41 -0.022,-1.242 -0.608,-1.044c-0.206,0.069 -0.411,0.139 -0.617,0.209c-0.758,0.256 -0.433,1.464 0.332,1.205" style="fill:#010101;fill-rule:nonzero;"/><path d="M219.846,306.18c1.375,2.231 2.467,5.117 2.24,7.788c-0.172,2.028 -1.513,4.124 -3.867,4.001c-1.654,-0.086 -2.334,-1.5 -3.201,-2.651c-0.478,-0.635 -1.563,-0.013 -1.079,0.631c0.957,1.27 1.789,2.885 3.492,3.21c1.653,0.316 3.47,-0.456 4.595,-1.649c2.915,-3.09 0.791,-8.891 -1.101,-11.961c-0.421,-0.684 -1.503,-0.056 -1.079,0.631" style="fill:#010101;fill-rule:nonzero;"/><path d="M287.659,437.499c-3.24,-1.254 -5.546,-3.666 -8.374,-5.562c-0.406,-0.271 -2.231,-1.024 -2.544,-1.412c-1.701,-2.114 3.176,-6.006 4.528,-6.714c4.702,-2.464 9.686,0.528 12.35,4.441c1.352,1.986 2.893,5.221 1.337,7.627c-1.633,2.525 -4.89,2.269 -7.297,1.62c-0.778,-0.21 -1.109,0.996 -0.332,1.205c4.325,1.167 9.696,-0.138 9.472,-5.571c-0.222,-5.373 -5.683,-10.801 -10.897,-11.438c-3.92,-0.48 -10.989,3.271 -10.98,7.821c0.004,2.113 2.209,2.477 3.732,3.501c2.951,1.984 5.299,4.382 8.673,5.687c0.75,0.291 1.075,-0.917 0.332,-1.205" style="fill:#010101;fill-rule:nonzero;"/><path d="M288.067,430.275c2.484,1.759 4.672,4.236 5.318,7.279c0.167,0.787 1.372,0.454 1.205,-0.332c-0.714,-3.367 -3.151,-6.086 -5.892,-8.026c-0.658,-0.466 -1.283,0.617 -0.631,1.079" style="fill:#010101;fill-rule:nonzero;"/><path d="M226.976,331.383c0.75,-1.365 2.728,-2.151 3.754,-3.419c1.167,-1.443 2.097,-3.227 2.538,-5.037c0.86,-3.529 -0.058,-7.443 -2.92,-9.821c-2.167,-1.8 -4.691,-1.612 -6.689,0.32c-2.822,2.73 -3.193,6.81 -3.464,10.499c-0.059,0.802 1.191,0.799 1.25,0c0.203,-2.772 0.384,-5.738 1.932,-8.151c1.405,-2.19 4.315,-3.373 6.433,-1.496c1.546,1.371 2.297,3.306 2.458,5.301c0.269,3.333 -1.27,6.771 -3.824,8.911c-0.869,0.728 -1.983,1.234 -2.547,2.262c-0.388,0.706 0.691,1.337 1.079,0.631" style="fill:#010101;fill-rule:nonzero;"/><path d="M227.391,319.696c1.651,-2.579 2.017,-6.338 -1.222,-7.808c-0.727,-0.329 -1.363,0.748 -0.631,1.08c2.609,1.183 2.065,4.079 0.774,6.097c-0.435,0.68 0.646,1.307 1.079,0.631" style="fill:#010101;fill-rule:nonzero;"/><path d="M250.335,268.201c-1.87,-10.425 -12.079,-17.403 -22.8,-15.584c-10.72,1.819 -17.895,11.745 -16.025,22.171c1.87,10.425 12.078,17.402 22.799,15.583c10.72,-1.818 17.896,-11.745 16.026,-22.17Z" style="fill:none;stroke-width:1.5px;stroke:#010101;"/><path d="M201.804,278.498c-1.87,-10.424 -12.075,-17.4 -22.797,-15.581c-10.72,1.819 -17.895,11.744 -16.025,22.167c1.87,10.427 12.078,17.403 22.798,15.584c10.721,-1.819 17.895,-11.743 16.024,-22.17Z" style="fill:none;stroke-width:1.5px;stroke:#010101;"/><path d="M266.754,257.716c-0.395,-2.204 -2.555,-3.68 -4.822,-3.296c-2.27,0.385 -3.785,2.485 -3.39,4.689c0.396,2.207 2.553,3.682 4.823,3.297c2.267,-0.384 3.785,-2.483 3.389,-4.69" style="fill:#010101;fill-rule:nonzero;"/><path d="M152.059,280.851c-0.396,-2.206 -2.555,-3.68 -4.823,-3.295c-2.268,0.384 -3.787,2.483 -3.391,4.688c0.396,2.206 2.555,3.682 4.823,3.297c2.269,-0.385 3.787,-2.484 3.391,-4.69" style="fill:#010101;fill-rule:nonzero;"/><path d="M218.413,291.568c-0.464,-2.585 -4.73,-4.017 -9.524,-3.204c-4.8,0.814 -8.314,3.566 -7.85,6.152c0.463,2.581 4.728,4.016 9.528,3.201c4.794,-0.813 8.309,-3.567 7.846,-6.149" style="fill:#010101;fill-rule:nonzero;"/><path d="M232.632,266.348c-0.992,0.168 -1.937,-0.477 -2.11,-1.442c-0.173,-0.964 0.491,-1.883 1.483,-2.052c0.992,-0.168 1.937,0.478 2.11,1.443c0.173,0.964 -0.491,1.883 -1.483,2.051M228.265,256.686c-3.505,0.594 -5.849,3.838 -5.238,7.248c0.612,3.407 3.948,5.689 7.452,5.095c3.505,-0.595 5.851,-3.841 5.24,-7.248c-0.612,-3.41 -3.949,-5.69 -7.454,-5.095" style="fill:#010101;fill-rule:nonzero;"/><path d="M184.385,278.236c-0.99,0.168 -1.935,-0.478 -2.108,-1.442c-0.173,-0.965 0.491,-1.884 1.481,-2.052c0.994,-0.168 1.938,0.478 2.111,1.442c0.174,0.965 -0.49,1.883 -1.484,2.052M180.02,268.573c-3.505,0.595 -5.85,3.838 -5.238,7.247c0.611,3.408 3.947,5.691 7.452,5.096c3.505,-0.594 5.85,-3.841 5.239,-7.249c-0.612,-3.409 -3.948,-5.688 -7.453,-5.094" style="fill:#010101;fill-rule:nonzero;"/><path d="M212.238,305.997c0.825,2.156 1.128,4.77 1.398,7.053c0.34,2.889 -0.631,8.372 -4.967,6.066c-3.135,-1.668 -3.25,-7.28 -2.898,-10.293c0.093,-0.797 -1.158,-0.79 -1.25,0c-0.459,3.922 0.19,11.427 5.347,11.92c7.529,0.721 5.046,-11.235 3.575,-15.078c-0.284,-0.744 -1.493,-0.421 -1.205,0.332" style="fill:#010101;fill-rule:nonzero;"/><path d="M190.22,333.126c-1.449,4.21 -0.123,9.181 2.39,12.748c1.915,2.718 4.969,4.473 7.471,1.488c0.513,-0.613 -0.367,-1.502 -0.884,-0.884c-1.371,1.635 -3.666,0.901 -4.931,-0.499c-0.974,-1.078 -1.647,-2.443 -2.194,-3.772c-1.157,-2.812 -1.656,-5.818 -0.647,-8.749c0.263,-0.762 -0.944,-1.089 -1.205,-0.332" style="fill:#010101;fill-rule:nonzero;"/><path d="M196.886,343.399c0.481,1.553 1.537,3.549 3.374,3.723c1.584,0.15 2.775,-1.353 3.167,-2.745c1.026,-3.639 -2.338,-8.238 -4.767,-10.617c-0.575,-0.563 -1.459,0.32 -0.883,0.884c1.717,1.682 3.192,3.868 4.031,6.124c0.421,1.133 0.816,2.516 0.264,3.678c-1.443,3.041 -3.442,0.359 -3.981,-1.379c-0.237,-0.766 -1.444,-0.439 -1.205,0.332" style="fill:#010101;fill-rule:nonzero;"/><path d="M277.733,326.709c-4.103,15.223 -5.324,30.005 1.08,44.75c6.755,15.551 16.116,33.252 7.108,49.857c-0.768,1.415 1.39,2.678 2.158,1.262c7.535,-13.888 3.12,-28.639 -2.685,-42.298c-3.519,-8.28 -7.731,-16.129 -8.592,-25.234c-0.884,-9.356 0.917,-18.674 3.342,-27.672c0.419,-1.556 -1.992,-2.219 -2.411,-0.665" style="fill:#010101;fill-rule:nonzero;"/><path d="M257.189,258.872c11.619,11.718 17.553,27.448 20.296,43.472c0.271,1.582 2.681,0.911 2.411,-0.665c-2.814,-16.437 -9.034,-32.567 -20.939,-44.575c-1.135,-1.144 -2.903,0.624 -1.768,1.768" style="fill:#010101;fill-rule:nonzero;"/><path d="M275.455,431.457c0.099,-0.017 0.197,-0.033 0.296,-0.05c0.791,-0.134 0.456,-1.339 -0.332,-1.206c-0.021,0.004 -0.042,0.007 -0.063,0.011c-0.217,0.037 -0.37,0.243 -0.436,0.437c-0.03,0.077 0.002,0.041 0.094,-0.107c0.306,0.236 0.612,0.471 0.918,0.706c0.019,-0.12 0.037,-0.241 0.056,-0.361c-0.306,0.124 -0.612,0.249 -0.918,0.373c0.137,0.094 0.275,0.188 0.412,0.282c0.665,0.456 1.291,-0.627 0.631,-1.079c-0.138,-0.094 -0.275,-0.188 -0.412,-0.282c-0.307,-0.21 -0.859,-0.013 -0.918,0.374c-0.019,0.12 -0.037,0.241 -0.056,0.361c-0.081,0.526 0.404,0.986 0.918,0.706c0.253,-0.138 0.389,-0.375 0.48,-0.641l-0.436,0.436c0.02,-0.003 0.041,-0.007 0.062,-0.01c-0.111,-0.402 -0.222,-0.804 -0.332,-1.206c-0.099,0.017 -0.198,0.034 -0.296,0.051c-0.792,0.134 -0.456,1.339 0.332,1.205" style="fill:#010101;fill-rule:nonzero;"/><path d="M293.606,492.525c-64.233,-1.305 -128.422,-4.327 -192.494,-9.063c0.21,0.777 0.42,1.553 0.631,2.33c3.198,-2.355 7.335,-2.015 11.126,-2.17c3.971,-0.163 7.942,-0.325 11.913,-0.487c7.941,-0.325 15.883,-0.65 23.825,-0.975c15.884,-0.65 31.768,-1.299 47.652,-1.949c31.767,-1.3 63.535,-2.599 95.303,-3.898c1.603,-0.066 1.611,-2.566 0,-2.5c-33.092,1.353 -66.183,2.707 -99.274,4.06c-16.546,0.677 -33.092,1.354 -49.637,2.031c-7.942,0.324 -15.884,0.649 -23.826,0.974c-5.735,0.235 -13.439,-0.857 -18.344,2.755c-1.001,0.737 -0.66,2.234 0.631,2.329c64.072,4.736 128.261,7.758 192.494,9.063c1.609,0.033 1.609,-2.467 0,-2.5" style="fill:#010101;fill-rule:nonzero;"/><path d="M294.773,491.357c-3.385,-0.423 -3.267,-4.506 -0.448,-5.414c1.119,-0.361 1.258,-2.116 0,-2.411c-1.753,-0.411 -2.532,-2.472 -1.17,-3.808c0.618,-0.607 0.399,-1.934 -0.552,-2.089c0.062,-0.327 0.124,-0.653 0.186,-0.98c1.593,0.196 1.579,-2.306 0,-2.5c-4.182,-0.514 -5.038,5.209 -0.85,5.89c-0.184,-0.696 -0.368,-1.392 -0.552,-2.089c-2.669,2.618 -1.35,7.138 2.274,7.987l0,-2.411c-5.972,1.924 -4.939,9.569 1.112,10.325c1.592,0.199 1.578,-2.303 0,-2.5" style="fill:#010101;fill-rule:nonzero;"/><path d="M298.016,495.339c-1.532,0.607 -2.848,-1.451 -1.166,-2.248c1.382,-0.656 1.435,1.461 0.501,1.553c-0.793,0.079 -0.802,1.33 0,1.25c2.773,-0.274 2.255,-4.952 -0.646,-4.085c-1.36,0.407 -2.328,1.924 -1.753,3.3c0.531,1.27 2.118,1.942 3.396,1.435c0.739,-0.292 0.417,-1.502 -0.332,-1.205" style="fill:#010101;fill-rule:nonzero;"/><path d="M297.746,487.031c1.203,-0.754 1.685,-2.286 1.165,-3.61c-0.538,-1.367 -2.047,-1.95 -3.418,-1.538c-1.374,0.412 -2.418,1.735 -2.054,3.207c0.386,1.564 1.965,2.494 3.507,2.25c0.793,-0.126 0.456,-1.33 -0.332,-1.206c-0.901,0.143 -1.876,-0.589 -1.985,-1.498c-0.099,-0.828 0.626,-1.442 1.379,-1.596c1.754,-0.36 2.567,1.996 1.107,2.912c-0.68,0.426 -0.053,1.508 0.631,1.079" style="fill:#010101;fill-rule:nonzero;"/><path d="M295.641,475.553c-1.297,1.732 -4.561,-0.108 -2.899,-2.078c1.683,-1.996 4.279,0.758 2.624,2.409c-0.57,0.569 0.314,1.453 0.884,0.884c1.183,-1.18 1.114,-3.159 -0.005,-4.37c-1.288,-1.396 -3.403,-1.049 -4.526,0.364c-1.106,1.389 -0.872,3.389 0.733,4.271c1.438,0.791 3.284,0.465 4.268,-0.849c0.483,-0.644 -0.602,-1.268 -1.079,-0.631" style="fill:#010101;fill-rule:nonzero;"/><path d="M292.937,483.919c-16.507,0.214 -33.013,0.427 -49.52,0.641c-1.607,0.021 -1.612,2.521 0,2.5c16.507,-0.214 33.013,-0.427 49.52,-0.641c1.607,-0.021 1.612,-2.521 0,-2.5" style="fill:#010101;fill-rule:nonzero;"/><path d="M295.998,492.911c-9.329,-0.965 -18.658,-1.931 -27.987,-2.896c-0.8,-0.083 -0.794,1.167 0,1.25c9.329,0.965 18.658,1.931 27.987,2.896c0.799,0.083 0.794,-1.168 0,-1.25" style="fill:#010101;fill-rule:nonzero;"/><path d="M290.411,476.114c-6.362,1.346 -12.746,2.567 -19.156,3.664c-0.791,0.136 -0.456,1.341 0.332,1.206c6.41,-1.098 12.794,-2.319 19.156,-3.665c0.787,-0.166 0.454,-1.371 -0.332,-1.205" style="fill:#010101;fill-rule:nonzero;"/><path d="M100.188,485.013c-0.465,1.342 -2.89,1.002 -2.524,-0.585c0.157,-0.679 0.777,-1.255 1.504,-1.07c0.816,0.207 1.308,1.109 1.028,1.889c-0.272,0.758 0.935,1.085 1.206,0.332c0.51,-1.42 -0.475,-3.044 -1.902,-3.426c-1.387,-0.372 -2.703,0.609 -3.041,1.943c-0.335,1.321 0.415,2.662 1.775,2.94c1.316,0.269 2.713,-0.401 3.159,-1.691c0.264,-0.761 -0.943,-1.089 -1.205,-0.332" style="fill:#010101;fill-rule:nonzero;"/><path d="M294.911,494.591c0.039,1.655 1.361,3.013 2.991,3.221c1.606,0.205 3.022,-0.925 3.38,-2.475c0.817,-3.542 -3.967,-5.056 -5.894,-2.328c-0.466,0.658 0.618,1.284 1.079,0.631c1.137,-1.609 4.044,-0.734 3.609,1.365c-0.479,2.315 -3.861,1.843 -3.915,-0.414c-0.019,-0.803 -1.269,-0.806 -1.25,0" style="fill:#010101;fill-rule:nonzero;"/><path d="M294.397,485.898c0.427,3.673 6.1,3.732 6.482,-0.045c0.177,-1.752 -0.863,-3.438 -2.58,-3.926c-1.822,-0.517 -3.741,0.285 -4.833,1.776c-0.475,0.649 0.609,1.274 1.08,0.631c1.389,-1.897 5.004,-1.754 5.105,1.024c0.039,1.084 -0.627,2.071 -1.768,2.124c-0.955,0.045 -2.115,-0.548 -2.236,-1.584c-0.092,-0.79 -1.343,-0.799 -1.25,0" style="fill:#010101;fill-rule:nonzero;"/><path d="M291.629,476.571c0.004,2.016 2.086,3.205 3.922,2.588c1.981,-0.665 3.065,-2.913 2.765,-4.899c-0.262,-1.736 -1.585,-3.339 -3.451,-3.32c-1.783,0.018 -3.562,1.42 -3.373,3.308c0.079,0.793 1.33,0.801 1.25,0c-0.115,-1.149 0.87,-1.965 1.958,-2.056c1.172,-0.099 2.033,0.834 2.315,1.893c0.29,1.088 0.009,2.3 -0.757,3.132c-0.953,1.034 -3.375,1.339 -3.379,-0.646c-0.001,-0.804 -1.251,-0.806 -1.25,0" style="fill:#010101;fill-rule:nonzero;"/><path d="M114.254,485.518c-0.799,-0.283 -1.474,-0.786 -1.959,-1.482c-0.075,0.285 -0.15,0.57 -0.224,0.855c0.753,-0.47 1.35,-1.095 1.748,-1.891c0.359,-0.718 -0.718,-1.351 -1.079,-0.631c-0.305,0.609 -0.722,1.082 -1.3,1.442c-0.27,0.168 -0.422,0.571 -0.225,0.855c0.682,0.978 1.584,1.659 2.707,2.057c0.759,0.27 1.086,-0.937 0.332,-1.205" style="fill:#010101;fill-rule:nonzero;"/><path d="M102.488,485.244c0.804,0 0.806,-1.25 0,-1.25c-0.804,0 -0.806,1.25 0,1.25" style="fill:#010101;fill-rule:nonzero;"/><path d="M101.356,485.481c2.836,2.1 6.683,4.449 10.284,4.862c0.68,0.078 1.319,0.056 1.774,-0.543c0.683,-0.898 -0.214,-2.322 0.577,-3.095c0.577,-0.563 -0.308,-1.447 -0.884,-0.884c-0.417,0.407 -0.55,0.733 -0.642,1.309c-0.053,0.331 0.131,0.857 0.011,1.157c-0.494,1.237 -1.411,0.646 -2.282,0.373c-2.979,-0.932 -5.706,-2.406 -8.207,-4.258c-0.647,-0.479 -1.271,0.605 -0.631,1.079" style="fill:#010101;fill-rule:nonzero;"/><path d="M101.694,484.471c4.021,-1.916 8.011,-3.895 11.971,-5.936c-0.306,-0.235 -0.612,-0.47 -0.918,-0.706c-0.37,1.541 -0.74,3.081 -1.109,4.621c-0.188,0.782 1.017,1.116 1.205,0.332c0.37,-1.54 0.739,-3.08 1.109,-4.62c0.131,-0.545 -0.432,-0.957 -0.918,-0.706c-3.96,2.041 -7.95,4.019 -11.971,5.936c-0.726,0.346 -0.092,1.424 0.631,1.079" style="fill:#010101;fill-rule:nonzero;"/><path d="M301.642,487.68c3.962,0.3 7.923,0.6 11.885,0.9c3.823,0.29 9.352,-0.325 12.903,1.089c2.148,0.019 2.843,1.369 2.086,4.05c1.523,2.026 1.658,3.274 0.407,3.745c-0.125,0.351 -0.831,0.506 -0.942,0.895c-0.356,1.248 -0.819,1.981 -0.257,3.352c2.879,7.031 11.578,-0.442 12.237,-5.052c1.414,-9.897 -10.329,-14.028 -17.995,-14.791c-3.115,-0.31 -26.161,-3.281 -20.081,6.237c0.432,0.676 1.514,0.05 1.08,-0.631c1.37,-3.887 3.604,-5.58 6.701,-5.079c1.215,0.064 2.43,0.128 3.646,0.192c2.05,0.108 4.102,0.199 6.15,0.337c4.906,0.332 10.111,0.941 14.243,3.871c4.545,3.222 7.432,10.078 2.59,14.513c-1.431,1.311 -8.224,3.941 -5.221,-3.401c0.041,-0.099 1.475,-1.461 1.6,-1.727c1.586,-3.368 -1.481,-6.334 -4.382,-7.347c-3.331,-1.164 -7.336,-0.94 -10.804,-1.203c-5.282,-0.4 -10.564,-0.8 -15.846,-1.2c-0.802,-0.061 -0.798,1.19 0,1.25" style="fill:#010101;fill-rule:nonzero;"/><path d="M303.962,487.759c-3.961,0.71 -7.884,0.222 -11.545,-1.459c-0.726,-0.334 -1.362,0.743 -0.631,1.079c3.993,1.834 8.181,2.361 12.508,1.585c0.791,-0.141 0.456,-1.346 -0.332,-1.205" style="fill:#010101;fill-rule:nonzero;"/><path d="M305.075,481.881c-4.57,-0.709 -9.074,-0.555 -13.578,0.49c-0.783,0.181 -0.452,1.387 0.332,1.205c4.282,-0.993 8.571,-1.163 12.914,-0.49c0.787,0.122 1.126,-1.082 0.332,-1.205" style="fill:#010101;fill-rule:nonzero;"/><path d="M303.991,489.186c1.683,-1.998 1.516,-5.029 -0.503,-6.744c-0.609,-0.518 -1.498,0.362 -0.884,0.884c1.468,1.247 1.775,3.466 0.503,4.976c-0.515,0.612 0.365,1.5 0.884,0.884" style="fill:#010101;fill-rule:nonzero;"/><path d="M337.592,488.842c2.214,0.794 21.607,5.091 18.8,-1.287c-1.084,-2.461 -5.937,-3.22 -8.209,-3.318c-4.339,-0.187 -8.529,1.273 -12.35,3.203c-0.555,0.281 -0.289,1.184 0.316,1.164c5.158,-0.164 10.316,-0.329 15.474,-0.493c0.713,-0.023 0.837,-1.007 0.166,-1.228c-4.873,-1.604 -9.717,-1.505 -14.515,0.319c-0.745,0.283 -0.422,1.492 0.332,1.205c4.587,-1.743 9.194,-1.851 13.851,-0.318c0.055,-0.41 0.111,-0.819 0.166,-1.228c-5.158,0.164 -10.316,0.329 -15.474,0.493c0.105,0.389 0.21,0.777 0.315,1.165c3.991,-2.016 12.242,-5.235 16.427,-1.911c1.687,0.393 1.562,1.416 -0.374,3.067c-0.455,0.03 -0.91,0.06 -1.364,0.089c-1.199,0.228 -2.894,0.026 -4.1,-0.067c-3.149,-0.244 -6.166,-0.998 -9.129,-2.06c-0.758,-0.272 -1.085,0.935 -0.332,1.205" style="fill:#010101;fill-rule:nonzero;"/><path d="M336.704,487.448c-0.255,0.329 -1.016,0.275 -1.019,-0.228c-0.209,0.208 -0.417,0.417 -0.625,0.625c0.128,-0.011 -0.016,-0.168 -0.034,0.035c-0.018,0.212 0.168,0.044 0.026,0.03c0.201,0.152 0.402,0.305 0.603,0.458c-0.124,-0.334 -0.07,-0.564 0.194,-0.801c-0.252,0.033 -0.505,0.066 -0.757,0.098c0.24,0.145 0.447,0.319 0.445,0.624c-0.044,0.076 -0.11,0.12 -0.198,0.134c0.105,0.144 0.085,0.212 -0.058,0.203c-0.104,-0.18 -0.207,-0.36 -0.31,-0.54c-0.073,0.078 -0.151,0.083 -0.237,0.016l0.437,0.769c0.058,-0.297 0.356,-0.486 0.644,-0.326c-0.096,-0.236 -0.192,-0.471 -0.288,-0.706c-0.088,0.553 -0.569,0.988 -1.156,0.875l0.436,0.437c-0.04,-0.232 0.253,-0.375 0.438,-0.332c-0.124,-0.096 -0.249,-0.191 -0.373,-0.287c0.2,0.32 0.211,0.763 -0.119,1.018c0.16,-0.021 0.321,-0.042 0.481,-0.063c-0.344,-0.054 -0.15,-0.721 0.055,-0.673c-0.124,-0.095 -0.249,-0.191 -0.373,-0.287c0.188,0.357 -0.368,0.881 -0.723,0.714c0.103,0.18 0.207,0.359 0.31,0.539c-0.007,-0.412 0.096,-1.123 0.647,-1.119c0.119,0.001 0.264,0.05 0.35,0.118c-0.017,-0.014 -0.121,0.083 -0.144,0.057c-0.523,-0.613 -1.404,0.275 -0.884,0.883c1.061,1.241 3.084,-0.603 1.893,-1.82c-0.492,-0.502 -1.33,-0.626 -1.957,-0.324c-0.836,0.402 -1.17,1.329 -1.155,2.205c0.003,0.206 0.113,0.448 0.309,0.54c0.727,0.342 1.512,0.198 2.083,-0.372c0.51,-0.508 0.799,-1.408 0.35,-2.052c-0.378,-0.541 -1.218,-0.381 -1.645,0.015c-0.439,0.407 -0.634,1.092 -0.522,1.675c0.111,0.58 0.594,1.158 1.24,1.128c0.759,-0.034 1.199,-1.086 1.202,-1.737c0.004,-0.903 -0.548,-1.636 -1.51,-1.375c-0.845,0.23 -1.304,1.046 -1.158,1.881c0.034,0.196 0.242,0.4 0.437,0.437c1.199,0.229 2.491,-0.481 2.694,-1.749c0.043,-0.272 -0.028,-0.561 -0.288,-0.706c-0.947,-0.526 -2.262,-0.037 -2.48,1.074c-0.069,0.352 0.099,0.645 0.437,0.768c0.489,0.179 1.036,0.056 1.414,-0.304c0.346,-0.329 0.584,-0.957 0.222,-1.359c-0.703,-0.779 -1.939,0.081 -1.908,0.976c0.038,1.108 1.443,1.285 2.152,0.693c0.99,-0.828 0.368,-2.167 -0.559,-2.727c-0.248,-0.15 -0.552,-0.087 -0.758,0.098c-0.57,0.511 -0.783,1.293 -0.516,2.017c0.105,0.284 0.307,0.429 0.603,0.459c1.601,0.158 1.616,-2.707 0.008,-2.565c-0.335,0.03 -0.628,0.262 -0.625,0.625c0.01,1.507 2.198,2.347 3.153,1.112c0.486,-0.629 -0.392,-1.52 -0.884,-0.884" style="fill:#010101;fill-rule:nonzero;"/><path d="M98.187,460.124c17.891,1.53 35.82,2.514 53.758,3.29c8.766,0.378 17.537,0.793 26.308,0.99c8.525,0.191 16.99,0.617 25.403,-1.059c0.39,-0.077 0.803,-0.478 0.874,-0.873c2.096,-11.788 -13.936,-22.972 -24.373,-22.071c-20.463,1.767 -40.998,2.387 -61.463,4.112c-1.591,0.134 -1.606,2.635 0,2.5c16.565,-1.396 33.203,-1.624 49.764,-3.063c3.625,-0.314 7.243,-0.649 10.866,-0.967c4.922,-0.434 8.327,0.402 12.285,3.232c2.428,1.735 4.812,3.598 6.831,5.809c1.07,1.171 2.085,2.444 2.797,3.871c1.634,3.277 1.348,4.61 -1.936,5.665c-3.876,1.246 -9.325,0.609 -13.334,0.53c-3.864,-0.076 -7.731,-0.15 -11.593,-0.275c-8.453,-0.274 -16.906,-0.654 -25.356,-1.029c-16.962,-0.755 -33.913,-1.715 -50.831,-3.162c-1.603,-0.137 -1.594,2.364 0,2.5" style="fill:#010101;fill-rule:nonzero;"/><path d="M173.472,418.638c5.089,0.644 10.57,0.974 15.295,3.141c9.352,4.287 1.08,13.311 -3.036,18.338c-1.011,1.235 0.748,3.014 1.768,1.768c4.007,-4.895 12.249,-13.521 6.143,-19.894c-4.769,-4.978 -13.793,-5.046 -20.17,-5.853c-1.592,-0.201 -1.577,2.301 0,2.5" style="fill:#010101;fill-rule:nonzero;"/><path d="M194.475,427.532c6.339,2.21 11.315,7.577 12.136,14.378c0.349,2.894 -0.118,5.796 -0.068,8.702c0.066,3.908 0.888,8.612 -3.374,10.736c-1.44,0.718 -0.175,2.875 1.262,2.159c2.705,-1.348 4.133,-3.709 4.605,-6.662c0.418,-2.62 -0.052,-5.314 0.004,-7.949c0.052,-2.456 0.384,-4.873 0.085,-7.327c-0.95,-7.812 -6.743,-13.922 -13.985,-16.448c-1.523,-0.531 -2.177,1.884 -0.665,2.411" style="fill:#010101;fill-rule:nonzero;"/><path d="M107.38,453.943c20.3,0.576 40.602,1.116 60.909,1.354c1.609,0.019 1.61,-2.481 0,-2.5c-20.307,-0.238 -40.609,-0.778 -60.909,-1.354c-1.609,-0.046 -1.608,2.454 0,2.5" style="fill:#010101;fill-rule:nonzero;"/><path d="M205.459,459.816c-2.649,10.218 -18.541,8.104 -26.481,8.375c-11.835,0.403 -23.679,0.518 -35.521,0.47c-11.495,-0.046 -22.989,-0.245 -34.482,-0.475c-5.602,-0.112 -11.203,-0.232 -16.805,-0.345c-2.921,-0.059 -6.017,0.146 -8.925,-0.173c-2.237,-0.245 -3.814,-1.538 -5.879,-2.256c-1.523,-0.529 -2.177,1.885 -0.664,2.411c1.633,0.567 2.917,1.864 4.557,2.31c2.905,0.789 6.882,0.127 9.921,0.188c6.918,0.139 13.836,0.289 20.755,0.423c13.46,0.262 26.923,0.467 40.387,0.421c13.194,-0.045 26.369,-0.416 39.548,-1.032c6.874,-0.322 14.065,-2.189 16,-9.652c0.404,-1.559 -2.007,-2.224 -2.411,-0.665" style="fill:#010101;fill-rule:nonzero;"/><path d="M137.816,444.506l11.281,-14.025c0.5,-0.621 -0.379,-1.511 -0.884,-0.884c-3.76,4.675 -7.52,9.35 -11.281,14.025c-0.499,0.621 0.38,1.511 0.884,0.884" style="fill:#010101;fill-rule:nonzero;"/><path d="M159.796,443.897c2.933,-5.546 5.867,-11.092 8.8,-16.638c0.376,-0.711 -0.702,-1.343 -1.079,-0.631c-2.933,5.546 -5.867,11.092 -8.8,16.638c-0.376,0.711 0.702,1.343 1.079,0.631" style="fill:#010101;fill-rule:nonzero;"/><path d="M175.4,441.924c2.968,-7.248 5.936,-14.496 8.904,-21.744c0.304,-0.744 -0.905,-1.068 -1.206,-0.332c-2.968,7.248 -5.936,14.496 -8.903,21.744c-0.305,0.744 0.904,1.068 1.205,0.332" style="fill:#010101;fill-rule:nonzero;"/><path d="M199.368,451.274c1.475,-6.819 2.378,-13.678 2.715,-20.647c0.039,-0.804 -1.211,-0.802 -1.25,0c-0.331,6.851 -1.22,13.61 -2.67,20.315c-0.17,0.784 1.035,1.119 1.205,0.332" style="fill:#010101;fill-rule:nonzero;"/><path d="M136.593,444.48c-2.242,0.868 -3.855,3.093 -3.419,5.568c0.45,2.56 2.967,4.181 5.46,4.063c0.801,-0.038 0.806,-1.288 0,-1.25c-1.784,0.084 -3.638,-0.893 -4.157,-2.706c-0.538,-1.882 0.706,-3.795 2.448,-4.47c0.743,-0.287 0.42,-1.496 -0.332,-1.205" style="fill:#010101;fill-rule:nonzero;"/><path d="M160.989,443.203c-2.739,0.55 -5.523,2.63 -5.632,5.648c-0.102,2.829 2.401,5.271 5.212,5.025c0.795,-0.069 0.803,-1.32 0,-1.25c-2.452,0.215 -4.507,-2.158 -3.82,-4.577c0.584,-2.058 2.601,-3.245 4.572,-3.641c0.788,-0.158 0.455,-1.363 -0.332,-1.205" style="fill:#010101;fill-rule:nonzero;"/><path d="M175.325,443.327c4.337,1.645 9.519,4.615 9.799,9.86c0.318,5.982 -4.955,6.771 -9.363,8.32c-0.754,0.265 -0.43,1.473 0.332,1.205c5.066,-1.78 10.661,-2.842 10.281,-9.525c-0.334,-5.867 -5.784,-9.194 -10.717,-11.065c-0.753,-0.286 -1.078,0.922 -0.332,1.205" style="fill:#010101;fill-rule:nonzero;"/><path d="M110.692,461.233c0.024,0.047 0.049,0.095 0.073,0.142c0.13,0.253 0.445,0.346 0.706,0.287c0.909,-0.203 1.135,-1.334 0.189,-1.679c-1.206,-0.44 -2.349,1.133 -2.785,2.058c-1.388,2.946 0.588,6.138 3.666,6.71c0.786,0.147 1.124,-1.058 0.332,-1.205c-1.416,-0.263 -2.699,-1.143 -3.1,-2.593c-0.187,-0.673 -0.14,-1.398 0.094,-2.054c0.145,-0.404 1.252,-1.497 1.197,-1.876l0.161,-0.608c-0.029,0.014 -0.058,0.028 -0.086,0.042c0.235,0.096 0.47,0.191 0.705,0.287c-0.024,-0.047 -0.048,-0.095 -0.073,-0.142c-0.368,-0.716 -1.447,-0.084 -1.079,0.631" style="fill:#010101;fill-rule:nonzero;"/><path d="M136.086,461.231c-2.027,0.522 -3.595,2.486 -3.243,4.637c0.351,2.144 2.486,3.544 4.574,3.4c0.798,-0.055 0.804,-1.305 0,-1.25c-1.487,0.102 -3.039,-0.758 -3.325,-2.32c-0.283,-1.544 0.895,-2.893 2.326,-3.262c0.779,-0.2 0.449,-1.406 -0.332,-1.205" style="fill:#010101;fill-rule:nonzero;"/><path d="M162.585,463.894c0.402,-0.491 0.803,-0.981 1.205,-1.472c0.424,-0.517 -0.108,-1.375 -0.757,-0.981c-1.856,1.126 -1.989,3.578 -0.841,5.295c1.558,2.33 4.814,2.426 7.321,2.354c0.803,-0.022 0.806,-1.273 0,-1.25c-1.801,0.052 -3.821,0.089 -5.391,-0.935c-1.405,-0.916 -2.149,-3.359 -0.458,-4.385c-0.253,-0.327 -0.505,-0.654 -0.758,-0.982c-0.401,0.491 -0.803,0.982 -1.205,1.472c-0.506,0.618 0.374,1.507 0.884,0.884" style="fill:#010101;fill-rule:nonzero;"/><path d="M166.959,451.185c2.132,0.076 2.705,2.789 1.719,4.33c-1.041,1.626 -3.127,2.301 -4.888,2.77c-0.777,0.207 -0.447,1.413 0.332,1.206c2.536,-0.677 5.853,-2.026 6.268,-5.008c0.306,-2.209 -1.107,-4.465 -3.431,-4.548c-0.805,-0.029 -0.803,1.221 0,1.25" style="fill:#010101;fill-rule:nonzero;"/><path d="M171.426,450.898c1.368,1.121 1.798,2.985 0.911,4.546c-0.399,0.7 0.681,1.331 1.079,0.631c1.143,-2.012 0.692,-4.587 -1.106,-6.061c-0.617,-0.506 -1.507,0.374 -0.884,0.884" style="fill:#010101;fill-rule:nonzero;"/><path d="M79.57,465.767c1.011,0.871 2.253,1.38 3.602,1.236c0.791,-0.085 0.8,-1.336 0,-1.25c-1.021,0.109 -1.94,-0.2 -2.718,-0.87c-0.607,-0.522 -1.495,0.358 -0.884,0.884" style="fill:#010101;fill-rule:nonzero;"/><path d="M81.678,464.318c0.69,1.248 2.098,1.888 3.487,1.546c0.78,-0.192 0.45,-1.398 -0.333,-1.205c-0.856,0.21 -1.658,-0.218 -2.075,-0.972c-0.389,-0.704 -1.469,-0.074 -1.079,0.631" style="fill:#010101;fill-rule:nonzero;"/><path d="M129.026,434.009c16.044,-0.064 32.098,0.268 48.14,0.518c6.598,0.102 13.818,0.407 19.551,4.077c7.121,4.559 8.841,12.969 9.92,20.752c0.11,0.793 1.315,0.455 1.206,-0.333c-0.921,-6.641 -2.215,-13.767 -7.097,-18.757c-4.322,-4.417 -10.428,-6.035 -16.402,-6.636c-8.197,-0.824 -16.589,-0.442 -24.816,-0.576c-10.167,-0.165 -20.333,-0.336 -30.502,-0.295c-0.804,0.003 -0.806,1.253 0,1.25" style="fill:#010101;fill-rule:nonzero;"/><path d="M171.787,424.003c4.249,0.207 8.488,0.546 12.735,0.784c4.5,0.252 9.771,-0.424 13.558,2.516c0.628,0.487 1.518,-0.391 0.884,-0.884c-2.839,-2.204 -5.814,-2.563 -9.352,-2.679c-5.95,-0.194 -11.879,-0.698 -17.825,-0.987c-0.804,-0.039 -0.802,1.211 0,1.25" style="fill:#010101;fill-rule:nonzero;"/><path d="M209.761,162.3c-8.543,-2.648 -17.722,-2.253 -25.934,1.382c-7.167,3.173 -14.803,9.24 -15.662,17.581c-0.825,8.018 4.652,15.297 10.801,19.798c8.395,6.143 19.272,8.313 29.43,9.228c24.103,2.173 49.234,1.099 73.309,-0.961c11.539,-0.987 23.354,-2.166 34.654,-4.79c7.288,-1.693 15.288,-4.536 19.993,-10.708c5.479,-7.188 4.001,-16.579 -1.345,-23.39c-7.046,-8.974 -18.776,-11.543 -29.372,-13.715c-1.571,-0.321 -2.242,2.088 -0.665,2.411c8.694,1.782 18.261,3.618 25.112,9.695c6.922,6.141 10.251,16.686 3.621,24.31c-4.77,5.484 -12.453,7.815 -19.323,9.277c-9.483,2.017 -19.214,3.143 -28.857,4.065c-19.111,1.828 -38.331,2.184 -57.518,2.008c-17.151,-0.156 -39.537,0.432 -52.074,-13.493c-3.66,-4.065 -6.471,-9.795 -4.933,-15.363c1.425,-5.157 5.658,-9.014 10.091,-11.72c8.417,-5.136 18.666,-6.1 28.007,-3.204c1.541,0.477 2.199,-1.935 0.665,-2.411" style="fill:#010101;fill-rule:nonzero;"/><path d="M207.592,163.567c-3.653,-24.754 30.817,-34.776 49.566,-35.748c20.058,-1.04 42.98,9.937 44.94,32.148c0.14,1.591 2.641,1.605 2.5,0c-2.151,-24.377 -27.171,-36.242 -49.246,-34.529c-20.236,1.571 -54.033,12.622 -50.171,38.794c0.234,1.585 2.644,0.911 2.411,-0.665" style="fill:#010101;fill-rule:nonzero;"/><path d="M170.327,190.701c-25.378,2.879 -53.158,5.865 -76.315,-7.422c-5.12,-2.938 -10.585,-6.71 -13.877,-11.721c-4.128,-6.282 -1.084,-14.023 3.332,-19.284c6.939,-8.268 18.345,-11.966 28.77,-9.283c1.559,0.402 2.224,-2.009 0.664,-2.41c-10.435,-2.686 -21.699,0.428 -29.399,7.985c-3.813,3.743 -6.914,8.778 -7.712,14.126c-0.907,6.068 2.058,10.931 6.349,14.973c23.488,22.126 58.792,18.871 88.188,15.536c1.58,-0.179 1.599,-2.681 0,-2.5" style="fill:#010101;fill-rule:nonzero;"/><path d="M110.254,141.811c-4.789,-6.533 -6.601,-14.719 -4.747,-22.658c1.915,-8.198 7.719,-14.051 14.572,-18.536c13.143,-8.602 32.979,-14.337 44.366,0.216c0.991,1.266 2.749,-0.515 1.768,-1.768c-12.45,-15.911 -34.674,-9.454 -48.779,0.321c-7.023,4.867 -12.707,11.264 -14.487,19.82c-1.738,8.357 0.109,16.991 5.148,23.867c0.942,1.284 3.112,0.038 2.159,-1.262" style="fill:#010101;fill-rule:nonzero;"/><path d="M340.007,183.385c23.572,-9.088 33.193,-38.432 17.799,-59.131c-7.501,-10.087 -19.415,-15.559 -30.77,-20.111c-12.389,-4.968 -26.262,-8.65 -38.921,-2.586c-1.45,0.694 -0.183,2.851 1.262,2.158c11.452,-5.486 24.208,-2.124 35.452,2.229c10.402,4.027 21.504,8.891 29.041,17.416c16.699,18.889 8.624,48.688 -14.528,57.614c-1.485,0.573 -0.84,2.991 0.665,2.411" style="fill:#010101;fill-rule:nonzero;"/><path d="M291.876,101.13c-12.148,-24.211 -37.113,-40.675 -63.995,-43.224c-29.542,-2.801 -58.727,13.047 -65.753,43.114c-0.365,1.565 2.045,2.233 2.411,0.664c6.91,-29.569 35.893,-44.444 64.747,-41.131c25.504,2.928 48.903,18.863 60.431,41.839c0.722,1.438 2.879,0.174 2.159,-1.262" style="fill:#010101;fill-rule:nonzero;"/><path d="M91.501,142.253c-25.123,-22.497 -23.573,-62.492 1.971,-83.902c26.915,-22.559 67.245,-15.914 88.017,11.614c0.957,1.268 3.128,0.024 2.158,-1.262c-16.416,-21.757 -45.83,-32.626 -72.053,-23.482c-25.106,8.754 -42.812,33.156 -40.724,60.022c1.15,14.811 7.775,28.849 18.863,38.778c1.196,1.07 2.97,-0.692 1.768,-1.768" style="fill:#010101;fill-rule:nonzero;"/><path d="M140.942,58.183c-13.171,-4.109 -27.73,0.236 -36.431,10.962c-1.005,1.239 0.754,3.018 1.768,1.767c8.173,-10.075 21.601,-14.186 33.998,-10.318c1.54,0.48 2.198,-1.933 0.665,-2.411" style="fill:#010101;fill-rule:nonzero;"/><path d="M98.994,174.156c16.103,8.452 34.129,11.993 52.229,10.166c1.585,-0.16 1.602,-2.662 0,-2.5c-17.679,1.785 -35.228,-1.564 -50.967,-9.825c-1.423,-0.747 -2.689,1.41 -1.262,2.159" style="fill:#010101;fill-rule:nonzero;"/><path d="M186.001,180.174c-2.311,5.689 0.284,11.77 5.02,15.38c6.205,4.731 14.672,4.092 21.983,3.476c1.591,-0.134 1.605,-2.635 0,-2.5c-5.539,0.467 -11.512,1.04 -16.832,-0.975c-5.862,-2.22 -10.293,-8.481 -7.76,-14.716c0.605,-1.49 -1.812,-2.139 -2.411,-0.665" style="fill:#010101;fill-rule:nonzero;"/><path d="M304.725,197.336c7.697,0.623 15.012,-3.487 18.508,-10.367c0.727,-1.431 -1.429,-2.698 -2.159,-1.262c-3.13,6.162 -9.466,9.686 -16.349,9.129c-1.604,-0.13 -1.595,2.371 0,2.5" style="fill:#010101;fill-rule:nonzero;"/><path d="M347.7,134.259c4.268,7.312 3.773,16.314 -1.489,23.018c-0.982,1.251 0.775,3.033 1.768,1.767c5.951,-7.581 6.761,-17.684 1.88,-26.047c-0.811,-1.389 -2.973,-0.132 -2.159,1.262" style="fill:#010101;fill-rule:nonzero;"/><path d="M230.337,154.664c7.968,-9.831 21.436,-13.257 33.139,-8.45c1.487,0.611 2.135,-1.807 0.664,-2.411c-12.439,-5.109 -27.105,-1.351 -35.571,9.093c-1.004,1.239 0.754,3.019 1.768,1.768" style="fill:#010101;fill-rule:nonzero;"/><path d="M186.063,92.486c-1.261,-8.887 13.851,-12.515 19.961,-14.033c8.09,-2.011 16.344,-2.535 24.634,-1.849c1.604,0.133 1.595,-2.368 0,-2.5c-11.498,-0.952 -23.064,0.5 -33.862,4.638c-6.315,2.42 -14.27,6.473 -13.144,14.409c0.225,1.586 2.635,0.911 2.411,-0.665" style="fill:#010101;fill-rule:nonzero;"/><path d="M291.327,414.025c32.998,-0.143 65.996,-0.285 98.994,-0.428c1.608,-0.007 1.611,-2.507 0,-2.5c-32.998,0.143 -65.996,0.285 -98.994,0.428c-1.608,0.007 -1.612,2.507 0,2.5" style="fill:#010101;fill-rule:nonzero;"/><path d="M42.554,414.618c-10.014,1.222 -20.027,2.443 -30.041,3.665c-1.577,0.192 -1.596,2.695 0,2.5c10.014,-1.222 20.027,-2.443 30.041,-3.665c1.577,-0.192 1.596,-2.695 0,-2.5" style="fill:#010101;fill-rule:nonzero;"/><path d="M184.208,57.024c11.486,-11.24 23.491,-21.911 36,-32c1.252,-1.01 -0.526,-2.769 -1.768,-1.768c-12.509,10.089 -24.514,20.76 -36,32c-1.152,1.127 0.617,2.895 1.768,1.768" style="fill:#010101;fill-rule:nonzero;"/><path d="M178.404,45.771c1,-1.333 2,-2.667 3,-4c0.408,-0.544 0.084,-1.392 -0.448,-1.71c-0.635,-0.38 -1.308,-0.089 -1.711,0.448c-1,1.334 -2,2.667 -3,4c-0.408,0.544 -0.083,1.392 0.449,1.71c0.635,0.38 1.307,0.089 1.71,-0.448" style="fill:#010101;fill-rule:nonzero;"/><path d="M155.484,38.457c4.073,-12.309 8.145,-24.619 12.218,-36.928c0.507,-1.531 -1.907,-2.187 -2.411,-0.664c-4.072,12.309 -8.145,24.618 -12.218,36.927c-0.506,1.531 1.907,2.188 2.411,0.665" style="fill:#010101;fill-rule:nonzero;"/><path d="M145.53,34.472c0.667,-2.667 1.333,-5.333 2,-8c0.39,-1.561 -2.02,-2.227 -2.411,-0.665c-0.666,2.667 -1.333,5.334 -2,8c-0.39,1.561 2.02,2.227 2.411,0.665" style="fill:#010101;fill-rule:nonzero;"/><path d="M110.49,39.461c-4.446,-8.134 -7.747,-16.656 -9.96,-25.653c-0.384,-1.562 -2.796,-0.9 -2.411,0.664c2.262,9.195 5.672,17.944 10.212,26.251c0.772,1.412 2.932,0.152 2.159,-1.262" style="fill:#010101;fill-rule:nonzero;"/><path d="M97.404,42.509c-1.333,-2 -2.667,-4 -4,-6c-0.888,-1.332 -3.055,-0.082 -2.159,1.262c1.334,2 2.667,4 4,6c0.889,1.332 3.055,0.082 2.159,-1.262" style="fill:#010101;fill-rule:nonzero;"/><path d="M67.762,72.474c-19.961,-4.535 -40.131,-7.999 -60.458,-10.41c-1.595,-0.189 -1.581,2.313 0,2.5c20.106,2.385 40.05,5.836 59.793,10.321c1.567,0.356 2.236,-2.054 0.665,-2.411" style="fill:#010101;fill-rule:nonzero;"/><path d="M60.332,85.825c-5.334,-0.662 -10.668,-1.325 -16.002,-1.987c-1.592,-0.198 -1.578,2.304 0,2.5c5.334,0.662 10.668,1.325 16.002,1.987c1.593,0.198 1.578,-2.304 0,-2.5" style="fill:#010101;fill-rule:nonzero;"/><path d="M61.742,123.13c-13.128,9.211 -26.824,17.524 -41.055,24.919c-1.428,0.742 -0.166,2.9 1.262,2.158c14.23,-7.394 27.927,-15.707 41.055,-24.918c1.307,-0.918 0.059,-3.086 -1.262,-2.159" style="fill:#010101;fill-rule:nonzero;"/><path d="M62.468,132.278c-2.364,2.976 -5.301,5.241 -8.78,6.771c-1.469,0.647 -0.198,2.801 1.262,2.159c3.647,-1.605 6.807,-4.042 9.286,-7.162c0.99,-1.247 -0.767,-3.028 -1.768,-1.768" style="fill:#010101;fill-rule:nonzero;"/><path d="M61.721,402.589c16.828,-9.959 42.933,-17.287 59.068,-2.12c6.889,6.476 10.318,16.154 7.945,25.439c-2.721,10.651 -11.273,18.696 -19.999,24.752c-1.312,0.911 -0.064,3.079 1.262,2.158c9.087,-6.306 17.853,-14.561 20.967,-25.539c2.676,-9.431 -0.093,-19.37 -6.517,-26.629c-16.364,-18.491 -45.54,-11.137 -63.988,-0.22c-1.383,0.819 -0.127,2.981 1.262,2.159" style="fill:#010101;fill-rule:nonzero;"/><path d="M134.094,424.797c-1.004,0.076 -1.947,-0.01 -2.912,-0.295c-1.546,-0.456 -2.207,1.956 -0.665,2.41c1.16,0.343 2.371,0.477 3.577,0.385c0.673,-0.051 1.25,-0.538 1.25,-1.25c0,-0.637 -0.573,-1.302 -1.25,-1.25" style="fill:#010101;fill-rule:nonzero;"/><path d="M94.879,440.262c1.506,1.042 2.866,2.248 4.045,3.652c1.036,1.233 2.796,-0.543 1.768,-1.768c-1.316,-1.567 -2.872,-2.88 -4.551,-4.043c-1.326,-0.918 -2.577,1.248 -1.262,2.159" style="fill:#010101;fill-rule:nonzero;"/><path d="M69.333,419.514c6.09,8.168 13.889,13.944 22.666,18.965c1.399,0.8 2.66,-1.359 1.262,-2.159c-8.361,-4.782 -15.962,-10.279 -21.769,-18.068c-0.951,-1.275 -3.122,-0.03 -2.159,1.262" style="fill:#010101;fill-rule:nonzero;"/><path d="M62.11,408.358c2.112,3.485 4.257,6.946 6.597,10.283c0.917,1.308 3.086,0.06 2.159,-1.261c-2.34,-3.338 -4.486,-6.799 -6.597,-10.284c-0.833,-1.374 -2.996,-0.119 -2.159,1.262" style="fill:#010101;fill-rule:nonzero;"/><path d="M72.388,402.936c1.298,6.388 6.625,11.632 11.212,15.948c5.451,5.127 11.628,9.351 18.21,12.886c1.417,0.762 2.681,-1.396 1.262,-2.158c-5.915,-3.178 -11.485,-6.883 -16.489,-11.379c-4.692,-4.215 -10.489,-9.584 -11.784,-15.962c-0.32,-1.575 -2.731,-0.908 -2.411,0.665" style="fill:#010101;fill-rule:nonzero;"/><path d="M62.86,409.017c3.596,-0.301 6.731,4.861 8.708,7.313c3.164,3.923 6.209,8.044 10.136,11.248c6.29,5.132 15.211,8.294 18,16.596c0.509,1.518 2.924,0.867 2.41,-0.664c-3.142,-9.358 -12.658,-12.473 -19.549,-18.457c-4.24,-3.681 -7.469,-8.425 -11.026,-12.733c-2.142,-2.595 -4.945,-6.115 -8.679,-5.803c-1.592,0.133 -1.606,2.634 0,2.5" style="fill:#010101;fill-rule:nonzero;"/><path d="M121.875,395.458c-0.326,-3.446 0.701,-6.543 3.179,-8.991c2.292,-2.264 -1.243,-5.799 -3.536,-3.535c-3.329,3.288 -5.085,7.848 -4.643,12.526c0.3,3.176 5.303,3.207 5,0" style="fill:#010101;fill-rule:nonzero;"/><path d="M121.656,385.248c-0.157,4.212 1.931,7.89 5.575,9.983c1.318,0.757 3.347,0.117 3.672,-1.494c0.932,-4.606 4.246,-7.805 8.861,-8.635c3.162,-0.569 1.822,-5.389 -1.329,-4.822c-6.173,1.111 -11.112,5.99 -12.353,12.128c1.224,-0.498 2.448,-0.996 3.673,-1.494c-2.194,-1.26 -3.193,-3.153 -3.099,-5.666c0.12,-3.218 -4.88,-3.213 -5,0" style="fill:#010101;fill-rule:nonzero;"/><path d="M138.069,382.941c-1.146,3.137 -1.836,7.022 1.03,9.523c4.076,3.557 10.799,-2.205 14.651,1.898c0.403,0.43 0.829,-0.969 -0.427,-0.03c-0.649,0.484 -1.492,0.577 -2.119,1.15c-0.924,0.844 -1.376,1.854 -1.345,3.068c0.038,1.558 0.697,2.073 1.814,2.955c2.633,2.081 5.05,3.987 3.189,7.864c-1.386,2.887 2.924,5.427 4.317,2.524c3.077,-6.411 -0.017,-11.565 -5.509,-15.038l1.239,2.159c0.114,1.06 4.037,-2.223 4.22,-2.634c0.81,-1.817 0.096,-3.738 -1.197,-5.092c-1.76,-1.843 -4.713,-2.689 -7.141,-3.072c-2.937,-0.463 -9.897,1.519 -7.901,-3.946c1.106,-3.027 -3.724,-4.332 -4.821,-1.329" style="fill:#010101;fill-rule:nonzero;"/><path d="M155.506,411.13c-2.649,-1.778 -5.599,-2.144 -8.575,-0.998c-1.389,0.535 -2.489,2.221 -1.494,3.672c1.784,2.605 3.084,5.284 3.969,8.323c1.025,-1.025 2.05,-2.05 3.075,-3.075c-7.033,-1.273 -14.195,-0.693 -16.337,7.24c1.523,-0.199 3.046,-0.398 4.57,-0.597c-2.606,-3.457 -6.289,-4.435 -10.23,-2.584c-2.911,1.367 -0.375,5.679 2.523,4.317c1.13,0.264 2.26,0.527 3.389,0.791c1.228,1.629 3.961,1.655 4.57,-0.597c1.279,-4.741 6.179,-4.474 10.186,-3.749c1.801,0.326 3.647,-1.112 3.075,-3.075c-1.002,-3.442 -2.445,-6.557 -4.473,-9.517c-0.498,1.224 -0.996,2.448 -1.494,3.672c1.756,-0.676 3.133,-0.573 4.722,0.494c2.68,1.799 5.185,-2.531 2.524,-4.317" style="fill:#010101;fill-rule:nonzero;"/><path d="M168.758,427.274c1.488,-3.442 3.178,-6.773 5.076,-10.007c0.408,-0.696 -0.672,-1.325 -1.079,-0.631c-1.898,3.234 -3.588,6.565 -5.076,10.007c-0.316,0.731 0.76,1.368 1.079,0.631" style="fill:#010101;fill-rule:nonzero;"/><path d="M148.572,432.166c-0.065,-2.982 2.486,-5.287 4.244,-7.451c1.635,-2.013 3.271,-4.026 4.906,-6.04c0.503,-0.619 -0.377,-1.508 -0.884,-0.883c-2.335,2.875 -4.712,5.721 -7.008,8.627c-1.39,1.759 -2.559,3.429 -2.508,5.747c0.018,0.803 1.268,0.806 1.25,0" style="fill:#010101;fill-rule:nonzero;"/><path d="M151.2,418.615c7.611,0.455 15.199,0.396 22.802,-0.178c0.797,-0.06 0.803,-1.311 0,-1.25c-7.603,0.574 -15.192,0.633 -22.802,0.178c-0.804,-0.048 -0.801,1.202 0,1.25" style="fill:#010101;fill-rule:nonzero;"/><path d="M171.208,423.133c-6.357,-0.405 -12.715,-0.809 -19.072,-1.214c-0.804,-0.051 -0.801,1.199 0,1.25c6.357,0.405 12.715,0.809 19.072,1.214c0.803,0.051 0.8,-1.199 0,-1.25" style="fill:#010101;fill-rule:nonzero;"/><path d="M150.318,417.661c4.345,0.322 8.706,0.664 13.067,0.583c4.225,-0.079 8.742,-1.371 12.835,-0.001c0.764,0.256 1.092,-0.951 0.332,-1.205c-3.72,-1.245 -7.474,-0.271 -11.303,-0.098c-4.981,0.226 -9.967,-0.161 -14.931,-0.529c-0.802,-0.059 -0.799,1.191 0,1.25" style="fill:#010101;fill-rule:nonzero;"/><path d="M72.527,447.296c-0.484,-0.249 0.967,-3.211 1.329,-3.71c0.374,-0.514 0.865,-0.983 1.298,-1.448c0.994,-1.068 2.035,-2.092 3.115,-3.073c2.246,-2.039 4.672,-3.842 7.227,-5.473c0.676,-0.432 0.05,-1.514 -0.631,-1.08c-2.315,1.478 -18.418,13.063 -12.969,15.863c0.714,0.367 1.348,-0.711 0.631,-1.079" style="fill:#010101;fill-rule:nonzero;"/><path d="M132.205,400.085c0.614,2.071 1.229,4.143 1.843,6.214c3.046,-1.284 6.093,-2.569 9.139,-3.853c-1.024,-2.004 -2.047,-4.008 -3.071,-6.012c-2.644,-5.178 -10.443,-1.513 -9.138,3.852c0.47,1.935 0.94,3.87 1.411,5.805c2.785,-1.622 5.571,-3.243 8.357,-4.865c-1.905,-2.292 -3.856,-4.536 -5.862,-6.74c-2.812,-3.089 -8.852,-0.773 -8.535,3.536c0.194,2.644 0.755,4.691 1.873,7.075c2.878,-1.682 5.756,-3.364 8.635,-5.047c-2.726,-4.072 -5.906,-7.338 -9.789,-10.303c-3.636,-2.776 -8.38,1.795 -7.345,5.647c1.21,4.505 4.105,8.035 6.282,12.087c2.477,4.613 4.078,9.5 5.176,14.606c0.857,3.984 7.367,5.118 9.139,1.195c2.27,-5.029 3.641,-9.978 4.351,-15.447l-10,0c-0.323,3.331 0.067,6.456 1.159,9.621c1.387,4.018 6.818,5.012 9.139,1.194c2.209,-3.632 3.278,-7.302 3.753,-11.504c0.68,-6.011 -7.964,-6.168 -9.821,-1.329c-1.691,4.405 -0.189,8.56 1.429,12.747c3.046,-1.284 6.093,-2.568 9.139,-3.853c-1.012,-1.685 -1.817,-3.332 -2.239,-5.264c-0.377,-1.732 0.541,-4.397 -1.27,-3.492c-1.284,0.168 -2.569,0.336 -3.853,0.504c-0.821,-0.564 -0.797,-0.444 0.073,0.36c0.657,0.708 1.315,1.417 1.972,2.125c1.315,1.417 2.629,2.834 3.944,4.251c2.4,2.587 6.02,1.435 7.853,-1.012c1.894,-2.528 2.056,-5.632 0.963,-8.539c-1.302,-3.464 -5.036,-4.905 -6.439,-8.108c0.168,1.284 0.336,2.569 0.504,3.853c0.023,0.285 0.045,0.571 0.068,0.856l0,-10c-2.606,0.044 -4.546,1.161 -6.988,1.624c-1.87,0.354 -0.23,1.239 -1.599,-0.842c-0.555,-0.844 -1.285,-1.538 -2.117,-2.107c-4.217,-2.886 -7.999,-0.515 -10.359,3.246l2.989,-2.298c-0.235,0.045 -0.47,0.09 -0.705,0.135c2.109,1.607 4.219,3.215 6.329,4.822c0.143,-1.07 0.619,-1.961 1.427,-2.673c4.37,-4.714 -2.685,-11.803 -7.072,-7.071c-2.695,2.908 -3.869,5.847 -4.355,9.744c-0.436,3.489 3.525,5.357 6.329,4.821c2.481,-0.474 3.527,-2.194 4.805,-4.183c-0.996,0.766 -1.992,1.532 -2.988,2.298c-2.328,-0.872 -2.739,-0.537 -1.234,1.005c0.444,0.752 1.042,1.35 1.794,1.794c1.183,0.876 2.43,1.347 3.882,1.554c3.665,0.522 6.392,-1.811 9.862,-1.869c6.487,-0.109 6.378,-9.576 0,-10c-4.047,-0.269 -8.329,1.884 -9.533,5.996c-0.579,1.978 -0.196,3.942 0.924,5.706c0.507,0.799 5.158,4.816 4.878,5.189c2.618,-0.337 5.236,-0.674 7.853,-1.012c-3.661,-3.946 -11.271,-14.644 -16.81,-6.629c-3.889,5.627 -0.614,15.112 2.477,20.263c2.801,4.667 11.249,1.61 9.139,-3.852c-0.916,-2.369 -2.406,-4.886 -1.429,-7.431c-3.274,-0.443 -6.548,-0.886 -9.822,-1.329c-0.272,2.405 -1.143,4.41 -2.388,6.457l9.139,1.195c-0.834,-2.419 -1.048,-4.428 -0.802,-6.963c0.629,-6.478 -9.19,-6.237 -10,0c-0.465,3.582 -1.502,7.112 -2.986,10.399l9.139,1.195c-1.03,-4.791 -2.564,-9.362 -4.605,-13.819c-1.984,-4.334 -5.621,-8.289 -6.853,-12.874c-2.449,1.882 -4.897,3.764 -7.345,5.646c2.46,1.878 4.487,4.154 6.201,6.715c3.613,5.4 11.356,0.757 8.635,-5.047l-0.508,-2.028c-2.846,1.178 -5.691,2.357 -8.536,3.535c2.006,2.204 3.958,4.448 5.862,6.74c3.367,4.055 9.451,-0.362 8.357,-4.864c-0.471,-1.935 -0.941,-3.87 -1.412,-5.805c-3.046,1.284 -6.092,2.569 -9.138,3.853c1.023,2.004 2.047,4.008 3.07,6.012c2.585,5.063 10.741,1.55 9.139,-3.852c-0.614,-2.072 -1.229,-4.143 -1.843,-6.214c-1.826,-6.156 -11.48,-3.535 -9.643,2.658" style="fill:#010101;fill-rule:nonzero;"/><path d="M139.788,374.968c0.45,3.721 0.901,7.442 1.351,11.163c0.191,1.577 2.693,1.596 2.5,0c-0.45,-3.721 -0.901,-7.442 -1.351,-11.163c-0.191,-1.577 -2.693,-1.596 -2.5,0" style="fill:#010101;fill-rule:nonzero;"/><path d="M144.436,391.236c0.261,-2.662 1.604,-5.128 3.728,-6.765c1.256,-0.968 0.013,-3.141 -1.262,-2.158c-2.891,2.228 -4.609,5.284 -4.966,8.923c-0.157,1.6 2.344,1.589 2.5,0" style="fill:#010101;fill-rule:nonzero;"/><path d="M145.593,389.807c0.847,-1.009 1.886,-1.683 3.166,-2.004c1.559,-0.391 0.899,-2.803 -0.665,-2.411c-1.661,0.417 -3.166,1.333 -4.269,2.647c-0.434,0.517 -0.506,1.261 0,1.768c0.446,0.446 1.332,0.519 1.768,0" style="fill:#010101;fill-rule:nonzero;"/><path d="M128.632,390.783c-0.017,-2.432 0.335,-4.771 1.058,-7.092c0.48,-1.54 -1.933,-2.199 -2.411,-0.665c-0.785,2.523 -1.165,5.115 -1.147,7.757c0.011,1.608 2.511,1.612 2.5,0" style="fill:#010101;fill-rule:nonzero;"/><path d="M119.778,396.64c-1.41,-2.004 -2.82,-4.007 -4.231,-6.011c-0.918,-1.306 -3.087,-0.058 -2.158,1.262c1.41,2.003 2.82,4.007 4.23,6.011c0.919,1.305 3.088,0.058 2.159,-1.262" style="fill:#010101;fill-rule:nonzero;"/><path d="M119.458,393.105l0,-1.86c0,-1.608 -2.5,-1.611 -2.5,0l0,1.86c0,1.609 2.5,1.611 2.5,0" style="fill:#010101;fill-rule:nonzero;"/><path d="M133.02,423.739c-1.247,1.499 -1.946,3.217 -2.069,5.166c-0.101,1.607 2.399,1.601 2.5,0c0.078,-1.244 0.537,-2.437 1.337,-3.398c1.022,-1.229 -0.737,-3.006 -1.768,-1.768" style="fill:#010101;fill-rule:nonzero;"/><path d="M140.685,424.373c1.75,0.38 2.941,1.718 3.206,3.477c0.101,0.672 0.941,1.03 1.537,0.873c0.717,-0.189 0.973,-0.874 0.873,-1.538c-0.384,-2.551 -2.443,-4.678 -4.951,-5.223c-1.569,-0.34 -2.239,2.069 -0.665,2.411" style="fill:#010101;fill-rule:nonzero;"/><path d="M143.445,424.064c0.93,0.155 1.86,0.31 2.789,0.465c0.666,0.111 1.346,-0.175 1.538,-0.873c0.165,-0.599 -0.203,-1.426 -0.873,-1.538c-0.93,-0.155 -1.86,-0.31 -2.789,-0.465c-0.666,-0.111 -1.346,0.175 -1.538,0.873c-0.165,0.599 0.203,1.426 0.873,1.538" style="fill:#010101;fill-rule:nonzero;"/><path d="M154.272,411.436c0.646,0.996 0.824,2.076 0.492,3.221c-0.449,1.548 1.963,2.209 2.411,0.665c0.507,-1.748 0.248,-3.619 -0.744,-5.148c-0.873,-1.345 -3.038,-0.093 -2.159,1.262" style="fill:#010101;fill-rule:nonzero;"/><path d="M156.483,401.231c1.046,0.441 1.93,1.391 2.331,2.445c0.24,0.63 0.843,1.064 1.538,0.873c0.604,-0.166 1.115,-0.904 0.873,-1.538c-0.748,-1.965 -2.145,-3.377 -4.077,-4.191c-0.623,-0.262 -1.376,0.282 -1.538,0.873c-0.198,0.722 0.248,1.275 0.873,1.538" style="fill:#010101;fill-rule:nonzero;"/><path d="M221.076,321.193c-25.359,1.272 -49.699,-6.294 -73.567,-13.924c-1.536,-0.491 -2.193,1.921 -0.664,2.41c24.076,7.697 48.656,15.297 74.231,14.014c1.601,-0.08 1.611,-2.581 0,-2.5" style="fill:#010101;fill-rule:nonzero;"/><path d="M268.328,310.587c4.307,-2.256 8.388,-4.864 11.104,-9c0.885,-1.349 -1.278,-2.603 -2.159,-1.262c-2.467,3.757 -6.308,6.061 -10.207,8.103c-1.426,0.747 -0.163,2.905 1.262,2.159" style="fill:#010101;fill-rule:nonzero;"/><path d="M234.765,322.271c4.367,-0.857 8.674,-1.931 12.933,-3.224c1.535,-0.466 0.881,-2.88 -0.665,-2.411c-4.258,1.293 -8.565,2.367 -12.933,3.224c-1.577,0.31 -0.909,2.72 0.665,2.411" style="fill:#010101;fill-rule:nonzero;"/><path d="M143.835,328.602c6.528,4.64 14.206,4.182 21.754,2.886c10.34,-1.776 20.165,-2.8 30.581,-0.824c4.442,0.842 8.53,2.411 12.838,3.681c2.658,0.783 5.026,1.231 7.622,-0.001c4.533,-2.152 6.717,-7.517 5.03,-12.168c-0.544,-1.5 -2.961,-0.852 -2.41,0.665c1.37,3.777 -0.595,8.486 -4.661,9.619c-3.144,0.876 -6.986,-1.352 -9.912,-2.261c-6.108,-1.896 -12.486,-2.959 -18.875,-3.199c-6.157,-0.231 -12.17,0.474 -18.212,1.585c-7.707,1.416 -15.692,2.692 -22.493,-2.142c-1.314,-0.933 -2.564,1.234 -1.262,2.159" style="fill:#010101;fill-rule:nonzero;"/><path d="M271.786,329.921c2.073,-0.572 4.125,-1.208 6.155,-1.919c1.509,-0.528 0.859,-2.944 -0.665,-2.41c-2.03,0.71 -4.081,1.346 -6.155,1.918c-1.548,0.428 -0.891,2.84 0.665,2.411" style="fill:#010101;fill-rule:nonzero;"/><path d="M225.92,330.335c1.543,8.845 17.949,4.2 23.545,3.476c1.573,-0.204 1.594,-2.707 0,-2.5c-4.245,0.549 -20.008,4.815 -21.134,-1.641c-0.276,-1.582 -2.686,-0.911 -2.411,0.665" style="fill:#010101;fill-rule:nonzero;"/><path d="M242.113,319.442c0.648,-1.408 1.554,-1.928 2.719,-1.559c0.809,0.045 1.556,0.3 2.243,0.765c0.888,0.533 1.711,1.37 2.286,2.228c1.191,1.779 1.822,4.03 1.919,6.154c0.098,2.137 -0.375,4.559 -2.128,5.959c-1.807,1.443 -4.331,1.421 -5.832,-0.438c-1.011,-1.251 -2.77,0.527 -1.768,1.768c2.197,2.72 6.303,2.857 9.026,0.774c3.357,-2.569 3.688,-7.396 2.746,-11.196c-0.996,-4.018 -3.784,-7.935 -8.151,-8.539c-3.198,-0.443 -7.286,1.754 -5.219,5.346c0.803,1.394 2.964,0.136 2.159,-1.262" style="fill:#010101;fill-rule:nonzero;"/><path d="M242.638,317.916c2.906,-4.406 7.882,-3.501 11.995,-5.936c2.64,-1.562 4.824,-3.259 8.051,-2.586c3.675,0.765 6.212,4.119 7.297,7.582c0.833,2.659 1.286,6.335 0.375,9.051c-0.617,1.839 -2.522,4.53 -4.486,5.115c-0.804,0.239 -2.349,-0.274 -3.201,-0.32c-4.596,-0.247 -9.01,0.633 -13.26,2.349c-1.473,0.595 -0.83,3.014 0.664,2.411c4.714,-1.903 9.202,-2.371 14.246,-2.111c2.72,0.141 4.836,0.346 6.596,-2.039c3.739,-5.065 2.909,-13.806 -0.231,-18.874c-2.78,-4.486 -7.837,-7.396 -13.016,-5.279c-1.781,0.728 -3.214,2.04 -4.906,2.919c-2.246,1.167 -4.42,0.998 -6.719,1.81c-2.446,0.865 -4.165,2.526 -5.564,4.646c-0.888,1.347 1.276,2.601 2.159,1.262" style="fill:#010101;fill-rule:nonzero;"/><path d="M242.202,336.1c5.504,13.159 -4.542,22.592 -8.679,34.206c-3.56,9.997 -4.265,20.721 -0.053,30.605c0.232,0.545 0.91,0.65 1.411,0.574c8.009,-1.204 16.115,-0.866 24.048,0.739c5.612,1.136 9.126,0.94 14.32,-1.626c0.531,-0.262 0.662,-0.888 0.575,-1.412c-2.109,-12.643 -6.551,-24.541 -6.158,-37.541c0.292,-9.626 3.457,-20.889 -1.488,-29.629c-0.793,-1.4 -2.953,-0.141 -2.159,1.262c3.672,6.49 2.012,14.815 1.507,21.991c-0.488,6.932 -0.564,13.748 0.612,20.618c0.674,3.937 1.648,7.808 2.604,11.684c0.531,2.149 3.159,8.418 2.38,10.533c-2.082,5.649 -16.055,0.776 -20.703,0.389c-3.544,-0.295 -7.113,-0.348 -10.66,-0.084c-0.522,0.039 -3.19,0.657 -3.821,0.407c-1.433,-0.569 -2.019,-3.99 -2.295,-5.294c-1.561,-7.395 -0.389,-15.547 2.291,-22.552c4.59,-11.996 14.349,-21.977 8.679,-35.535c-0.612,-1.462 -3.032,-0.82 -2.411,0.665" style="fill:#010101;fill-rule:nonzero;"/><path d="M238.649,333.196c-0.241,11.246 -4.485,20.308 -10.052,29.833c-4.444,7.604 -8.381,15.499 -7.72,24.538c0.065,0.887 0.743,1.324 1.583,1.206c2.701,-0.381 5.077,-0.182 7.676,0.526c1.554,0.423 2.217,-1.988 0.664,-2.411c-3.101,-0.845 -5.831,-0.973 -9.005,-0.526c0.527,0.402 1.055,0.804 1.582,1.205c-0.817,-11.176 5.788,-20.065 10.908,-29.375c4.294,-7.809 6.673,-16.07 6.864,-24.996c0.034,-1.609 -2.466,-1.609 -2.5,0" style="fill:#010101;fill-rule:nonzero;"/><path d="M234.73,401.922c0.69,4.405 0.973,8.818 0.874,13.275c-0.018,0.804 1.232,0.804 1.25,0c0.101,-4.57 -0.212,-9.092 -0.919,-13.607c-0.124,-0.793 -1.328,-0.456 -1.205,0.332" style="fill:#010101;fill-rule:nonzero;"/><path d="M237.339,400.419c0.524,4.036 0.548,8.049 0.072,12.091c-0.094,0.797 1.157,0.791 1.25,0c0.476,-4.042 0.452,-8.055 -0.072,-12.091c-0.102,-0.787 -1.354,-0.797 -1.25,0" style="fill:#010101;fill-rule:nonzero;"/><path d="M239.645,400.411c0.296,4.033 0.592,8.065 0.888,12.097c0.059,0.798 1.309,0.804 1.25,0c-0.296,-4.032 -0.592,-8.064 -0.888,-12.097c-0.059,-0.797 -1.309,-0.804 -1.25,0" style="fill:#010101;fill-rule:nonzero;"/><path d="M242.274,399.696c1.015,5.28 1.474,10.575 1.397,15.948c-0.012,0.805 1.238,0.805 1.25,0c0.078,-5.486 -0.406,-10.894 -1.442,-16.28c-0.151,-0.789 -1.356,-0.455 -1.205,0.332" style="fill:#010101;fill-rule:nonzero;"/><path d="M245.824,400.419c0.471,5.524 0.941,11.048 1.412,16.571c0.068,0.796 1.318,0.803 1.25,0c-0.471,-5.523 -0.941,-11.047 -1.412,-16.571c-0.068,-0.796 -1.318,-0.803 -1.25,0" style="fill:#010101;fill-rule:nonzero;"/><path d="M249.306,400.879c0.521,5.07 1.041,10.141 1.562,15.211c0.081,0.792 1.332,0.801 1.25,0c-0.521,-5.07 -1.041,-10.141 -1.562,-15.211c-0.081,-0.792 -1.332,-0.801 -1.25,0" style="fill:#010101;fill-rule:nonzero;"/><path d="M253.193,401.74c0.603,4.77 0.853,9.545 0.751,14.352c-0.018,0.804 1.232,0.804 1.25,0c0.102,-4.807 -0.148,-9.582 -0.751,-14.352c-0.1,-0.787 -1.351,-0.797 -1.25,0" style="fill:#010101;fill-rule:nonzero;"/><path d="M256.683,401.026c0.448,3.286 0.896,6.571 1.344,9.857c0.108,0.793 1.313,0.455 1.205,-0.333c-0.448,-3.285 -0.896,-6.571 -1.344,-9.856c-0.108,-0.794 -1.312,-0.456 -1.205,0.332" style="fill:#010101;fill-rule:nonzero;"/><path d="M261.624,401.305c0.47,5.821 0.602,11.639 0.399,17.476c-0.028,0.804 1.222,0.803 1.25,0c0.203,-5.837 0.07,-11.655 -0.399,-17.476c-0.064,-0.796 -1.315,-0.803 -1.25,0" style="fill:#010101;fill-rule:nonzero;"/><path d="M264.893,402.786c0.733,3.508 1.104,7.036 1.126,10.618c0.005,0.804 1.255,0.806 1.25,0c-0.023,-3.696 -0.415,-7.333 -1.171,-10.95c-0.164,-0.787 -1.369,-0.454 -1.205,0.332" style="fill:#010101;fill-rule:nonzero;"/><path d="M268.819,402.2c0.296,4.929 0.592,9.857 0.888,14.786c0.048,0.799 1.299,0.804 1.25,0c-0.296,-4.929 -0.592,-9.857 -0.888,-14.786c-0.048,-0.799 -1.298,-0.805 -1.25,0" style="fill:#010101;fill-rule:nonzero;"/><path d="M271.153,400.995c0.969,4.389 1.498,8.812 1.596,13.306c0.017,0.803 1.267,0.806 1.25,0c-0.1,-4.609 -0.646,-9.137 -1.641,-13.638c-0.173,-0.785 -1.378,-0.453 -1.205,0.332" style="fill:#010101;fill-rule:nonzero;"/><path d="M221.266,389.659l0,12.545c0,0.804 1.25,0.806 1.25,0l0,-12.545c0,-0.804 -1.25,-0.806 -1.25,0" style="fill:#010101;fill-rule:nonzero;"/><path d="M224.403,387.866l0,15.681c0,0.805 1.25,0.806 1.25,0l0,-15.681c0,-0.804 -1.25,-0.806 -1.25,0" style="fill:#010101;fill-rule:nonzero;"/><path d="M227.532,389.211c0.15,3.435 0.3,6.87 0.45,10.305c0.035,0.801 1.285,0.805 1.25,0c-0.15,-3.435 -0.3,-6.87 -0.45,-10.305c-0.035,-0.801 -1.285,-0.806 -1.25,0" style="fill:#010101;fill-rule:nonzero;"/><path d="M230.16,389.655c-0.197,4.65 -0.019,9.269 0.536,13.89c0.095,0.789 1.346,0.798 1.25,0c-0.555,-4.621 -0.733,-9.241 -0.536,-13.89c0.034,-0.804 -1.216,-0.803 -1.25,0" style="fill:#010101;fill-rule:nonzero;"/><path d="M255.634,327.861c7.571,2.9 14.148,-5.879 9.232,-12.336c-0.48,-0.632 -1.566,-0.009 -1.079,0.631c4.271,5.61 -1.249,13.017 -7.821,10.5c-0.752,-0.288 -1.077,0.92 -0.332,1.205" style="fill:#010101;fill-rule:nonzero;"/><path d="M246.413,335.139c3.994,15.617 -2.296,30.478 -8.973,44.343c-0.348,0.721 0.73,1.356 1.079,0.63c6.831,-14.181 13.177,-29.362 9.099,-45.305c-0.199,-0.779 -1.405,-0.449 -1.205,0.332" style="fill:#010101;fill-rule:nonzero;"/><path d="M249.52,334.715c0.982,3.317 1.572,6.685 1.763,10.14c0.044,0.8 1.294,0.805 1.25,0c-0.197,-3.566 -0.793,-7.046 -1.808,-10.472c-0.227,-0.77 -1.434,-0.442 -1.205,0.332" style="fill:#010101;fill-rule:nonzero;"/><path d="M221.523,404.597c0.089,-0.549 0.177,-1.098 0.266,-1.648c-0.409,-0.055 -0.818,-0.11 -1.227,-0.166c-0.013,0.135 -0.197,0.113 -0.271,0.088c-0.765,-0.255 -1.093,0.952 -0.333,1.206c0.916,0.305 1.766,-0.387 1.854,-1.294c0.066,-0.694 -1.116,-0.862 -1.228,-0.166c-0.089,0.549 -0.178,1.099 -0.266,1.648c-0.127,0.787 1.077,1.125 1.205,0.332" style="fill:#010101;fill-rule:nonzero;"/><path d="M225.324,404.305c-0.031,0.123 -0.141,0.317 -0.145,0.434c-0.103,0.116 -0.025,0.162 0.235,0.137c0.088,0.172 0.005,0.329 -0.249,0.471c0.776,-0.21 0.447,-1.416 -0.332,-1.205c-0.889,0.241 -0.771,1.394 -0.07,1.789c0.916,0.517 1.58,-0.553 1.766,-1.294c0.197,-0.78 -1.008,-1.113 -1.205,-0.332" style="fill:#010101;fill-rule:nonzero;"/><path d="M231.964,408.024c-0.04,-0.347 0.118,-0.793 0.526,-0.845l-0.166,-1.228c-0.282,0.114 -0.538,0.172 -0.84,0.113c0.145,0.146 0.291,0.291 0.436,0.437c0.05,0.178 -0.529,-0.204 -0.093,-0.131c-0.786,-0.131 -1.125,1.073 -0.332,1.205c1.013,0.169 1.967,-1.086 1.151,-1.927c-0.818,-0.843 -2.232,0.113 -1.931,1.185c0.055,0.198 0.227,0.396 0.436,0.437c0.517,0.1 1.014,0.086 1.505,-0.114c0.292,-0.118 0.493,-0.353 0.448,-0.686c-0.037,-0.275 -0.305,-0.581 -0.614,-0.541c-1.035,0.134 -1.901,0.996 -1.776,2.095c0.09,0.79 1.341,0.799 1.25,0" style="fill:#010101;fill-rule:nonzero;"/><path d="M230.47,405.407c0.124,-0.11 0.249,-0.233 0.402,-0.301c0.295,-0.132 0.01,0.033 0.146,-0.195c-0.413,0.692 0.668,1.322 1.079,0.63c0.362,-0.606 0.05,-1.352 -0.581,-1.627c-0.728,-0.319 -1.401,0.14 -1.93,0.609c-0.603,0.535 0.283,1.416 0.884,0.884" style="fill:#010101;fill-rule:nonzero;"/><path d="M227.285,400.383c-0.065,-0.082 -0.073,0.003 -0.054,0.003c-0.657,0.023 -0.801,0.806 -0.316,1.164c0.32,0.236 0.639,0.472 0.959,0.708c0.648,0.478 1.272,-0.607 0.631,-1.08c-0.32,-0.235 -0.639,-0.471 -0.959,-0.707c-0.105,0.388 -0.21,0.777 -0.315,1.165c1.113,-0.04 1.594,-1.303 0.938,-2.137c-0.497,-0.632 -1.376,0.258 -0.884,0.884" style="fill:#010101;fill-rule:nonzero;"/><path d="M237.869,413.38c-0.586,0.064 -0.684,0.008 -0.295,-0.167c-0.802,0.03 -0.806,1.28 0,1.25c0.888,-0.034 1.408,-1.244 0.614,-1.803c-0.88,-0.62 -1.825,0.494 -1.398,1.351c0.358,0.72 1.437,0.088 1.079,-0.631" style="fill:#010101;fill-rule:nonzero;"/><path d="M243.035,415.255c0.277,0.002 0.618,-0.017 0.871,0.115c0.055,0.029 0.118,0.088 0.153,0.11c-0.016,-0.016 -0.022,0.003 -0.018,0.056c-0.076,0.098 -0.008,0.11 0.205,0.036c-0.719,-0.356 -1.353,0.722 -0.631,1.079c0.899,0.444 1.768,-0.375 1.679,-1.31c-0.104,-1.103 -1.365,-1.329 -2.259,-1.336c-0.805,-0.006 -0.805,1.244 0,1.25" style="fill:#010101;fill-rule:nonzero;"/><path d="M249.075,419.562c-0.066,0.249 -0.301,0.333 -0.522,0.279c-0.308,-0.025 -0.408,-0.254 -0.299,-0.687c-0.233,-0.307 -0.247,-0.57 -0.043,-0.79c0.39,-0.421 1.313,-0.154 1.467,0.502c-0.155,-0.658 -0.904,-1.047 -1.538,-0.873c-0.672,0.185 -1.028,0.878 -0.873,1.537c0.458,1.943 3.458,1.091 3.201,-0.741c-0.125,-0.892 -1.018,-1.422 -1.87,-1.409c-0.9,0.015 -1.704,0.655 -1.934,1.517c-0.415,1.557 1.996,2.22 2.411,0.665" style="fill:#010101;fill-rule:nonzero;"/><path d="M253.443,415.925c0.39,0.206 0.637,0.172 0.743,-0.103c0.049,-0.083 0.105,-0.16 0.168,-0.232c0.093,-0.11 0.201,-0.216 0.314,-0.303c0.278,-0.213 0.595,-0.335 0.935,-0.409c-0.264,-0.201 -0.528,-0.402 -0.791,-0.603c0.054,0.431 -0.205,0.782 -0.66,0.759c-0.804,-0.041 -0.802,1.209 0,1.25c1.072,0.055 2.046,-0.925 1.91,-2.009c-0.053,-0.413 -0.357,-0.698 -0.792,-0.603c-0.989,0.217 -2.18,0.996 -2.378,2.066c-0.096,0.514 0.171,1.043 0.702,1.159c0.444,0.096 0.988,-0.154 1.054,-0.64c0.046,-0.337 -0.081,-0.667 -0.436,-0.769c-0.291,-0.083 -0.724,0.103 -0.769,0.437" style="fill:#010101;fill-rule:nonzero;"/><path d="M260.151,416.722c0.575,-0.179 1.149,-0.358 1.724,-0.538c-0.256,-0.145 -0.512,-0.291 -0.769,-0.436c0.016,0.053 -0.051,0.072 -0.006,0.081c-0.785,-0.158 -1.121,1.046 -0.332,1.206c0.943,0.19 1.834,-0.653 1.544,-1.619c-0.095,-0.316 -0.44,-0.54 -0.769,-0.437l-1.724,0.538c-0.766,0.238 -0.439,1.445 0.332,1.205" style="fill:#010101;fill-rule:nonzero;"/><path d="M260.219,412.114c0.012,-1.551 -1.935,-1.108 -2.701,-0.483c0.327,0.253 0.655,0.505 0.982,0.758c0.223,-0.304 0.446,-0.607 0.67,-0.91c0.477,-0.648 -0.607,-1.272 -1.08,-0.631c-0.223,0.303 -0.446,0.606 -0.67,0.91c-0.452,0.614 0.477,1.17 0.982,0.757c0.138,-0.112 0.329,-0.191 0.504,-0.222c0.446,-0.079 0.061,0.11 0.063,-0.179c-0.007,0.805 1.243,0.805 1.25,0" style="fill:#010101;fill-rule:nonzero;"/><path d="M260.533,421.368c0.146,0.021 0.293,0.042 0.439,0.063c0.667,0.096 1.343,-0.164 1.538,-0.873c0.161,-0.587 -0.201,-1.441 -0.873,-1.538c-0.147,-0.021 -0.293,-0.042 -0.439,-0.063c-0.668,-0.095 -1.343,0.165 -1.538,0.873c-0.161,0.587 0.201,1.442 0.873,1.538" style="fill:#010101;fill-rule:nonzero;"/><path d="M265.222,413.291c0.252,0.453 0.504,0.905 0.756,1.358l0,-0.631c-0.008,0.014 -0.229,0.341 -0.229,0.338c0.123,0.089 0.247,0.178 0.37,0.266c0.027,0.283 -0.189,0.391 -0.646,0.322c0.711,0.374 1.344,-0.705 0.631,-1.079c-1.158,-0.608 -1.741,1.387 -0.588,1.71c0.63,0.176 1.177,-0.293 1.473,-0.803c0.394,-0.679 -0.358,-1.519 -0.688,-2.112c-0.391,-0.703 -1.471,-0.073 -1.079,0.631" style="fill:#010101;fill-rule:nonzero;"/><path d="M268.31,417.885l0,0.448c0,0.804 1.25,0.806 1.25,0l0,-0.448c0,-0.804 -1.25,-0.806 -1.25,0" style="fill:#010101;fill-rule:nonzero;"/><path d="M273.698,414.899c0.061,0.022 0.024,0.095 0.012,0.133c-0.241,0.769 0.965,1.098 1.205,0.332c0.231,-0.737 -0.185,-1.42 -0.885,-1.67c-0.759,-0.272 -1.085,0.936 -0.332,1.205" style="fill:#010101;fill-rule:nonzero;"/><path d="M141.754,328.446c-4.041,17.536 -4.604,35.451 -1.717,53.213c0.258,1.584 2.667,0.911 2.411,-0.665c-2.813,-17.301 -2.219,-34.803 1.717,-51.883c0.361,-1.566 -2.049,-2.235 -2.411,-0.665" style="fill:#010101;fill-rule:nonzero;"/><path d="M279.718,303.935c3.47,-1.377 3.621,11.247 3.491,12.232c-0.538,4.078 -2.229,7.625 -4.961,10.696c-1.066,1.199 0.696,2.973 1.768,1.768c4.244,-4.771 6.411,-10.863 5.782,-17.267c-0.303,-3.086 -1.965,-11.736 -6.745,-9.84c-1.477,0.587 -0.833,3.005 0.665,2.411" style="fill:#010101;fill-rule:nonzero;"/><path d="M148.042,311.471c-6.141,6.733 -1.591,17.146 7.544,17.138c0.805,-0.001 0.806,-1.251 0,-1.25c-8.046,0.007 -12.096,-9.044 -6.66,-15.004c0.541,-0.593 -0.34,-1.48 -0.884,-0.884" style="fill:#010101;fill-rule:nonzero;"/><path d="M279.146,308.509c0.503,2.838 0.495,5.666 -0.022,8.502c-0.144,0.786 1.061,1.124 1.205,0.332c0.558,-3.063 0.565,-6.101 0.022,-9.166c-0.14,-0.791 -1.345,-0.456 -1.205,0.332" style="fill:#010101;fill-rule:nonzero;"/><path d="M235.713,334.394c5.597,-0.981 11.194,-1.961 16.791,-2.942c0.791,-0.139 0.456,-1.343 -0.332,-1.205c-5.597,0.98 -11.194,1.961 -16.791,2.942c-0.791,0.138 -0.456,1.343 0.332,1.205" style="fill:#010101;fill-rule:nonzero;"/><path d="M268.726,418.593l2.17,-0.495c-0.16,-0.381 -0.321,-0.762 -0.481,-1.143c-0.485,0.321 -0.97,0.643 -1.455,0.964c-0.56,0.371 -0.224,1.382 0.482,1.142c0.113,-0.038 0.196,-0.05 0.316,-0.026c0.051,0.01 0.101,0.026 0.15,0.046c0.232,0.169 0.272,-0.023 0.121,-0.576c-0.641,0.473 -0.018,1.558 0.63,1.08c0.52,-0.383 0.617,-0.994 0.094,-1.434c-0.432,-0.364 -1.114,-0.475 -1.644,-0.295c0.161,0.381 0.322,0.761 0.482,1.142c0.485,-0.321 0.97,-0.642 1.455,-0.963c0.589,-0.391 0.222,-1.303 -0.482,-1.143c-0.723,0.165 -1.447,0.331 -2.17,0.496c-0.784,0.179 -0.452,1.384 0.332,1.205" style="fill:#010101;fill-rule:nonzero;"/><path d="M25.587,373.505c16.375,-10.302 33.402,-19.524 51.03,-27.499c8.904,-4.028 18.226,-8.717 27.932,-10.417c11.663,-2.043 22.446,2.602 32.818,7.358c0.726,0.333 1.362,-0.744 0.631,-1.079c-8.636,-3.96 -17.67,-8.082 -27.359,-8.074c-9.814,0.007 -19.075,4.344 -27.914,8.156c-20.023,8.636 -39.314,18.866 -57.769,30.476c-0.679,0.427 -0.053,1.509 0.631,1.079" style="fill:#010101;fill-rule:nonzero;"/><path d="M285.17,378.246c21.502,-11.741 46.53,-23.788 70.145,-10.229c15.339,8.807 27.167,24.153 45.298,27.516c0.787,0.146 1.124,-1.058 0.333,-1.205c-20.181,-3.744 -32.371,-22.383 -50.607,-30.213c-22.594,-9.701 -46.081,2.284 -65.8,13.052c-0.706,0.385 -0.076,1.465 0.631,1.079" style="fill:#010101;fill-rule:nonzero;"/><path d="M25.315,354.58c3.68,-3.509 7.429,-6.941 11.282,-10.259c4.138,-3.563 9.673,-10.07 15.494,-10.061c8.585,0.012 16.609,8.338 24.366,11.351c0.75,0.292 1.075,-0.917 0.332,-1.205c-8.086,-3.142 -17.09,-12.656 -26.366,-11.306c-4.215,0.613 -7.957,4.668 -11.071,7.259c-5.131,4.27 -10.091,8.731 -14.921,13.337c-0.583,0.556 0.302,1.439 0.884,0.884" style="fill:#010101;fill-rule:nonzero;"/><path d="M59.922,402.076c0.733,2.418 1.693,4.749 2.869,6.985c0.75,1.425 2.908,0.162 2.159,-1.262c-1.079,-2.05 -1.945,-4.17 -2.617,-6.388c-0.466,-1.535 -2.88,-0.881 -2.411,0.665" style="fill:#010101;fill-rule:nonzero;"/><path d="M97.651,441.938c1.375,2.095 2.834,4.127 4.409,6.076c1.211,1.5 2.498,3.427 4.175,4.42c3.436,2.034 5.771,-1.64 8.005,-3.835c1.15,-1.129 -0.618,-2.897 -1.767,-1.768c-0.857,0.842 -1.708,1.95 -2.688,2.641c-1.865,1.317 -2.972,0.267 -4.305,-1.26c-2.073,-2.376 -3.941,-4.901 -5.67,-7.536c-0.879,-1.34 -3.045,-0.088 -2.159,1.262" style="fill:#010101;fill-rule:nonzero;"/><path d="M114.913,447.564c-0.436,-4.084 -2.009,-7.712 -4.728,-10.796c-1.067,-1.209 -2.829,0.565 -1.768,1.768c2.248,2.549 3.634,5.643 3.996,9.028c0.169,1.583 2.671,1.6 2.5,0" style="fill:#010101;fill-rule:nonzero;"/><path d="M79.187,466.934c-0.85,-0.761 -2.926,-2.396 -3.02,-3.533c-0.218,-2.674 2.389,-2.748 4.15,-3.01c2.382,-0.355 4.879,-0.371 7.281,-0.508c4.463,-0.255 8.924,1.25 13.28,0.414c1.578,-0.303 0.91,-2.713 -0.665,-2.41c-2.624,0.503 -5.134,-0.44 -7.709,-0.614c-2.143,-0.145 -4.305,0.074 -6.442,0.208c-2.856,0.179 -6.218,-0.025 -8.95,0.985c-5.994,2.215 -3.271,7.031 0.307,10.236c1.196,1.07 2.97,-0.692 1.768,-1.768" style="fill:#010101;fill-rule:nonzero;"/><path d="M77.817,458.191c-4.796,-4.135 -6.349,-10.43 -2.274,-15.71c2.718,-3.522 6.698,-6.041 10.577,-8.104c1.421,-0.756 0.159,-2.915 -1.262,-2.159c-5.048,2.686 -11.218,6.634 -13.356,12.245c-2.197,5.764 0.047,11.615 4.547,15.496c1.213,1.046 2.989,-0.715 1.768,-1.768" style="fill:#010101;fill-rule:nonzero;"/><path d="M107.778,452.461c-5.049,0.242 -10.1,0.457 -15.152,0.63c-2.526,0.087 -5.053,0.165 -7.579,0.233c-1.887,0.052 -4.657,0.635 -6.477,0.142c-2.201,0.257 -3.068,-1.398 -2.604,-4.966c1.314,-0.246 2.637,-0.406 3.971,-0.48c2.438,-0.228 4.895,-0.337 7.342,-0.424c4.904,-0.174 9.803,-0.104 14.704,0.129c1.608,0.076 1.604,-2.424 0,-2.5c-7.911,-0.376 -15.998,-0.477 -23.878,0.451c-3.259,0.384 -8.023,1.78 -6.993,6.139c1.139,4.814 7.476,4.171 11.092,4.082c8.529,-0.208 17.053,-0.527 25.574,-0.936c1.602,-0.077 1.611,-2.577 0,-2.5" style="fill:#010101;fill-rule:nonzero;"/><path d="M92.987,438.876c0.687,0.357 1.373,0.713 2.06,1.07c0.599,0.311 1.358,0.154 1.71,-0.448c0.329,-0.562 0.153,-1.398 -0.448,-1.711c-0.687,-0.356 -1.374,-0.713 -2.06,-1.07c-0.599,-0.311 -1.358,-0.154 -1.71,0.449c-0.329,0.561 -0.153,1.398 0.448,1.71" style="fill:#010101;fill-rule:nonzero;"/><path d="M63.4,406.902c-12.645,-0.958 -21.565,8.223 -30.005,16.27c-10.485,9.997 -21.733,19.141 -32.969,28.271c-1.249,1.015 0.529,2.775 1.768,1.768c9.802,-7.965 19.614,-15.936 28.92,-24.484c9.183,-8.434 18.488,-20.37 32.286,-19.325c1.605,0.122 1.597,-2.379 0,-2.5" style="fill:#010101;fill-rule:nonzero;"/><path d="M60.16,400.314c-3.315,0.447 -3.892,4.133 -3.838,6.847c0.027,1.36 2.164,1.759 2.455,0.332c0.21,-1.023 0.537,-1.985 1.087,-2.878c0.129,-0.215 0.27,-0.422 0.422,-0.62c-0.294,-0.09 -0.336,0.021 -0.126,0.331c-0.073,0.525 0.026,0.917 -0.168,1.455c0.697,-0.184 1.393,-0.368 2.089,-0.552c-1.097,-0.851 -2.416,-1.067 -3.635,-0.299c-0.767,0.483 -0.852,1.695 0,2.158c1.109,0.603 2.149,0.429 3.117,-0.328c0.605,-0.472 0.422,-1.648 -0.253,-1.963c-0.346,-0.161 -0.693,-0.323 -1.039,-0.485c-1.272,-0.593 -2.493,0.866 -1.515,1.964c0.818,0.917 1.944,1.385 3.172,1.326c1.601,-0.076 1.611,-2.576 0,-2.5c-0.616,0.03 -0.998,-0.139 -1.404,-0.594c-0.505,0.654 -1.01,1.309 -1.515,1.963c0.347,0.162 0.693,0.323 1.04,0.485c-0.085,-0.655 -0.169,-1.309 -0.253,-1.963c-0.03,-0.021 -0.059,-0.042 -0.088,-0.063l0,2.158c0.167,-0.105 0.409,-0.244 0.606,-0.091c0.763,0.592 1.746,0.401 2.089,-0.552c0.623,-1.733 0.176,-5.402 -2.417,-5.042c-2.169,0.302 -3.252,3.627 -3.619,5.425c0.818,0.111 1.637,0.222 2.455,0.333c-0.032,-1.634 -0.114,-4.151 2.003,-4.436c1.587,-0.214 0.911,-2.623 -0.665,-2.411" style="fill:#010101;fill-rule:nonzero;"/><path d="M289.169,424.628c16.135,5.078 32.405,9.689 48.805,13.832c1.56,0.394 2.226,-2.017 0.665,-2.411c-16.4,-4.143 -32.671,-8.754 -48.805,-13.832c-1.539,-0.484 -2.197,1.929 -0.665,2.411" style="fill:#010101;fill-rule:nonzero;"/><path d="M60.356,402.253c1.577,2.148 2.98,4.4 4.21,6.764c0.72,-0.421 1.439,-0.842 2.159,-1.262c-1.398,-2.225 -2.822,-4.432 -4.273,-6.622c-0.885,-1.335 -3.051,-0.084 -2.159,1.262c1.452,2.19 2.876,4.397 4.273,6.622c0.858,1.366 2.902,0.166 2.159,-1.262c-1.231,-2.364 -2.633,-4.616 -4.21,-6.764c-0.943,-1.283 -3.113,-0.037 -2.159,1.262" style="fill:#010101;fill-rule:nonzero;"/><path d="M60.788,404.342c5.266,8.677 11.224,16.844 17.865,24.52c1.054,1.218 2.816,-0.556 1.767,-1.768c-6.502,-7.517 -12.317,-15.518 -17.473,-24.014c-0.834,-1.373 -2.997,-0.118 -2.159,1.262" style="fill:#010101;fill-rule:nonzero;"/><path d="M59.681,403.076c2.71,3.274 5.193,6.707 7.469,10.297c0.859,1.355 3.023,0.102 2.159,-1.262c-2.39,-3.769 -5.015,-7.366 -7.86,-10.803c-1.027,-1.24 -2.787,0.537 -1.768,1.768" style="fill:#010101;fill-rule:nonzero;"/><path d="M59.536,402.612c3.842,3.149 6.893,6.956 9.121,11.397c0.721,1.439 2.878,0.174 2.158,-1.262c-2.313,-4.612 -5.52,-8.631 -9.511,-11.903c-1.235,-1.012 -3.014,0.747 -1.768,1.768" style="fill:#010101;fill-rule:nonzero;"/><path d="M69.91,416.783c6.875,9.448 15.251,17.423 25.042,23.799c1.353,0.881 2.607,-1.283 1.262,-2.159c-9.423,-6.136 -17.529,-13.81 -24.145,-22.902c-0.938,-1.288 -3.108,-0.042 -2.159,1.262" style="fill:#010101;fill-rule:nonzero;"/><path d="M82.479,429.485c4.832,3.41 9.379,7.162 13.657,11.244c1.164,1.111 2.935,-0.655 1.768,-1.768c-4.432,-4.229 -9.159,-8.103 -14.163,-11.635c-1.317,-0.929 -2.568,1.238 -1.262,2.159" style="fill:#010101;fill-rule:nonzero;"/><path d="M88.998,433.769c2.677,1.996 5.117,4.268 7.337,6.761c1.072,1.204 2.835,-0.569 1.768,-1.768c-2.368,-2.658 -4.99,-5.025 -7.843,-7.152c-1.291,-0.962 -2.539,1.207 -1.262,2.159" style="fill:#010101;fill-rule:nonzero;"/></svg>